<svg width="20" height="20" viewBox="0 0 20 20" fill="none" xmlns="http://www.w3.org/2000/svg">
<g clip-path="url(#clip0_3193_9142)">
<path d="M9.24998 19.3847C9.08848 19.3847 8.94873 19.3258 8.83073 19.208C8.71273 19.09 8.65373 18.9502 8.65373 18.7887C8.65373 18.6271 8.71273 18.4873 8.83073 18.3695C8.94873 18.2515 9.08848 18.1925 9.24998 18.1925H9.40373V16.4695C8.67823 16.3861 8.01831 16.2195 7.42398 15.9695C6.82981 15.7195 6.29556 15.3893 5.82123 14.979L4.61148 16.204L4.72698 16.3195C4.85131 16.4438 4.9119 16.5851 4.90873 16.7435C4.9054 16.9018 4.84481 17.04 4.72698 17.158C4.60264 17.2823 4.46131 17.3429 4.30298 17.3397C4.14465 17.3364 4.00331 17.2726 3.87898 17.1482L2.83273 16.1175C2.7084 15.9931 2.64623 15.8508 2.64623 15.6905C2.64623 15.5303 2.7084 15.3881 2.83273 15.2637C2.95706 15.1394 3.09681 15.083 3.25198 15.0945C3.40715 15.106 3.5469 15.1656 3.67123 15.2732L3.76723 15.3695L4.99223 14.1445C4.5564 13.615 4.22306 13.0695 3.99223 12.508C3.76156 11.9463 3.60773 11.3091 3.53073 10.5965H1.80773V10.7502C1.80773 10.9117 1.74873 11.0515 1.63073 11.1695C1.5129 11.2875 1.37315 11.3465 1.21148 11.3465C1.04998 11.3465 0.910228 11.2875 0.792229 11.1695C0.674395 11.0515 0.615479 10.9117 0.615479 10.7502V9.25022C0.615479 9.08872 0.674395 8.94897 0.792229 8.83097C0.910228 8.71297 1.04998 8.65397 1.21148 8.65397C1.37315 8.65397 1.5129 8.71297 1.63073 8.83097C1.74873 8.94897 1.80773 9.08872 1.80773 9.25022V9.40397H3.53073C3.60773 8.69131 3.76739 8.05256 4.00973 7.48772C4.25189 6.92306 4.58265 6.37914 5.00198 5.85597L3.77698 4.63097L3.67123 4.73672C3.5469 4.85089 3.40715 4.91056 3.25198 4.91572C3.09681 4.92072 2.95706 4.86106 2.83273 4.73672C2.7084 4.61239 2.64623 4.47014 2.64623 4.30997C2.64623 4.14964 2.7084 4.00731 2.83273 3.88297L3.88273 2.83297C4.00706 2.70864 4.15098 2.64647 4.31448 2.64647C4.47798 2.64647 4.6219 2.70864 4.74623 2.83297C4.87056 2.95731 4.92948 3.09964 4.92298 3.25997C4.91665 3.42014 4.85131 3.56239 4.72698 3.68672L4.62123 3.79247L5.83073 5.00222C6.37306 4.56622 6.91856 4.23289 7.46723 4.00222C8.01606 3.77139 8.65323 3.61431 9.37873 3.53097V1.80797H9.23448C9.07298 1.80797 8.93581 1.74897 8.82298 1.63097C8.71015 1.51314 8.65373 1.37339 8.65373 1.21172C8.65373 1.05022 8.71273 0.910473 8.83073 0.792473C8.94873 0.67464 9.08848 0.615723 9.24998 0.615723H10.75C10.9115 0.615723 11.0512 0.67464 11.1692 0.792473C11.2872 0.910473 11.3462 1.05022 11.3462 1.21172C11.3462 1.37339 11.2872 1.51314 11.1692 1.63097C11.0512 1.74897 10.9115 1.80797 10.75 1.80797H10.5962V3.53097C11.3217 3.61431 11.9589 3.77139 12.5077 4.00222C13.0564 4.23289 13.6019 4.56622 14.1442 5.00222L15.3692 3.77722L15.2537 3.66172C15.1359 3.54389 15.077 3.40581 15.077 3.24747C15.077 3.08914 15.1359 2.95097 15.2537 2.83297C15.3781 2.70864 15.5204 2.64647 15.6807 2.64647C15.8409 2.64647 15.9832 2.70864 16.1077 2.83297L17.1672 3.90797C17.2916 4.03231 17.3537 4.17206 17.3537 4.32722C17.3537 4.48239 17.2916 4.62214 17.1672 4.74647C17.0429 4.87081 16.9022 4.93139 16.7452 4.92822C16.5881 4.92489 16.4473 4.86106 16.323 4.73672L16.2077 4.62147L14.998 5.83097C15.434 6.36047 15.7689 6.91181 16.0027 7.48497C16.2367 8.05797 16.3922 8.69764 16.4692 9.40397H18.1922V9.25022C18.1922 9.08872 18.2512 8.94897 18.3692 8.83097C18.4871 8.71297 18.6268 8.65397 18.7885 8.65397C18.95 8.65397 19.0897 8.71297 19.2077 8.83097C19.3256 8.94897 19.3845 9.08872 19.3845 9.25022V10.7502C19.3845 10.9117 19.3256 11.0515 19.2077 11.1695C19.0897 11.2875 18.95 11.3465 18.7885 11.3465C18.6268 11.3465 18.4871 11.2875 18.3692 11.1695C18.2512 11.0515 18.1922 10.9117 18.1922 10.7502V10.5965H16.4692C16.3922 11.3091 16.2367 11.9488 16.0027 12.5155C15.7689 13.0821 15.434 13.6302 14.998 14.1597L16.2077 15.3695L16.323 15.254C16.4473 15.1296 16.5896 15.0691 16.75 15.0722C16.9101 15.0756 17.0525 15.1361 17.177 15.254C17.3013 15.372 17.3635 15.5143 17.3635 15.681C17.3635 15.8476 17.3013 15.9931 17.177 16.1175L16.127 17.1675C16.0025 17.2918 15.8586 17.354 15.6952 17.354C15.5317 17.354 15.3878 17.2918 15.2635 17.1675C15.1455 17.0495 15.0891 16.9113 15.0942 16.753C15.0994 16.5946 15.159 16.4533 15.273 16.329L15.3692 16.2232L14.1442 14.9982C13.6532 15.4086 13.1221 15.7381 12.551 15.9867C11.9798 16.2354 11.3282 16.4014 10.5962 16.4847V18.1925H10.75C10.9115 18.1925 11.0512 18.2515 11.1692 18.3695C11.2872 18.4873 11.3462 18.6271 11.3462 18.7887C11.3462 18.9502 11.2872 19.09 11.1692 19.208C11.0512 19.3258 10.9115 19.3847 10.75 19.3847H9.24998ZM9.99998 15.0002C11.3833 15.0002 12.5625 14.5127 13.5375 13.5377C14.5125 12.5627 15 11.3836 15 10.0002C15 8.61689 14.5125 7.43772 13.5375 6.46272C12.5625 5.48772 11.3833 5.00022 9.99998 5.00022C8.61665 5.00022 7.43748 5.48772 6.46248 6.46272C5.48748 7.43772 4.99998 8.61689 4.99998 10.0002C4.99998 11.3836 5.48748 12.5627 6.46248 13.5377C7.43748 14.5127 8.61665 15.0002 9.99998 15.0002ZM8.34623 13.7887C8.59106 13.7887 8.79965 13.7025 8.97198 13.53C9.14448 13.3576 9.23073 13.149 9.23073 12.904C9.23073 12.6591 9.14448 12.4506 8.97198 12.2782C8.79965 12.1057 8.59106 12.0195 8.34623 12.0195C8.10123 12.0195 7.89256 12.1057 7.72023 12.2782C7.54773 12.4506 7.46148 12.6591 7.46148 12.904C7.46148 13.149 7.54773 13.3576 7.72023 13.53C7.89256 13.7025 8.10123 13.7887 8.34623 13.7887ZM11.6537 13.7887C11.8987 13.7887 12.1074 13.7025 12.2797 13.53C12.4522 13.3576 12.5385 13.149 12.5385 12.904C12.5385 12.6591 12.4522 12.4506 12.2797 12.2782C12.1074 12.1057 11.8987 12.0195 11.6537 12.0195C11.4089 12.0195 11.2003 12.1057 11.028 12.2782C10.8555 12.4506 10.7692 12.6591 10.7692 12.904C10.7692 13.149 10.8555 13.3576 11.028 13.53C11.2003 13.7025 11.4089 13.7887 11.6537 13.7887ZM6.59623 10.8847C6.84106 10.8847 7.04965 10.7986 7.22198 10.6262C7.39448 10.4537 7.48073 10.2451 7.48073 10.0002C7.48073 9.75539 7.39448 9.54672 7.22198 9.37422C7.04965 9.20189 6.84106 9.11572 6.59623 9.11572C6.35123 9.11572 6.14256 9.20189 5.97023 9.37422C5.79773 9.54672 5.71148 9.75539 5.71148 10.0002C5.71148 10.2451 5.79773 10.4537 5.97023 10.6262C6.14256 10.7986 6.35123 10.8847 6.59623 10.8847ZM9.99998 10.8847C10.2448 10.8847 10.4535 10.7986 10.626 10.6262C10.7983 10.4537 10.8845 10.2451 10.8845 10.0002C10.8845 9.75539 10.7983 9.54672 10.626 9.37422C10.4535 9.20189 10.2448 9.11572 9.99998 9.11572C9.75515 9.11572 9.54648 9.20189 9.37398 9.37422C9.20165 9.54672 9.11548 9.75539 9.11548 10.0002C9.11548 10.2451 9.20165 10.4537 9.37398 10.6262C9.54648 10.7986 9.75515 10.8847 9.99998 10.8847ZM13.4037 10.8847C13.6487 10.8847 13.8574 10.7986 14.0297 10.6262C14.2022 10.4537 14.2885 10.2451 14.2885 10.0002C14.2885 9.75539 14.2022 9.54672 14.0297 9.37422C13.8574 9.20189 13.6487 9.11572 13.4037 9.11572C13.1589 9.11572 12.9503 9.20189 12.778 9.37422C12.6055 9.54672 12.5192 9.75539 12.5192 10.0002C12.5192 10.2451 12.6055 10.4537 12.778 10.6262C12.9503 10.7986 13.1589 10.8847 13.4037 10.8847ZM8.34623 7.98097C8.59106 7.98097 8.79965 7.89472 8.97198 7.72222C9.14448 7.54989 9.23073 7.34131 9.23073 7.09647C9.23073 6.85147 9.14448 6.64281 8.97198 6.47047C8.79965 6.29797 8.59106 6.21172 8.34623 6.21172C8.10123 6.21172 7.89256 6.29797 7.72023 6.47047C7.54773 6.64281 7.46148 6.85147 7.46148 7.09647C7.46148 7.34131 7.54773 7.54989 7.72023 7.72222C7.89256 7.89472 8.10123 7.98097 8.34623 7.98097ZM11.6537 7.98097C11.8987 7.98097 12.1074 7.89472 12.2797 7.72222C12.4522 7.54989 12.5385 7.34131 12.5385 7.09647C12.5385 6.85147 12.4522 6.64281 12.2797 6.47047C12.1074 6.29797 11.8987 6.21172 11.6537 6.21172C11.4089 6.21172 11.2003 6.29797 11.028 6.47047C10.8555 6.64281 10.7692 6.85147 10.7692 7.09647C10.7692 7.34131 10.8555 7.54989 11.028 7.72222C11.2003 7.89472 11.4089 7.98097 11.6537 7.98097Z" fill="#457CA1"/>
</g>
<defs>
<clipPath id="clip0_3193_9142">
<rect width="20" height="20" fill="white"/>
</clipPath>
</defs>
</svg>
