<svg width="20" height="20" viewBox="0 0 20 20" fill="none" xmlns="http://www.w3.org/2000/svg">
<g clip-path="url(#clip0_3144_2323)">
<mask id="mask0_3144_2323" style="mask-type:alpha" maskUnits="userSpaceOnUse" x="-2" y="-2" width="25" height="24">
<rect x="-2" y="-2" width="24" height="24" fill="#D9D9D9"/>
</mask>
<g mask="url(#mask0_3144_2323)">
<path d="M9.24921 17V13.573C8.38121 13.4473 7.61679 13.1079 6.95596 12.5548C6.29512 12.0016 5.84671 11.3064 5.61071 10.4692C4.45687 10.3321 3.48321 9.84233 2.68971 9C1.89604 8.15767 1.49921 7.15767 1.49921 6V5.30775C1.49921 4.81058 1.67621 4.385 2.03021 4.031C2.38421 3.677 2.80979 3.5 3.30696 3.5H5.32621V3.30775C5.32621 2.81058 5.50321 2.385 5.85721 2.031C6.21121 1.677 6.63679 1.5 7.13396 1.5H12.8645C13.3616 1.5 13.7872 1.677 14.1412 2.031C14.4952 2.385 14.6722 2.81058 14.6722 3.30775V3.5H16.6915C17.1886 3.5 17.6142 3.677 17.9682 4.031C18.3222 4.385 18.4992 4.81058 18.4992 5.30775V6C18.4992 7.15767 18.1024 8.15767 17.3087 9C16.5152 9.84233 15.5415 10.3321 14.3877 10.4692C14.1517 11.3064 13.7033 12.0016 13.0425 12.5548C12.3816 13.1079 11.6172 13.4473 10.7492 13.573V17H13.557C13.7695 17 13.9475 17.0719 14.0912 17.2158C14.235 17.3596 14.307 17.5377 14.307 17.7502C14.307 17.9629 14.235 18.141 14.0912 18.2845C13.9475 18.4282 13.7695 18.5 13.557 18.5H6.44146C6.22896 18.5 6.05087 18.4281 5.90721 18.2843C5.76337 18.1404 5.69146 17.9623 5.69146 17.7498C5.69146 17.5371 5.76337 17.359 5.90721 17.2155C6.05087 17.0718 6.22896 17 6.44146 17H9.24921ZM5.32621 8.85775V5H3.30696C3.21712 5 3.14337 5.02883 3.08571 5.0865C3.02804 5.14417 2.99921 5.21792 2.99921 5.30775V6C2.99921 6.691 3.21779 7.30192 3.65496 7.83275C4.09212 8.36342 4.64921 8.70508 5.32621 8.85775ZM10.0015 12.1348C10.8781 12.1348 11.6225 11.8281 12.2347 11.2148C12.8469 10.6014 13.153 9.85675 13.153 8.98075V3.30775C13.153 3.21792 13.1241 3.14417 13.0665 3.0865C13.0088 3.02883 12.9351 3 12.8455 3H7.15296C7.06329 3 6.98962 3.02883 6.93196 3.0865C6.87429 3.14417 6.84546 3.21792 6.84546 3.30775V8.98075C6.84546 9.85675 7.15229 10.6014 7.76596 11.2148C8.37962 11.8281 9.12479 12.1348 10.0015 12.1348ZM14.6722 8.85775C15.3492 8.70508 15.9063 8.36342 16.3435 7.83275C16.7806 7.30192 16.9992 6.691 16.9992 6V5.30775C16.9992 5.21792 16.9704 5.14417 16.9127 5.0865C16.855 5.02883 16.7813 5 16.6915 5H14.6722V8.85775Z" fill="#457CA1"/>
</g>
</g>
<defs>
<clipPath id="clip0_3144_2323">
<rect width="20" height="20" fill="white"/>
</clipPath>
</defs>
</svg>
