<svg width="218" height="54" viewBox="0 0 218 54" fill="none" xmlns="http://www.w3.org/2000/svg">
<g clip-path="url(#clip0_3352_587)">
<path d="M76.1939 31.4118C76.2969 31.6742 76.3983 31.9382 76.4981 32.2054C76.5963 31.9286 76.6993 31.6638 76.8087 31.4118C76.9182 31.1599 77.0405 30.9048 77.1806 30.648L84.3744 17.578C84.5032 17.351 84.6368 17.2125 84.7753 17.1627C84.9137 17.1136 85.1117 17.0886 85.3692 17.0886H87.4908V38.3473H84.9684V22.7258C84.9684 22.5182 84.9732 22.296 84.9829 22.0586C84.9926 21.8212 85.007 21.5789 85.028 21.331L77.744 34.624C77.4961 35.069 77.1501 35.2912 76.7058 35.2912H76.2905C75.8446 35.2912 75.4985 35.069 75.2506 34.624L67.8041 21.2867C67.833 21.5443 67.8556 21.7962 67.87 22.0433C67.8862 22.2912 67.8926 22.5182 67.8926 22.7258V38.3473H65.3718V17.0886H67.4917C67.7493 17.0886 67.9473 17.1136 68.0857 17.1627C68.2241 17.2126 68.3577 17.351 68.4865 17.578L75.83 30.6625C75.9684 30.8999 76.0892 31.1502 76.1939 31.4118Z" fill="#17284C"/>
<path d="M107.651 33.9561C107.809 33.9561 107.952 34.0205 108.081 34.1493L109.207 35.3807C108.338 36.3892 107.282 37.1755 106.041 37.7389C104.8 38.3031 103.303 38.584 101.553 38.584C100.021 38.584 98.6299 38.32 97.384 37.7912C96.1381 37.2624 95.0757 36.5203 94.1952 35.5658C93.3147 34.6112 92.6322 33.4667 92.1477 32.1315C91.6631 30.7963 91.42 29.3274 91.42 27.7257C91.42 26.1232 91.6808 24.6544 92.1991 23.3191C92.7191 21.9847 93.4483 20.837 94.3883 19.8776C95.3268 18.9182 96.452 18.1745 97.7623 17.6449C99.0726 17.1161 100.52 16.8513 102.102 16.8513C103.665 16.8513 105.012 17.0936 106.144 17.5781C107.277 18.0626 108.283 18.7202 109.164 19.5516L108.229 20.8716C108.159 20.9706 108.081 21.0519 107.992 21.1162C107.902 21.1806 107.773 21.2128 107.606 21.2128C107.477 21.2128 107.342 21.1661 107.198 21.072C107.055 20.9778 106.885 20.8619 106.686 20.7235C106.488 20.585 106.255 20.4369 105.989 20.2784C105.722 20.1198 105.405 19.9718 105.04 19.8333C104.673 19.6949 104.248 19.579 103.763 19.4849C103.279 19.3907 102.72 19.344 102.088 19.344C100.949 19.344 99.908 19.5388 98.9647 19.93C98.0198 20.3203 97.2069 20.8765 96.5244 21.5984C95.8419 22.3204 95.3091 23.2009 94.9292 24.2392C94.5477 25.2774 94.3578 26.4396 94.3578 27.7258C94.3578 29.0506 94.5477 30.2329 94.9292 31.2712C95.3091 32.3094 95.829 33.1875 96.4874 33.9047C97.1442 34.6218 97.9233 35.1683 98.8231 35.5434C99.7229 35.9192 100.692 36.1076 101.732 36.1076C102.364 36.1076 102.933 36.0705 103.436 35.9965C103.942 35.9216 104.409 35.8057 104.839 35.6472C105.27 35.4894 105.669 35.289 106.041 35.0468C106.411 34.8045 106.785 34.5148 107.161 34.1791C107.329 34.0302 107.491 33.9561 107.651 33.9561Z" fill="#17284C"/>
<path d="M117.1 15.9346C117.625 15.9346 118.116 16.0126 118.571 16.168C119.025 16.3241 119.42 16.5503 119.751 16.8473C120.083 17.1443 120.344 17.5056 120.534 17.933C120.724 18.3596 120.818 18.8441 120.818 19.3858C120.818 19.8469 120.751 20.2735 120.612 20.6655C120.474 21.0574 120.286 21.4341 120.049 21.7947C119.812 22.1545 119.54 22.5037 119.233 22.841C118.924 23.1783 118.597 23.5227 118.251 23.8744L114.99 27.213C115.22 27.1494 115.453 27.0987 115.69 27.0617C115.927 27.0238 116.155 27.0053 116.374 27.0053H120.526C120.693 27.0053 120.825 27.0544 120.923 27.1526C121.021 27.2508 121.07 27.3772 121.07 27.5325V28.467H112.802V27.9398C112.802 27.8303 112.823 27.7176 112.867 27.6018C112.91 27.4867 112.981 27.3804 113.079 27.2822L117.049 23.295C117.377 22.9609 117.676 22.639 117.948 22.3308C118.219 22.0225 118.451 21.7118 118.644 21.4011C118.837 21.0897 118.985 20.7742 119.09 20.4538C119.193 20.1335 119.246 19.7923 119.246 19.4293C119.246 19.0655 119.188 18.7475 119.072 18.4731C118.956 18.1995 118.798 17.9733 118.597 17.7946C118.394 17.6159 118.158 17.4815 117.887 17.3922C117.617 17.3028 117.325 17.2578 117.013 17.2578C116.703 17.2578 116.414 17.3045 116.149 17.3962C115.883 17.4887 115.648 17.6167 115.444 17.7809C115.239 17.9459 115.067 18.1399 114.925 18.3653C114.784 18.5898 114.684 18.8377 114.626 19.1089C114.581 19.2763 114.512 19.3971 114.42 19.4719C114.327 19.5468 114.206 19.5846 114.056 19.5846C114.027 19.5846 113.997 19.583 113.964 19.5806C113.934 19.5774 113.897 19.5733 113.857 19.5677L113.053 19.4293C113.134 18.8643 113.288 18.3636 113.52 17.9282C113.75 17.4928 114.043 17.1282 114.397 16.8344C114.752 16.5398 115.159 16.3169 115.618 16.164C116.075 16.011 116.57 15.9346 117.1 15.9346Z" fill="#17284C"/>
<path d="M145.227 33.9561C145.384 33.9561 145.528 34.0205 145.656 34.1493L146.783 35.3807C145.914 36.3892 144.858 37.1755 143.617 37.7389C142.376 38.3031 140.879 38.584 139.129 38.584C137.596 38.584 136.206 38.32 134.96 37.7912C133.714 37.2624 132.651 36.5203 131.771 35.5658C130.89 34.6112 130.208 33.4667 129.723 32.1315C129.239 30.7963 128.996 29.3274 128.996 27.7257C128.996 26.1232 129.257 24.6544 129.775 23.3191C130.295 21.9847 131.024 20.837 131.964 19.8776C132.903 18.9182 134.028 18.1745 135.338 17.6449C136.648 17.1161 138.095 16.8513 139.678 16.8513C141.241 16.8513 142.588 17.0936 143.72 17.5781C144.853 18.0626 145.859 18.7202 146.74 19.5516L145.804 20.8716C145.735 20.9706 145.656 21.0519 145.568 21.1162C145.478 21.1806 145.349 21.2128 145.181 21.2128C145.053 21.2128 144.917 21.1661 144.774 21.072C144.631 20.9778 144.46 20.8619 144.262 20.7235C144.064 20.585 143.831 20.4369 143.565 20.2784C143.298 20.1198 142.981 19.9718 142.616 19.8333C142.248 19.6949 141.824 19.579 141.339 19.4849C140.855 19.3907 140.296 19.344 139.663 19.344C138.525 19.344 137.484 19.5388 136.54 19.93C135.596 20.3203 134.783 20.8765 134.1 21.5984C133.418 22.3204 132.885 23.2009 132.505 24.2392C132.123 25.2774 131.934 26.4396 131.934 27.7258C131.934 29.0506 132.123 30.2329 132.505 31.2712C132.885 32.3094 133.405 33.1875 134.063 33.9047C134.72 34.6218 135.499 35.1683 136.399 35.5434C137.299 35.9192 138.268 36.1076 139.308 36.1076C139.94 36.1076 140.508 36.0705 141.012 35.9965C141.518 35.9216 141.985 35.8057 142.414 35.6472C142.846 35.4894 143.245 35.289 143.617 35.0468C143.987 34.8045 144.36 34.5148 144.737 34.1791C144.905 34.0302 145.067 33.9561 145.227 33.9561Z" fill="#17284C"/>
<path d="M156.1 23.0818C157 23.0818 157.831 23.2331 158.592 23.5349C159.353 23.8368 160.012 24.2713 160.565 24.8404C161.119 25.4086 161.552 26.1112 161.864 26.9467C162.175 27.7829 162.331 28.7343 162.331 29.8023C162.331 30.2176 162.286 30.4945 162.198 30.633C162.109 30.7722 161.94 30.8406 161.694 30.8406H151.694C151.714 31.7903 151.842 32.6161 152.081 33.3187C152.317 34.0206 152.644 34.6065 153.059 35.0766C153.475 35.5466 153.969 35.8975 154.542 36.1293C155.116 36.3619 155.759 36.4786 156.472 36.4786C157.133 36.4786 157.705 36.4021 158.185 36.2484C158.664 36.0955 159.076 35.9297 159.424 35.751C159.77 35.5731 160.058 35.4081 160.292 35.2544C160.524 35.1015 160.723 35.0242 160.892 35.0242C161.109 35.0242 161.278 35.1087 161.396 35.2769L162.138 36.2411C161.811 36.6363 161.422 36.98 160.966 37.2722C160.511 37.5635 160.025 37.8034 159.505 37.9917C158.986 38.1793 158.449 38.3201 157.895 38.4134C157.341 38.5084 156.792 38.5551 156.248 38.5551C155.21 38.5551 154.254 38.3796 153.378 38.0287C152.502 37.6778 151.746 37.1635 151.108 36.4858C150.471 35.8081 149.973 34.9703 149.618 33.9715C149.262 32.9726 149.083 31.8249 149.083 30.5291C149.083 29.4812 149.244 28.5017 149.566 27.5922C149.887 26.6819 150.349 25.8932 150.952 25.2259C151.556 24.5579 152.293 24.034 153.162 23.6532C154.033 23.2726 155.012 23.0818 156.1 23.0818ZM156.16 25.0255C154.883 25.0255 153.88 25.3941 153.148 26.1306C152.415 26.8678 151.962 27.8884 151.783 29.1939H159.957C159.957 28.5814 159.873 28.0196 159.706 27.5101C159.537 27.0014 159.291 26.5612 158.964 26.1901C158.637 25.8191 158.239 25.5325 157.769 25.3297C157.299 25.1269 156.763 25.0255 156.16 25.0255Z" fill="#17284C"/>
<path d="M165.699 38.3475V23.3192H167.27C167.647 23.3192 167.883 23.5027 167.983 23.8681L168.191 25.5004C168.843 24.7784 169.572 24.1949 170.378 23.7498C171.185 23.3047 172.117 23.0818 173.174 23.0818C173.995 23.0818 174.72 23.2186 175.349 23.4899C175.977 23.7619 176.5 24.1482 176.92 24.6472C177.342 25.1471 177.661 25.7475 177.878 26.4501C178.095 27.1519 178.205 27.9286 178.205 28.7785V38.3475H175.563V28.7785C175.563 27.6413 175.304 26.7591 174.784 26.1305C174.266 25.5028 173.472 25.1888 172.403 25.1888C171.623 25.1888 170.893 25.3764 170.216 25.7522C169.538 26.1281 168.912 26.6376 168.339 27.2806V38.3474L165.699 38.3475Z" fill="#17284C"/>
<path d="M186.749 38.584C185.563 38.584 184.65 38.2531 184.011 37.5908C183.373 36.9284 183.055 35.9738 183.055 34.7279V25.53H181.245C181.086 25.53 180.952 25.4833 180.845 25.3892C180.735 25.295 180.682 25.1494 180.682 24.9513V23.8978L183.143 23.5863L183.752 18.9431C183.771 18.795 183.835 18.6735 183.945 18.5793C184.054 18.486 184.193 18.4385 184.36 18.4385H185.696V23.6161H189.997V25.53H185.696V34.5492C185.696 35.1827 185.849 35.6527 186.155 35.9585C186.462 36.2652 186.857 36.4189 187.341 36.4189C187.618 36.4189 187.858 36.3819 188.061 36.3078C188.264 36.233 188.439 36.1517 188.589 36.0623C188.737 35.9738 188.863 35.8925 188.967 35.8177C189.07 35.7436 189.162 35.7066 189.241 35.7066C189.379 35.7066 189.503 35.7911 189.613 35.9585L190.384 37.2198C189.928 37.6455 189.379 37.9787 188.737 38.221C188.093 38.4633 187.432 38.584 186.749 38.584Z" fill="#17284C"/>
<path d="M199.21 23.0818C200.11 23.0818 200.94 23.2331 201.702 23.5349C202.463 23.8368 203.121 24.2713 203.675 24.8404C204.229 25.4086 204.662 26.1112 204.974 26.9467C205.285 27.7829 205.441 28.7343 205.441 29.8023C205.441 30.2176 205.396 30.4945 205.307 30.633C205.219 30.7722 205.05 30.8406 204.803 30.8406H194.804C194.823 31.7903 194.952 32.6161 195.19 33.3187C195.427 34.0206 195.754 34.6065 196.169 35.0766C196.584 35.5466 197.078 35.8975 197.652 36.1293C198.226 36.3619 198.868 36.4786 199.582 36.4786C200.243 36.4786 200.815 36.4021 201.294 36.2484C201.774 36.0955 202.186 35.9297 202.534 35.751C202.88 35.5731 203.168 35.4081 203.401 35.2544C203.633 35.1015 203.833 35.0242 204.002 35.0242C204.219 35.0242 204.388 35.1087 204.506 35.2769L205.248 36.2411C204.921 36.6363 204.531 36.98 204.076 37.2722C203.62 37.5635 203.134 37.8034 202.614 37.9917C202.096 38.1793 201.558 38.3201 201.005 38.4134C200.451 38.5084 199.902 38.5551 199.358 38.5551C198.32 38.5551 197.363 38.3796 196.488 38.0287C195.612 37.6778 194.855 37.1635 194.218 36.4858C193.581 35.8081 193.083 34.9703 192.727 33.9715C192.372 32.9726 192.193 31.8249 192.193 30.5291C192.193 29.4812 192.354 28.5017 192.676 27.5922C192.996 26.6819 193.458 25.8932 194.062 25.2259C194.665 24.5579 195.403 24.034 196.272 23.6532C197.143 23.2726 198.122 23.0818 199.21 23.0818ZM199.269 25.0255C197.993 25.0255 196.99 25.3941 196.258 26.1306C195.525 26.8678 195.071 27.8884 194.893 29.1939H203.067C203.067 28.5814 202.983 28.0196 202.816 27.5101C202.646 27.0014 202.4 26.5612 202.073 26.1901C201.747 25.8191 201.349 25.5325 200.879 25.3297C200.409 25.1269 199.873 25.0255 199.269 25.0255Z" fill="#17284C"/>
<path d="M208.808 38.3474V23.3192H210.322C210.608 23.3192 210.806 23.3739 210.914 23.4825C211.023 23.5912 211.097 23.7795 211.136 24.0467L211.315 26.3905C211.828 25.3418 212.464 24.524 213.221 23.9348C213.977 23.3465 214.866 23.0527 215.885 23.0527C216.3 23.0527 216.675 23.0994 217.011 23.1936C217.348 23.2877 217.659 23.4182 217.947 23.5864L217.606 25.5598C217.536 25.8069 217.382 25.9301 217.145 25.9301C217.007 25.9301 216.794 25.8834 216.508 25.7892C216.22 25.6959 215.82 25.6484 215.305 25.6484C214.386 25.6484 213.617 25.9156 212.999 26.45C212.38 26.9836 211.864 27.7603 211.448 28.7784V38.3474L208.808 38.3474Z" fill="#17284C"/>
<path d="M27.1362 31.8683C29.834 31.8683 32.0209 29.6813 32.0209 26.9835C32.0209 24.2857 29.834 22.0988 27.1362 22.0988C24.4384 22.0988 22.2514 24.2857 22.2514 26.9835C22.2514 29.6813 24.4384 31.8683 27.1362 31.8683Z" fill="#F5B33C"/>
<path d="M27.2282 38.8613C28.577 38.8613 29.6705 37.7678 29.6705 36.4189C29.6705 35.0701 28.577 33.9766 27.2282 33.9766C25.8793 33.9766 24.7858 35.0701 24.7858 36.4189C24.7858 37.7678 25.8793 38.8613 27.2282 38.8613Z" fill="#3B588F"/>
<path d="M36.5523 29.407C37.9012 29.407 38.9947 28.3135 38.9947 26.9646C38.9947 25.6157 37.9012 24.5222 36.5523 24.5222C35.2034 24.5222 34.1099 25.6157 34.1099 26.9646C34.1099 28.3135 35.2034 29.407 36.5523 29.407Z" fill="#3B588F"/>
<path d="M17.6436 29.407C18.9924 29.407 20.0859 28.3135 20.0859 26.9646C20.0859 25.6157 18.9924 24.5222 17.6436 24.5222C16.2947 24.5222 15.2012 25.6157 15.2012 26.9646C15.2012 28.3135 16.2947 29.407 17.6436 29.407Z" fill="#3B588F"/>
<path d="M32.3453 45.7415C32.9253 45.7415 33.3605 45.2159 33.2595 44.6448C32.741 41.7119 30.1797 39.4841 27.0979 39.4841C24.0162 39.4841 21.4548 41.7119 20.9364 44.6448C20.8354 45.2159 21.2706 45.7415 21.8505 45.7415H32.3453Z" fill="#688EC5"/>
<path d="M27.2282 19.9524C28.577 19.9524 29.6705 18.8589 29.6705 17.51C29.6705 16.1611 28.577 15.0676 27.2282 15.0676C25.8793 15.0676 24.7858 16.1611 24.7858 17.51C24.7858 18.8589 25.8793 19.9524 27.2282 19.9524Z" fill="#3B588F"/>
<path d="M21.9808 8.25867C21.4009 8.25867 20.9657 8.78419 21.0667 9.3553C21.5851 12.2883 24.1465 14.516 27.2282 14.516C30.31 14.516 32.8713 12.2882 33.3898 9.3553C33.4907 8.78419 33.0556 8.25867 32.4756 8.25867H21.9808Z" fill="#688EC5"/>
<path d="M8.25858 32.1468C8.25858 32.7268 8.78409 33.162 9.35521 33.061C12.2882 32.5426 14.5159 29.9812 14.5159 26.8994C14.5159 23.8177 12.2881 21.2563 9.35521 20.7379C8.78409 20.6369 8.25858 21.0721 8.25858 21.652V32.1468Z" fill="#688EC5"/>
<path d="M45.7415 21.7822C45.7415 21.2022 45.216 20.767 44.6449 20.868C41.7119 21.3864 39.4842 23.9478 39.4842 27.0296C39.4842 30.1113 41.712 32.6727 44.6449 33.1911C45.216 33.2921 45.7415 32.8569 45.7415 32.277V21.7822Z" fill="#688EC5"/>
<path d="M30.1897 21.718L32.1627 23.691C32.409 23.9372 32.8082 23.9372 33.0545 23.691L43.2053 13.5402C43.4515 13.2939 43.4515 12.8947 43.2053 12.6484L41.2323 10.6754C40.986 10.4291 40.5868 10.4291 40.3405 10.6754L30.1897 20.8262C29.9434 21.0725 29.9434 21.4717 30.1897 21.718Z" fill="#7EC8CC"/>
<path d="M38.9906 12.025L37.1198 13.8959L39.9846 16.7606L41.8554 14.8898L38.9906 12.025Z" fill="#B0DDDF"/>
<path d="M33.5467 17.4689L33.1486 17.8671L36.0133 20.7318L36.4115 20.3337L33.5467 17.4689Z" fill="#B0DDDF"/>
<path d="M32.9322 18.0835L31.8245 19.1913L34.6892 22.056L35.797 20.9483L32.9322 18.0835Z" fill="#38878B"/>
<path d="M36.8782 14.1376L33.7563 17.2595L36.6211 20.1243L39.743 17.0024L36.8782 14.1376Z" fill="#4DB3B8"/>
<path d="M12.801 10.6751L10.828 12.6481C10.5817 12.8944 10.5817 13.2936 10.828 13.5399L20.9788 23.6907C21.225 23.9369 21.6243 23.9369 21.8705 23.6907L23.8435 21.7177C24.0898 21.4714 24.0898 21.0722 23.8435 20.8259L13.6927 10.6751C13.4465 10.4289 13.0472 10.4289 12.801 10.6751Z" fill="#7EC8CC"/>
<path d="M15.0426 12.0253L12.1778 14.89L12.7588 15.471L15.6235 12.6062L15.0426 12.0253Z" fill="#4DB3B8"/>
<path d="M21.0167 17.9993L18.152 20.864L18.5472 21.2592L21.4119 18.3944L21.0167 17.9993Z" fill="#4DB3B8"/>
<path d="M21.6776 18.66L18.8128 21.5248L19.344 22.056L22.2088 19.1912L21.6776 18.66Z" fill="#B0DDDF"/>
<path d="M16.0089 12.9916L13.1441 15.8563L17.9457 20.6579L20.8105 17.7932L16.0089 12.9916Z" fill="#38878B"/>
<path d="M23.8104 32.2822L21.8374 30.3092C21.5912 30.0629 21.1919 30.0629 20.9457 30.3092L10.7949 40.46C10.5486 40.7062 10.5486 41.1055 10.7949 41.3517L12.7679 43.3247C13.0141 43.571 13.4134 43.571 13.6596 43.3247L23.8104 33.1739C24.0567 32.9277 24.0567 32.5284 23.8104 32.2822Z" fill="#7EC8CC"/>
<path d="M12.7257 38.5292L12.1447 39.1102L15.0095 41.975L15.5905 41.394L12.7257 38.5292Z" fill="#B0DDDF"/>
<path d="M18.514 32.7408L14.2376 37.0172L17.1024 39.882L21.3788 35.6056L18.514 32.7408Z" fill="#4DB3B8"/>
<path d="M19.311 31.944L18.7797 32.4752L21.6445 35.34L22.1757 34.8088L19.311 31.944Z" fill="#B0DDDF"/>
<path d="M13.9746 37.2802L13.1111 38.1437L15.9758 41.0084L16.8394 40.1449L13.9746 37.2802Z" fill="#38878B"/>
<path d="M27.0545 4.90275C28.4084 4.90275 29.5059 3.80523 29.5059 2.45138C29.5059 1.09752 28.4084 0 27.0545 0C25.7007 0 24.6031 1.09752 24.6031 2.45138C24.6031 3.80523 25.7007 4.90275 27.0545 4.90275Z" fill="#18736B"/>
<path d="M26.9652 53.9999C28.3191 53.9999 29.4166 52.9024 29.4166 51.5485C29.4166 50.1947 28.3191 49.0972 26.9652 49.0972C25.6114 49.0972 24.5139 50.1947 24.5139 51.5485C24.5139 52.9024 25.6114 53.9999 26.9652 53.9999Z" fill="#18736B"/>
<path d="M51.5487 29.3814C52.9025 29.3814 54 28.2839 54 26.93C54 25.5762 52.9025 24.4786 51.5487 24.4786C50.1948 24.4786 49.0973 25.5762 49.0973 26.93C49.0973 28.2839 50.1948 29.3814 51.5487 29.3814Z" fill="#18736B"/>
<path d="M2.45147 29.2924C3.80533 29.2924 4.90284 28.1949 4.90284 26.841C4.90284 25.4872 3.80533 24.3896 2.45147 24.3896C1.09761 24.3896 9.15527e-05 25.4872 9.15527e-05 26.841C9.15527e-05 28.1949 1.09761 29.2924 2.45147 29.2924Z" fill="#18736B"/>
<path d="M44.912 11.7703C46.315 11.7703 47.4524 10.6329 47.4524 9.22993C47.4524 7.82693 46.315 6.68958 44.912 6.68958C43.509 6.68958 42.3716 7.82693 42.3716 9.22993C42.3716 10.6329 43.509 11.7703 44.912 11.7703Z" fill="#18736B"/>
<path d="M9.12117 11.7703C10.5242 11.7703 11.6615 10.6329 11.6615 9.22993C11.6615 7.82693 10.5242 6.68958 9.12117 6.68958C7.71817 6.68958 6.58081 7.82693 6.58081 9.22993C6.58081 10.6329 7.71817 11.7703 9.12117 11.7703Z" fill="#18736B"/>
<path d="M9.08808 47.3104C10.4911 47.3104 11.6284 46.1731 11.6284 44.7701C11.6284 43.3671 10.4911 42.2297 9.08808 42.2297C7.68509 42.2297 6.54773 43.3671 6.54773 44.7701C6.54773 46.1731 7.68509 47.3104 9.08808 47.3104Z" fill="#18736B"/>
<path d="M44.8789 47.3104C46.2819 47.3104 47.4193 46.1731 47.4193 44.7701C47.4193 43.3671 46.2819 42.2297 44.8789 42.2297C43.4759 42.2297 42.3386 43.3671 42.3386 44.7701C42.3386 46.1731 43.4759 47.3104 44.8789 47.3104Z" fill="#18736B"/>
<path d="M41.1992 43.3246L43.1722 41.3516C43.4184 41.1054 43.4184 40.7061 43.1722 40.4599L33.0214 30.3091C32.7751 30.0628 32.3759 30.0628 32.1296 30.3091L30.1566 32.2821C29.9103 32.5283 29.9103 32.9276 30.1566 33.1738L40.3074 43.3246C40.5536 43.5709 40.9529 43.5709 41.1992 43.3246Z" fill="#7EC8CC"/>
<path d="M40.24 37.5279L37.3752 40.3927L38.9576 41.975L41.8223 39.1103L40.24 37.5279Z" fill="#38878B"/>
<path d="M34.6561 31.944L31.7914 34.8087L33.4612 36.4785L36.326 33.6138L34.6561 31.944Z" fill="#B0DDDF"/>
<path d="M36.5839 33.8718L33.7191 36.7366L36.023 39.0404L38.8878 36.1757L36.5839 33.8718Z" fill="#38878B"/>
<path d="M39.2963 36.5842L36.4316 39.449L37.0962 40.1136L39.961 37.2489L39.2963 36.5842Z" fill="#4DB3B8"/>
</g>
<defs>
<clipPath id="clip0_3352_587">
<rect width="217.947" height="54" fill="white"/>
</clipPath>
</defs>
</svg>
