<svg width="106" height="32" viewBox="0 0 106 32" fill="none" xmlns="http://www.w3.org/2000/svg">
<path d="M5.95066 30.3882C5.95069 30.3958 5.95519 31.1321 6.81861 31.1321C7.68201 31.1321 7.68653 30.3958 7.68655 30.3882V27.9083H8.6165V30.6361C8.61647 30.6466 8.60932 32.0001 6.75661 32.0001C5.02741 32.0001 5.02075 30.6466 5.02072 30.6361V27.9083H5.95066V30.3882Z" fill="black"/>
<path d="M30.8731 30.3882C30.8731 30.3958 30.8776 31.1321 31.7411 31.1321C32.6045 31.1321 32.609 30.3958 32.609 30.3882V27.9083H33.5389V30.6361C33.5389 30.6466 33.5318 32.0001 31.6791 32.0001C29.9499 32.0001 29.9432 30.6466 29.9432 30.6361V27.9083H30.8731V30.3882Z" fill="black"/>
<path fill-rule="evenodd" clip-rule="evenodd" d="M42.2184 27.7843C43.451 27.7843 44.4503 28.7281 44.4503 29.8922C44.4502 31.0563 43.451 32.0001 42.2184 32.0001C40.9858 32.0001 39.9866 31.0563 39.9865 29.8922C39.9865 28.728 40.9858 27.7843 42.2184 27.7843ZM42.2184 28.5283C41.5336 28.5283 40.9785 29.1389 40.9785 29.8922C40.9785 30.6454 41.5336 31.2561 42.2184 31.2561C42.9032 31.2561 43.4583 30.6454 43.4583 29.8922C43.4583 29.1389 42.9032 28.5283 42.2184 28.5283Z" fill="black"/>
<path d="M69.7447 27.8463L70.1167 27.9703L70.3647 28.0943L70.0547 28.8383L69.4967 28.5903L69.2487 28.5283H68.6908L68.5048 28.5903L68.2568 28.8383V29.1482L68.3808 29.2722L68.5668 29.3962L69.4967 29.5822L69.7447 29.7062L70.1167 29.9542L70.3647 30.2022L70.4887 30.3882L70.5507 30.5122V30.7601L70.4887 31.0701L70.3647 31.4421L70.1167 31.6901L69.6207 31.9381L69.3107 32.0001H68.3808L68.0088 31.9381L67.7608 31.8141L67.2649 31.5041L67.5748 30.8841L67.8848 31.0701L68.2568 31.1941L68.6288 31.2561H69.1247L69.3727 31.1941L69.5587 31.0081L69.6207 30.8221L69.5587 30.6361L69.3727 30.4502L69.0007 30.3262L68.1328 30.0782L67.8848 29.9542L67.5128 29.7062L67.3888 29.4582L67.3269 29.0242L67.3888 28.5903L67.6368 28.2183L68.1328 27.8463L68.6908 27.7843H69.1867L69.7447 27.8463Z" fill="black"/>
<path fill-rule="evenodd" clip-rule="evenodd" d="M94.0472 27.7843C95.2798 27.7843 96.2791 28.7281 96.2791 29.8922C96.279 31.0563 95.2798 32.0001 94.0472 32.0001C92.8146 32.0001 91.8154 31.0563 91.8153 29.8922C91.8153 28.728 92.8146 27.7843 94.0472 27.7843ZM94.0472 28.5283C93.3624 28.5283 92.8073 29.1389 92.8073 29.8922C92.8073 30.6454 93.3624 31.2561 94.0472 31.2561C94.732 31.2561 95.2871 30.6454 95.2871 29.8922C95.2871 29.1389 94.732 28.5283 94.0472 28.5283Z" fill="black"/>
<path fill-rule="evenodd" clip-rule="evenodd" d="M19.4038 31.8908H18.438L18.0928 31.0466H16.2511L15.9066 31.8889H14.9401L16.719 27.9231H17.6323L19.4038 31.8908ZM16.5459 30.3304H17.7887L17.171 28.8362L16.5459 30.3304Z" fill="black"/>
<path fill-rule="evenodd" clip-rule="evenodd" d="M55.3616 31.8908H54.3958L54.0506 31.0466H52.2089L51.8644 31.8889H50.8979L52.6767 27.9231H53.5901L55.3616 31.8908ZM52.5037 30.3304H53.7464L53.1288 28.8362L52.5037 30.3304Z" fill="black"/>
<path fill-rule="evenodd" clip-rule="evenodd" d="M66.9626 31.8908H65.9953L65.6493 31.0466H63.8045L63.4594 31.8889H62.4912L64.2732 27.9231H65.1881L66.9626 31.8908ZM64.0998 30.3304H65.3447L64.7259 28.8362L64.0998 30.3304Z" fill="black"/>
<path d="M3.96775 31.8895H3.05719V30.2673H1.28255V31.8895H0.371977V27.9296H1.28436V29.4881H3.05537V27.9255H3.96775V31.8895Z" fill="black"/>
<path d="M12.0263 30.3262L13.5142 27.9083H14.2581V31.8761H13.3902L13.3282 29.5822L12.2743 31.4421H11.8403L10.7244 29.5822L10.6624 31.8761H9.79442V27.9083H10.6004L12.0263 30.3262Z" fill="black"/>
<path d="M22.5966 30.3078V27.9083H23.4956V31.8761H22.7464L20.7987 29.4765V31.8761H19.8998V27.9083H20.649L22.5966 30.3078Z" fill="black"/>
<path d="M36.9487 30.3262L38.4366 27.9083H39.1806V31.8761H38.3127L38.2507 29.5822L37.1967 31.4421H36.7627L35.6468 29.5822L35.5848 31.8761H34.7169V27.9083H35.5228L36.9487 30.3262Z" fill="black"/>
<path fill-rule="evenodd" clip-rule="evenodd" d="M47.1161 27.9083C47.1216 27.9083 48.6206 27.9108 48.6206 29.2722C48.6206 30.2641 47.8601 30.6361 47.8601 30.6361L48.728 31.8761H47.7361L46.9921 30.7601H46.1862V31.8761H45.2562V27.9083H47.1161ZM46.1862 30.0162H47.1161C47.4927 30.0162 47.736 29.7062 47.7361 29.3962C47.7361 29.0862 47.4927 28.6523 47.1161 28.6523H46.1862V30.0162Z" fill="black"/>
<path d="M60.3213 31.1321H62.3052V31.8761H59.3913V27.9083H60.3213V31.1321Z" fill="black"/>
<path d="M75.7893 30.3078V27.9083H76.8123V31.8761H75.9391L73.9914 29.4765V31.8761H73.0925V27.9083H73.8417L75.7893 30.3078Z" fill="black"/>
<path d="M80.78 28.6523H78.7341V29.5202H80.532V30.2022H78.7341V31.1321H80.904V31.8761H77.8042V27.9083H80.78V28.6523Z" fill="black"/>
<path d="M86.9796 30.6981L87.9716 27.9083H88.8395L89.7075 30.6981L90.6374 27.9083H91.5053L90.2654 31.8595L89.2115 31.8761L88.3435 29.2722L87.4756 31.8761H86.4837L85.1817 27.9083H86.1117L86.9796 30.6981Z" fill="black"/>
<path fill-rule="evenodd" clip-rule="evenodd" d="M98.9449 27.9083C98.9504 27.9083 100.449 27.9108 100.449 29.2722C100.449 30.2641 99.6888 30.6361 99.6888 30.6361L100.557 31.8761H99.5648L98.8209 30.7601H98.0149V31.8761H97.085V27.9083H98.9449ZM98.0149 30.0162H98.9449C99.3215 30.0162 99.5648 29.7062 99.5648 29.3962C99.5648 29.0862 99.3215 28.6523 98.9449 28.6523H98.0149V30.0162Z" fill="black"/>
<path d="M102.293 27.9083V29.7682L104.029 27.9083H105.021L103.409 29.7062L105.145 31.8761H104.029L102.851 30.3262L102.293 30.8841V31.8761H101.363V27.9083H102.293Z" fill="black"/>
<path d="M29.3747 28.6554H28.103V31.866H27.1774V28.6554H25.9029V27.8983H29.3737L29.3747 28.6554Z" fill="black"/>
<path d="M58.6369 28.6554H57.3652V31.866H56.4396V28.6554H55.1651V27.8983H58.6359L58.6369 28.6554Z" fill="black"/>
<path d="M84.7992 28.6554H83.5276V31.866H82.602V28.6554H81.3274V27.8983H84.7983L84.7992 28.6554Z" fill="black"/>
<path fill-rule="evenodd" clip-rule="evenodd" d="M77.5014 26.057H71.1539L68.8846 20.5179H56.7806L54.5159 26.0444H48.1639L59.8558 0.0248227H65.8587L77.5014 26.057ZM58.718 15.8189H66.8857L62.8264 6.01532L58.718 15.8189Z" fill="black"/>
<path d="M98.0769 15.7571V0.0100502H104.029V26.0484H99.0689L86.1737 10.3014V26.0484H80.2221V0.0100502H85.1817L98.0769 15.7571Z" fill="black"/>
<path d="M49.7199 4.96974H41.4046V26.0442H35.3526V4.96974H27.0188V0H49.7133L49.7199 4.96974Z" fill="black"/>
<path d="M23.9005 26.041H17.8485V15.3885H6.05201V26.041H0V0.0370524H6.06436V10.2714H17.8362V0.0100502H23.9005V26.041Z" fill="black"/>
</svg>
