<svg width="130" height="32" viewBox="0 0 130 32" fill="none" xmlns="http://www.w3.org/2000/svg">
<g clip-path="url(#clip0_3219_16708)">
<path d="M45.1519 18.6148C45.2129 18.7703 45.273 18.9267 45.3321 19.0851C45.3903 18.921 45.4514 18.7641 45.5162 18.6148C45.5811 18.4655 45.6536 18.3143 45.7366 18.1621L49.9996 10.4169C50.0759 10.2824 50.1551 10.2004 50.2371 10.1708C50.3192 10.1417 50.4365 10.127 50.5891 10.127H51.8464V22.7247H50.3516V13.4675C50.3516 13.3445 50.3545 13.2128 50.3602 13.0721C50.3659 12.9314 50.3745 12.7878 50.3869 12.6409L46.0705 20.5183C45.9236 20.782 45.7185 20.9137 45.4552 20.9137H45.2091C44.9449 20.9137 44.7398 20.782 44.5929 20.5183L40.1801 12.6147C40.1973 12.7673 40.2107 12.9166 40.2192 13.0631C40.2288 13.21 40.2326 13.3445 40.2326 13.4675V22.7247H38.7388V10.127H39.995C40.1477 10.127 40.265 10.1417 40.347 10.1708C40.4291 10.2004 40.5082 10.2824 40.5846 10.4169L44.9363 18.1707C45.0183 18.3114 45.0899 18.4598 45.1519 18.6148Z" fill="#2A2A2A"/>
<path d="M63.793 20.1224C63.8865 20.1224 63.9714 20.1605 64.0477 20.2368L64.7154 20.9666C64.2003 21.5642 63.5745 22.0302 62.8391 22.364C62.1036 22.6984 61.2165 22.8648 60.1796 22.8648C59.2714 22.8648 58.4473 22.7084 57.709 22.395C56.9706 22.0817 56.3411 21.6419 55.8193 21.0763C55.2975 20.5106 54.893 19.8324 54.6059 19.0411C54.3188 18.2499 54.1747 17.3794 54.1747 16.4303C54.1747 15.4807 54.3293 14.6102 54.6364 13.819C54.9445 13.0282 55.3767 12.3481 55.9337 11.7795C56.4899 11.211 57.1566 10.7703 57.9331 10.4565C58.7096 10.1431 59.5671 9.98621 60.5048 9.98621C61.4311 9.98621 62.2295 10.1298 62.9001 10.4169C63.5716 10.704 64.1678 11.0937 64.6896 11.5864L64.1354 12.3686C64.0944 12.4272 64.0476 12.4754 63.9952 12.5136C63.9417 12.5517 63.8654 12.5708 63.7662 12.5708C63.6899 12.5708 63.6098 12.5431 63.5249 12.4873C63.44 12.4315 63.3389 12.3628 63.2215 12.2808C63.1042 12.1988 62.9659 12.111 62.8085 12.0171C62.6502 11.9231 62.4622 11.8354 62.2457 11.7533C62.0282 11.6713 61.7764 11.6026 61.4893 11.5468C61.2021 11.491 60.8711 11.4634 60.4962 11.4634C59.8218 11.4634 59.2046 11.5788 58.6457 11.8106C58.0857 12.0419 57.604 12.3715 57.1996 12.7993C56.7951 13.2271 56.4794 13.7489 56.2542 14.3642C56.0282 14.9795 55.9156 15.6682 55.9156 16.4303C55.9156 17.2154 56.0282 17.916 56.2542 18.5313C56.4794 19.1466 56.7875 19.6669 57.1776 20.0919C57.5668 20.5169 58.0285 20.8407 58.5617 21.063C59.095 21.2857 59.6692 21.3973 60.2854 21.3973C60.6603 21.3973 60.997 21.3754 61.2956 21.3315C61.5951 21.2871 61.8718 21.2184 62.1265 21.1245C62.3821 21.031 62.6187 20.9122 62.839 20.7687C63.0584 20.6251 63.2797 20.4534 63.5029 20.2545C63.6021 20.1663 63.6985 20.1224 63.793 20.1224Z" fill="#2A2A2A"/>
<path d="M69.3926 9.44287C69.7035 9.44287 69.9945 9.48914 70.2645 9.58118C70.5334 9.67371 70.7672 9.80772 70.9637 9.98373C71.1602 10.1597 71.3147 10.3739 71.4273 10.6271C71.5398 10.8799 71.5961 11.167 71.5961 11.488C71.5961 11.7613 71.556 12.0141 71.474 12.2464C71.392 12.4786 71.2804 12.7018 71.1401 12.9155C70.9999 13.1287 70.8387 13.3357 70.6565 13.5356C70.4734 13.7354 70.2797 13.9396 70.0747 14.148L68.1421 16.1264C68.2785 16.0887 68.4168 16.0586 68.557 16.0367C68.6972 16.0143 68.8327 16.0033 68.9624 16.0033H71.4225C71.5217 16.0033 71.5999 16.0324 71.6581 16.0906C71.7163 16.1488 71.7449 16.2237 71.7449 16.3157V16.8695H66.8457V16.5571C66.8457 16.4922 66.8581 16.4254 66.8839 16.3568C66.9096 16.2886 66.9516 16.2256 67.0098 16.1674L69.3621 13.8046C69.5567 13.6066 69.7341 13.4159 69.8953 13.2332C70.0556 13.0505 70.1929 12.8664 70.3074 12.6823C70.4219 12.4977 70.5096 12.3108 70.5716 12.121C70.6327 11.9311 70.6642 11.7289 70.6642 11.5138C70.6642 11.2982 70.6298 11.1098 70.5611 10.9472C70.4925 10.785 70.399 10.651 70.2797 10.5451C70.1595 10.4392 70.0193 10.3596 69.8591 10.3066C69.6988 10.2537 69.5262 10.227 69.3411 10.227C69.157 10.227 68.9863 10.2547 68.8288 10.309C68.6714 10.3639 68.5322 10.4397 68.411 10.537C68.2899 10.6348 68.1878 10.7497 68.1039 10.8833C68.02 11.0164 67.9608 11.1633 67.9265 11.324C67.8997 11.4232 67.8587 11.4947 67.8044 11.5391C67.7491 11.5834 67.6775 11.6059 67.5888 11.6059C67.5716 11.6059 67.5535 11.6049 67.5344 11.6035C67.5163 11.6016 67.4944 11.5992 67.4705 11.5958L66.9945 11.5138C67.0422 11.179 67.1338 10.8823 67.2712 10.6243C67.4076 10.3662 67.5812 10.1502 67.791 9.97611C68.0009 9.80154 68.2422 9.66944 68.5141 9.57881C68.785 9.48819 69.0787 9.44287 69.3926 9.44287Z" fill="#2A2A2A"/>
<path d="M86.0601 20.1224C86.1536 20.1224 86.2385 20.1605 86.3148 20.2368L86.9825 20.9666C86.4674 21.5642 85.8417 22.0302 85.1062 22.364C84.3707 22.6984 83.4836 22.8648 82.4467 22.8648C81.5386 22.8648 80.7144 22.7084 79.9761 22.395C79.2378 22.0817 78.6082 21.6419 78.0864 21.0763C77.5647 20.5106 77.1602 19.8324 76.8731 19.0411C76.586 18.2499 76.4419 17.3794 76.4419 16.4303C76.4419 15.4807 76.5964 14.6102 76.9036 13.819C77.2117 13.0282 77.6438 12.3481 78.2009 11.7795C78.757 11.211 79.4238 10.7703 80.2003 10.4565C80.9767 10.1431 81.8343 9.98621 82.772 9.98621C83.6982 9.98621 84.4966 10.1298 85.1672 10.4169C85.8388 10.704 86.435 11.0937 86.9567 11.5864L86.4025 12.3686C86.3615 12.4272 86.3148 12.4754 86.2623 12.5136C86.2089 12.5517 86.1326 12.5708 86.0334 12.5708C85.9571 12.5708 85.8769 12.5431 85.792 12.4873C85.7071 12.4315 85.606 12.3628 85.4887 12.2808C85.3713 12.1988 85.233 12.111 85.0756 12.0171C84.9173 11.9231 84.7294 11.8354 84.5128 11.7533C84.2953 11.6713 84.0435 11.6026 83.7564 11.5468C83.4693 11.491 83.1383 11.4634 82.7634 11.4634C82.089 11.4634 81.4718 11.5788 80.9128 11.8106C80.3529 12.0419 79.8711 12.3715 79.4667 12.7993C79.0623 13.2271 78.7465 13.7489 78.5214 14.3642C78.2953 14.9795 78.1828 15.6682 78.1828 16.4303C78.1828 17.2154 78.2953 17.916 78.5214 18.5313C78.7465 19.1466 79.0546 19.6669 79.4448 20.0919C79.834 20.5169 80.2957 20.8407 80.8289 21.063C81.3621 21.2857 81.9364 21.3973 82.5526 21.3973C82.9275 21.3973 83.2642 21.3754 83.5628 21.3315C83.8623 21.2871 84.1389 21.2184 84.3936 21.1245C84.6493 21.031 84.8858 20.9122 85.1062 20.7687C85.3256 20.6251 85.5469 20.4534 85.7701 20.2545C85.8693 20.1663 85.9657 20.1224 86.0601 20.1224Z" fill="#2A2A2A"/>
<path d="M92.5037 13.6782C93.037 13.6782 93.5292 13.7679 93.9804 13.9467C94.4316 14.1256 94.8217 14.3831 95.1499 14.7203C95.478 15.0571 95.7346 15.4734 95.9196 15.9685C96.1037 16.4641 96.1963 17.0279 96.1963 17.6608C96.1963 17.9069 96.1696 18.071 96.1171 18.153C96.0646 18.2355 95.9645 18.276 95.8185 18.276H89.8929C89.9043 18.8388 89.9806 19.3282 90.1218 19.7446C90.262 20.1605 90.4557 20.5077 90.7018 20.7862C90.9479 21.0648 91.2407 21.2727 91.5803 21.4101C91.9209 21.5479 92.3015 21.6171 92.7241 21.6171C93.1161 21.6171 93.4547 21.5718 93.739 21.4807C94.0233 21.39 94.2675 21.2918 94.4735 21.1859C94.6786 21.0805 94.8493 20.9827 94.9877 20.8916C95.125 20.801 95.2433 20.7552 95.3435 20.7552C95.4723 20.7552 95.5724 20.8053 95.642 20.905L96.0818 21.4764C95.8882 21.7105 95.6573 21.9142 95.3874 22.0873C95.1174 22.26 94.8293 22.4021 94.5212 22.5137C94.2141 22.6249 93.8955 22.7083 93.5673 22.7637C93.2392 22.8199 92.9139 22.8476 92.5914 22.8476C91.9762 22.8476 91.4096 22.7436 90.8906 22.5357C90.3717 22.3277 89.9234 22.0229 89.5456 21.6213C89.1679 21.2198 88.8732 20.7233 88.6623 20.1314C88.4515 19.5395 88.3456 18.8593 88.3456 18.0914C88.3456 17.4704 88.441 16.89 88.6318 16.3511C88.8216 15.8116 89.0954 15.3442 89.4531 14.9488C89.8108 14.553 90.2477 14.2425 90.7628 14.0169C91.2789 13.7913 91.8589 13.6782 92.5037 13.6782ZM92.539 14.8301C91.7826 14.8301 91.1883 15.0485 90.7543 15.4849C90.3203 15.9218 90.0512 16.5266 89.9454 17.3002H94.7893C94.7893 16.9372 94.7397 16.6043 94.6405 16.3024C94.5403 16.001 94.3944 15.7401 94.2007 15.5202C94.0071 15.3003 93.7715 15.1305 93.4929 15.0103C93.2144 14.8901 92.8967 14.8301 92.539 14.8301Z" fill="#2A2A2A"/>
<path d="M98.1919 22.7245V13.8189H99.1229C99.3461 13.8189 99.4864 13.9277 99.5455 14.1442L99.6685 15.1115C100.055 14.6836 100.487 14.3379 100.965 14.0741C101.443 13.8103 101.995 13.6782 102.622 13.6782C103.108 13.6782 103.538 13.7593 103.911 13.92C104.283 14.0812 104.593 14.3102 104.842 14.6059C105.091 14.9021 105.28 15.2579 105.409 15.6743C105.538 16.0902 105.603 16.5504 105.603 17.0541V22.7245H104.037V17.0541C104.037 16.3801 103.884 15.8574 103.576 15.4849C103.269 15.1129 102.798 14.9268 102.165 14.9268C101.702 14.9268 101.27 15.038 100.869 15.2607C100.467 15.4834 100.096 15.7853 99.7563 16.1664V22.7245L98.1919 22.7245Z" fill="#2A2A2A"/>
<path d="M110.666 22.8654C109.963 22.8654 109.422 22.6694 109.043 22.2769C108.666 21.8844 108.477 21.3187 108.477 20.5804V15.1298H107.405C107.31 15.1298 107.231 15.1021 107.167 15.0463C107.102 14.9905 107.071 14.9042 107.071 14.7868V14.1625L108.529 13.9779L108.89 11.2264C108.901 11.1387 108.94 11.0667 109.004 11.0108C109.069 10.9555 109.151 10.9274 109.25 10.9274H110.042V13.9956H112.591V15.1298H110.042V20.4745C110.042 20.8498 110.133 21.1284 110.314 21.3096C110.496 21.4913 110.73 21.5824 111.017 21.5824C111.181 21.5824 111.323 21.5605 111.444 21.5166C111.564 21.4723 111.668 21.4241 111.756 21.3711C111.844 21.3187 111.919 21.2705 111.981 21.2262C112.042 21.1823 112.096 21.1603 112.143 21.1603C112.225 21.1603 112.298 21.2104 112.363 21.3096L112.82 22.057C112.55 22.3093 112.225 22.5068 111.844 22.6503C111.463 22.7939 111.071 22.8654 110.666 22.8654Z" fill="#2A2A2A"/>
<path d="M118.05 13.6782C118.583 13.6782 119.075 13.7679 119.527 13.9467C119.978 14.1256 120.368 14.3831 120.696 14.7203C121.024 15.0571 121.281 15.4734 121.466 15.9685C121.65 16.4641 121.743 17.0279 121.743 17.6608C121.743 17.9069 121.716 18.071 121.663 18.153C121.611 18.2355 121.511 18.276 121.365 18.276H115.439C115.451 18.8388 115.527 19.3282 115.668 19.7446C115.808 20.1605 116.002 20.5077 116.248 20.7862C116.494 21.0648 116.787 21.2727 117.127 21.4101C117.467 21.5479 117.848 21.6171 118.27 21.6171C118.662 21.6171 119.001 21.5718 119.285 21.4807C119.57 21.39 119.814 21.2918 120.02 21.1859C120.225 21.0805 120.396 20.9827 120.534 20.8916C120.671 20.801 120.79 20.7552 120.89 20.7552C121.019 20.7552 121.119 20.8053 121.188 20.905L121.628 21.4764C121.434 21.7105 121.204 21.9142 120.934 22.0873C120.664 22.26 120.376 22.4021 120.068 22.5137C119.76 22.6249 119.442 22.7083 119.114 22.7637C118.785 22.8199 118.46 22.8476 118.138 22.8476C117.523 22.8476 116.956 22.7436 116.437 22.5357C115.918 22.3277 115.47 22.0229 115.092 21.6213C114.714 21.2198 114.419 20.7233 114.209 20.1314C113.998 19.5395 113.892 18.8593 113.892 18.0914C113.892 17.4704 113.987 16.89 114.178 16.3511C114.368 15.8116 114.642 15.3442 114.999 14.9488C115.357 14.553 115.794 14.2425 116.309 14.0169C116.825 13.7913 117.405 13.6782 118.05 13.6782ZM118.085 14.8301C117.329 14.8301 116.735 15.0485 116.301 15.4849C115.867 15.9218 115.598 16.5266 115.492 17.3002H120.336C120.336 16.9372 120.286 16.6043 120.187 16.3024C120.087 16.001 119.941 15.7401 119.747 15.5202C119.553 15.3003 119.318 15.1305 119.039 15.0103C118.761 14.8901 118.443 14.8301 118.085 14.8301Z" fill="#2A2A2A"/>
<path d="M123.738 22.7246V13.819H124.635C124.805 13.819 124.922 13.8514 124.986 13.9158C125.051 13.9802 125.095 14.0918 125.118 14.2502L125.223 15.639C125.528 15.0176 125.905 14.533 126.353 14.1839C126.801 13.8352 127.328 13.6611 127.932 13.6611C128.178 13.6611 128.4 13.6888 128.599 13.7446C128.799 13.8004 128.983 13.8777 129.153 13.9774L128.951 15.1468C128.91 15.2932 128.819 15.3662 128.678 15.3662C128.596 15.3662 128.471 15.3386 128.301 15.2828C128.13 15.2275 127.893 15.1993 127.588 15.1993C127.043 15.1993 126.588 15.3576 126.221 15.6743C125.855 15.9906 125.549 16.4508 125.303 17.0541V22.7246L123.738 22.7246Z" fill="#2A2A2A"/>
<path d="M16.0806 18.8852C17.6793 18.8852 18.9753 17.5892 18.9753 15.9905C18.9753 14.3918 17.6793 13.0958 16.0806 13.0958C14.4819 13.0958 13.1859 14.3918 13.1859 15.9905C13.1859 17.5892 14.4819 18.8852 16.0806 18.8852Z" fill="#C0C0C0"/>
<path d="M16.1352 23.029C16.9345 23.029 17.5825 22.381 17.5825 21.5816C17.5825 20.7823 16.9345 20.1343 16.1352 20.1343C15.3359 20.1343 14.6879 20.7823 14.6879 21.5816C14.6879 22.381 15.3359 23.029 16.1352 23.029Z" fill="#595959"/>
<path d="M21.6607 17.427C22.46 17.427 23.108 16.779 23.108 15.9797C23.108 15.1803 22.46 14.5323 21.6607 14.5323C20.8613 14.5323 20.2133 15.1803 20.2133 15.9797C20.2133 16.779 20.8613 17.427 21.6607 17.427Z" fill="#595959"/>
<path d="M10.4554 17.427C11.2547 17.427 11.9027 16.779 11.9027 15.9797C11.9027 15.1803 11.2547 14.5323 10.4554 14.5323C9.65605 14.5323 9.00806 15.1803 9.00806 15.9797C9.00806 16.779 9.65605 17.427 10.4554 17.427Z" fill="#595959"/>
<path d="M19.1674 27.1065C19.5111 27.1065 19.769 26.7951 19.7091 26.4566C19.4019 24.7186 17.884 23.3984 16.0578 23.3984C14.2316 23.3984 12.7138 24.7186 12.4065 26.4566C12.3467 26.7951 12.6046 27.1065 12.9483 27.1065H19.1674Z" fill="#8C8C8C"/>
<path d="M16.1352 11.8242C16.9345 11.8242 17.5825 11.1762 17.5825 10.3769C17.5825 9.57756 16.9345 8.92957 16.1352 8.92957C15.3359 8.92957 14.6879 9.57756 14.6879 10.3769C14.6879 11.1762 15.3359 11.8242 16.1352 11.8242Z" fill="#595959"/>
<path d="M13.0255 4.89429C12.6819 4.89429 12.424 5.20571 12.4838 5.54414C12.791 7.28219 14.3089 8.60233 16.1351 8.60233C17.9613 8.60233 19.4792 7.28217 19.7864 5.54414C19.8462 5.20571 19.5883 4.89429 19.2447 4.89429H13.0255Z" fill="#8C8C8C"/>
<path d="M4.89386 19.0503C4.89386 19.394 5.20528 19.6518 5.54372 19.592C7.28176 19.2848 8.60191 17.7669 8.60191 15.9407C8.60191 14.1145 7.28174 12.5967 5.54372 12.2894C5.20528 12.2296 4.89386 12.4875 4.89386 12.8311V19.0503Z" fill="#8C8C8C"/>
<path d="M27.106 12.9085C27.106 12.5649 26.7946 12.307 26.4561 12.3668C24.7181 12.674 23.3979 14.1919 23.3979 16.0181C23.3979 17.8443 24.7181 19.3622 26.4561 19.6694C26.7946 19.7292 27.106 19.4713 27.106 19.1277V12.9085Z" fill="#8C8C8C"/>
<path d="M17.89 12.8703L19.0592 14.0395C19.2051 14.1854 19.4417 14.1854 19.5877 14.0395L25.6029 8.0242C25.7489 7.87827 25.7489 7.64167 25.6029 7.49575L24.4338 6.32656C24.2878 6.18063 24.0512 6.18063 23.9053 6.32656L17.89 12.3418C17.7441 12.4878 17.7441 12.7244 17.89 12.8703Z" fill="#B9B9B9"/>
<path d="M23.1055 7.12635L21.9969 8.23499L23.6945 9.93262L24.8032 8.82399L23.1055 7.12635Z" fill="#D3D3D3"/>
<path d="M19.8794 10.3522L19.6435 10.5881L21.3411 12.2858L21.5771 12.0498L19.8794 10.3522Z" fill="#D3D3D3"/>
<path d="M19.5152 10.7166L18.8588 11.373L20.5564 13.0707L21.2128 12.4142L19.5152 10.7166Z" fill="#797979"/>
<path d="M21.8537 8.37863L20.0037 10.2286L21.7013 11.9263L23.5513 10.0763L21.8537 8.37863Z" fill="#A1A1A1"/>
<path d="M7.58557 6.32648L6.41639 7.49566C6.27046 7.64159 6.27046 7.87819 6.41639 8.02411L12.4317 14.0394C12.5776 14.1853 12.8142 14.1853 12.9601 14.0394L14.1293 12.8702C14.2752 12.7243 14.2752 12.4877 14.1293 12.3418L8.11402 6.32648C7.9681 6.18055 7.7315 6.18055 7.58557 6.32648Z" fill="#B9B9B9"/>
<path d="M8.91395 7.12622L7.21631 8.82385L7.56059 9.16814L9.25823 7.4705L8.91395 7.12622Z" fill="#A1A1A1"/>
<path d="M12.4543 10.667L10.7567 12.3646L10.9908 12.5988L12.6885 10.9012L12.4543 10.667Z" fill="#A1A1A1"/>
<path d="M12.846 11.0582L11.1483 12.7559L11.4631 13.0707L13.1608 11.373L12.846 11.0582Z" fill="#D3D3D3"/>
<path d="M9.48658 7.69885L7.78894 9.39648L10.6343 12.2419L12.332 10.5443L9.48658 7.69885Z" fill="#797979"/>
<path d="M14.1097 19.1307L12.9405 17.9615C12.7946 17.8156 12.558 17.8156 12.412 17.9615L6.39676 23.9768C6.25083 24.1227 6.25083 24.3593 6.39676 24.5052L7.56594 25.6744C7.71187 25.8203 7.94847 25.8203 8.09439 25.6744L14.1097 19.6591C14.2556 19.5132 14.2556 19.2766 14.1097 19.1307Z" fill="#B9B9B9"/>
<path d="M7.54106 22.8328L7.19678 23.1771L8.89441 24.8748L9.2387 24.5305L7.54106 22.8328Z" fill="#D3D3D3"/>
<path d="M10.9712 19.4026L8.43701 21.9368L10.1346 23.6344L12.6688 21.1002L10.9712 19.4026Z" fill="#A1A1A1"/>
<path d="M11.4434 18.9304L11.1286 19.2452L12.8262 20.9429L13.141 20.6281L11.4434 18.9304Z" fill="#D3D3D3"/>
<path d="M8.28112 22.092L7.76941 22.6038L9.46705 24.3014L9.97876 23.7897L8.28112 22.092Z" fill="#797979"/>
<path d="M16.0321 2.90533C16.8344 2.90533 17.4848 2.25495 17.4848 1.45267C17.4848 0.650381 16.8344 0 16.0321 0C15.2298 0 14.5795 0.650381 14.5795 1.45267C14.5795 2.25495 15.2298 2.90533 16.0321 2.90533Z" fill="#646464"/>
<path d="M15.9793 32.0001C16.7816 32.0001 17.4319 31.3497 17.4319 30.5474C17.4319 29.7451 16.7816 29.0947 15.9793 29.0947C15.177 29.0947 14.5266 29.7451 14.5266 30.5474C14.5266 31.3497 15.177 32.0001 15.9793 32.0001Z" fill="#646464"/>
<path d="M30.5473 17.4117C31.3496 17.4117 32 16.7613 32 15.959C32 15.1567 31.3496 14.5063 30.5473 14.5063C29.745 14.5063 29.0947 15.1567 29.0947 15.959C29.0947 16.7613 29.745 17.4117 30.5473 17.4117Z" fill="#646464"/>
<path d="M1.45267 17.3587C2.25495 17.3587 2.90533 16.7083 2.90533 15.906C2.90533 15.1038 2.25495 14.4534 1.45267 14.4534C0.650381 14.4534 0 15.1038 0 15.906C0 16.7083 0.650381 17.3587 1.45267 17.3587Z" fill="#646464"/>
<path d="M26.6143 6.97539C27.4457 6.97539 28.1197 6.3014 28.1197 5.46999C28.1197 4.63859 27.4457 3.9646 26.6143 3.9646C25.7829 3.9646 25.1089 4.63859 25.1089 5.46999C25.1089 6.3014 25.7829 6.97539 26.6143 6.97539Z" fill="#646464"/>
<path d="M5.40505 6.97539C6.23646 6.97539 6.91045 6.3014 6.91045 5.46999C6.91045 4.63859 6.23646 3.9646 5.40505 3.9646C4.57365 3.9646 3.89966 4.63859 3.89966 5.46999C3.89966 6.3014 4.57365 6.97539 5.40505 6.97539Z" fill="#646464"/>
<path d="M5.38552 28.0361C6.21693 28.0361 6.89092 27.3621 6.89092 26.5307C6.89092 25.6993 6.21693 25.0253 5.38552 25.0253C4.55412 25.0253 3.88013 25.6993 3.88013 26.5307C3.88013 27.3621 4.55412 28.0361 5.38552 28.0361Z" fill="#646464"/>
<path d="M26.5949 28.0361C27.4263 28.0361 28.1003 27.3621 28.1003 26.5307C28.1003 25.6993 27.4263 25.0253 26.5949 25.0253C25.7635 25.0253 25.0895 25.6993 25.0895 26.5307C25.0895 27.3621 25.7635 28.0361 26.5949 28.0361Z" fill="#646464"/>
<path d="M24.4141 25.6745L25.5833 24.5053C25.7292 24.3594 25.7292 24.1228 25.5833 23.9769L19.568 17.9616C19.4221 17.8156 19.1855 17.8156 19.0396 17.9616L17.8704 19.1308C17.7245 19.2767 17.7245 19.5133 17.8704 19.6592L23.8857 25.6745C24.0316 25.8204 24.2682 25.8204 24.4141 25.6745Z" fill="#B9B9B9"/>
<path d="M23.8458 22.2393L22.1482 23.9369L23.0859 24.8746L24.7835 23.1769L23.8458 22.2393Z" fill="#797979"/>
<path d="M20.5369 18.9303L18.8392 20.6279L19.8287 21.6174L21.5264 19.9198L20.5369 18.9303Z" fill="#D3D3D3"/>
<path d="M21.6793 20.0724L19.9817 21.77L21.3469 23.1353L23.0446 21.4376L21.6793 20.0724Z" fill="#797979"/>
<path d="M23.2866 21.6797L21.589 23.3773L21.9829 23.7712L23.6805 22.0736L23.2866 21.6797Z" fill="#A1A1A1"/>
</g>
<defs>
<clipPath id="clip0_3219_16708">
<rect width="129.154" height="32" fill="white"/>
</clipPath>
</defs>
</svg>
