<svg width="100" height="32" viewBox="0 0 100 32" fill="none" xmlns="http://www.w3.org/2000/svg">
<g clip-path="url(#clip0_3220_17456)">
<path d="M4.74298 0.596436C5.48497 0.612829 6.28092 0.600097 7.0269 0.600901C7.28919 1.3146 7.74332 2.28465 8.0557 3.00228L9.78177 6.97316C10.0012 7.46764 10.2133 7.96534 10.418 8.46609C10.5339 8.74333 10.7236 9.22203 10.8711 9.46416C11.0228 8.92904 11.475 7.90839 11.705 7.36201C12.1753 6.24506 12.6304 5.09852 13.1271 3.99621C13.1885 3.87666 13.2115 3.68333 13.2694 3.56944C13.7468 2.63084 14.0621 1.53179 14.5345 0.599126L16.7896 0.601567C17.0809 1.19236 17.4178 2.04663 17.6876 2.6686L20.0453 8.11149C20.3796 8.87573 20.7531 9.82101 21.1177 10.5529C20.6653 10.5432 19.4316 10.6172 19.0615 10.5364C18.9281 10.384 18.2303 8.65363 18.1123 8.35226C17.1447 8.37181 16.1328 8.35689 15.1608 8.35753C15.1638 7.80485 15.1618 7.25217 15.155 6.69955C15.9124 6.69162 16.67 6.69153 17.4275 6.69927C17.26 6.22903 16.9679 5.61225 16.7774 5.13766C16.6298 4.76985 16.4261 4.25243 16.2601 3.90332C16.2151 3.75919 15.7017 2.49865 15.64 2.45654C15.5472 2.57992 15.2164 3.55629 15.1286 3.77847L13.4029 8.19149L12.8212 9.67716C12.7194 9.93975 12.6093 10.2721 12.4918 10.5206L12.4771 10.5512C11.4089 10.5701 10.3211 10.545 9.24858 10.5547C8.96185 9.84433 8.63953 9.04681 8.32192 8.35603C7.34656 8.36907 6.36671 8.34696 5.38858 8.36266C5.40338 7.87744 5.40159 7.17084 5.38086 6.6945L7.63918 6.69811C7.58107 6.49726 7.3915 6.09062 7.30438 5.87903C7.03467 5.21643 6.76159 4.55524 6.48507 3.89547C6.30713 3.47463 5.99978 2.8019 5.89645 2.38861C5.73423 2.71592 5.55111 3.25733 5.41094 3.61382L4.23856 6.65789L3.22664 9.21529C3.0839 9.57766 2.81635 10.2023 2.72043 10.5532C2.05482 10.5757 1.275 10.5462 0.591431 10.5538C0.805709 10.0994 0.988439 9.6112 1.18357 9.14667L2.55339 5.84736L4.03209 2.30825C4.26444 1.75039 4.53241 1.15885 4.74298 0.596436Z" fill="#1E1E1E"/>
<path d="M33.116 0.60144C34.2376 0.62413 35.3675 0.593174 36.4897 0.604353C36.819 0.607654 37.1616 0.597113 37.4874 0.649843C39.2588 0.79175 40.4814 1.9429 40.3325 3.79435C40.2376 4.97321 39.7976 5.45851 38.855 6.06592C39.7312 7.53236 40.7501 9.08732 41.67 10.5363L39.4879 10.5421C39.1243 9.86803 38.5678 9.03329 38.1626 8.3627C37.8485 7.843 37.3637 7.00867 37.0236 6.52659C36.3854 6.51893 35.6664 6.53885 35.0396 6.51866C35.0665 6.95888 35.0485 7.55591 35.0476 8.00571L35.0407 10.5438C34.5163 10.5437 33.9767 10.5499 33.4536 10.5395L33.1329 10.5447C33.1107 9.19922 33.142 7.84009 33.1102 6.49913C32.9378 6.54454 31.8156 6.52567 31.5665 6.52642L28.4712 6.53574C27.8868 6.53657 27.2049 6.51976 26.6268 6.54797C26.6207 5.98423 26.6185 5.42043 26.6201 4.85666L26.6149 4.77974C26.7712 4.73996 28.2175 4.7591 28.4665 4.75938L33.1155 4.75197C33.1238 3.36849 33.1238 1.98495 33.116 0.60144Z" fill="#828282"/>
<path d="M34.8716 10.4604C34.8713 10.3146 34.8733 10.1688 34.8772 10.0231L34.9336 10.2213L34.9522 10.2052L34.9472 10.227C34.9555 10.1525 34.9402 8.03548 34.9289 8.00505C34.8921 8.12699 34.9289 9.35716 34.9051 9.61277L34.8769 9.60703C34.87 8.99521 34.8439 7.85918 34.9095 7.29441L34.9145 7.34755L34.9605 7.07428L34.9599 7.25172C34.9995 7.06241 34.94 6.65241 35.0396 6.5188C35.0664 6.95903 35.0485 7.55606 35.0476 8.00586L35.0407 10.544C34.5163 10.5438 33.9766 10.55 33.4536 10.5396C33.512 10.5005 34.6757 10.4918 34.8716 10.4604Z" fill="#8E8E8E"/>
<path d="M35.0509 2.2492C35.7666 2.23641 36.4822 2.23788 37.1979 2.25364C37.486 2.26814 37.8626 2.41873 38.0693 2.60605C38.5818 3.07032 38.6081 3.9018 38.0796 4.3651C37.5515 4.82785 36.8085 4.76777 36.1676 4.76544L35.0382 4.75995C35.057 4.66362 35.0482 4.06659 35.0476 3.94182C35.0457 3.3776 35.0468 2.81339 35.0509 2.2492Z" fill="#FEFEFE"/>
<path d="M83.9465 9.49731L83.9204 9.45684C84.0461 9.32744 84.6278 9.38891 84.8179 9.39623C84.7415 9.38386 84.6768 9.384 84.6222 9.33401C84.6491 9.32092 85.9736 9.3541 86.0469 9.37839C86.0892 9.39246 86.1449 9.40866 86.1667 9.45137C86.2381 9.5922 86.2896 18.6338 86.1905 19.3829C86.1421 19.4292 86.0264 19.4483 85.9672 19.443C85.7212 19.4209 84.3801 19.4894 84.2625 19.4045C84.1786 19.2528 83.8604 18.8648 83.7386 18.7056C83.3941 18.2557 83.0523 17.8041 82.7125 17.3507L80.6582 14.6322C80.3013 14.1564 79.885 13.5556 79.5173 13.1121C79.494 13.8973 79.5076 14.7173 79.5084 15.5057L79.5112 19.3866L77.3595 19.3873C77.3335 16.097 77.4016 12.7624 77.3521 9.47814L79.3523 9.47498C79.8316 10.0626 80.3264 10.7519 80.7891 11.363L83.9583 15.5689C83.9985 14.4608 83.9492 13.1801 83.9622 12.055C83.9694 11.4365 84.0001 10.0734 83.9465 9.49731Z" fill="#1E1E1E"/>
<path d="M83.9465 9.49731L83.9205 9.45684C84.0461 9.32744 84.6278 9.38891 84.8179 9.39623C84.7416 9.38386 84.6768 9.384 84.6223 9.33401C84.6491 9.32092 85.9736 9.3541 86.0469 9.37839C86.0893 9.39246 86.1449 9.40866 86.1668 9.45137C86.2382 9.5922 86.2896 18.6338 86.1906 19.3829C86.1421 19.4292 86.0265 19.4483 85.9672 19.443C85.7212 19.4209 84.3801 19.4894 84.2625 19.4045C84.4283 19.3618 85.8383 19.3815 86.107 19.383L86.1098 9.48011C85.8117 9.47245 84.0932 9.44918 83.9465 9.49731Z" fill="#F7F7F7"/>
<path d="M63.363 9.31883C65.0348 9.23653 66.3305 9.59868 67.5971 10.6879C67.4679 10.7939 67.2232 11.1075 67.1059 11.2508L66.217 12.3461C65.7316 11.927 65.3217 11.6535 64.7007 11.4586C61.8894 10.576 59.8683 13.686 61.2188 16.1125C61.5841 16.7618 62.1921 17.2391 62.9086 17.4392C63.9696 17.7296 64.8922 17.5314 65.8287 16.9977C65.8423 16.5449 65.8293 16.0296 65.8279 15.5722L63.6406 15.5734L63.637 13.6917C63.9978 13.7015 64.4021 13.6934 64.7661 13.693L67.9253 13.6877L67.9272 18.0017C66.8183 18.8949 65.9101 19.3187 64.447 19.5109C59.6243 20.1442 56.8131 15.0404 59.6433 11.2018C60.5118 10.0242 61.8921 9.47244 63.363 9.31883Z" fill="#1E1E1E"/>
<path d="M91.0276 9.46192C91.0448 9.44675 91.0658 9.42839 91.0902 9.40675C91.3423 9.407 91.6725 9.40281 91.9171 9.40035C91.7721 9.3644 91.5701 9.42015 91.4524 9.36609C91.5623 9.34004 91.8941 9.35119 92.0234 9.34423C92.586 9.31394 93.1356 9.34676 93.694 9.34762L96.0632 9.36443C96.4954 9.36515 97.0716 9.33386 97.4801 9.37233L97.0962 9.39069C97.5033 9.40548 97.8949 9.40218 98.302 9.39924C98.1966 9.38204 98.0413 9.38276 97.9301 9.37993L97.9309 9.36667C98.1185 9.3485 98.3034 9.33527 98.4827 9.4022C98.5389 9.48858 98.5416 11.2665 98.4974 11.4094L93.194 11.4156L93.1937 13.4603C94.7274 13.4436 96.2968 13.4609 97.8324 13.4631C97.8404 14.108 97.8404 14.753 97.8324 15.3979L93.1973 15.4014L93.1953 17.4322L98.535 17.4338L98.5328 19.3871L91.0448 19.3865L91.0456 12.9839C91.0459 11.8955 91.0847 10.5247 91.0276 9.46192Z" fill="#1E1E1E"/>
<path d="M91.0276 9.46192C91.0448 9.44675 91.0658 9.42839 91.0902 9.40675C91.3423 9.407 91.6725 9.40281 91.9171 9.40035C91.7721 9.3644 91.5701 9.42015 91.4524 9.36609C91.5623 9.34004 91.8941 9.35119 92.0234 9.34423C92.586 9.31394 93.1356 9.34676 93.694 9.34762L96.0632 9.36443C96.4954 9.36515 97.0716 9.33386 97.4801 9.37233L97.0962 9.39069C97.5033 9.40548 97.8949 9.40218 98.302 9.39924C98.1966 9.38204 98.0413 9.38276 97.9301 9.37993L97.9309 9.36667C98.1185 9.3485 98.3034 9.33527 98.4827 9.4022C98.5389 9.48858 98.5416 11.2665 98.4974 11.4094C98.455 11.2226 98.4755 9.76116 98.4766 9.4807L93.184 9.47357L91.8324 9.48081C91.6229 9.48203 91.2175 9.4918 91.0276 9.46192Z" fill="#F7F7F7"/>
<path d="M68.9156 9.47856L76.3574 9.47473L76.3616 11.4154L71.0833 11.4175L71.0839 13.4596L75.7176 13.4625C75.7082 14.0971 75.7229 14.7593 75.7248 15.3974L71.5737 15.3997L71.085 15.3969C71.077 16.0716 71.0833 16.7568 71.0836 17.4323L76.4374 17.4337C76.4499 18.0722 76.4391 18.7436 76.4385 19.3846L68.9245 19.3872L68.9264 13.2615C68.9251 12.0473 68.9549 10.6818 68.9156 9.47856Z" fill="#1E1E1E"/>
<path d="M73.672 0.485001C75.6053 0.360771 77.2743 1.82825 77.4032 3.76575C77.5322 5.70324 76.0724 7.37983 74.1397 7.51397C72.2 7.64861 70.5199 6.17894 70.3904 4.23443C70.2612 2.2899 71.7318 0.609672 73.672 0.485001Z" fill="#1E1E1E"/>
<path d="M73.4107 1.02862C75.0526 0.758925 76.6001 1.87843 76.8616 3.52506C77.1234 5.17169 75.9996 6.71777 74.3558 6.97277C72.7222 7.22618 71.1913 6.1084 70.9311 4.47211C70.6713 2.83586 71.7796 1.29662 73.4107 1.02862Z" fill="#FEFEFE"/>
<path d="M26.3395 0.385319C26.4334 0.378884 26.5275 0.376948 26.6215 0.379517C28.2446 0.417118 29.4296 1.01592 30.533 2.17217C30.0642 2.5354 29.5436 2.99876 29.0765 3.38468C28.4762 2.78202 27.9385 2.41602 27.0757 2.28113C26.2474 2.15309 25.4022 2.35646 24.7222 2.84742C23.1974 3.96909 22.9229 6.11237 24.0399 7.62497C24.5506 8.31185 25.3159 8.76356 26.1627 8.87809C27.2758 9.03897 28.13 8.57053 28.9799 7.92989L29.0394 7.93081C29.2082 8.03663 30.264 8.95631 30.4223 9.1249C29.599 10.033 28.4724 10.6074 27.2553 10.7396C25.8389 10.9054 24.4154 10.4935 23.3051 9.59644C22.2502 8.73513 21.5767 7.49161 21.4308 6.13572C21.2771 4.76278 21.6804 3.38551 22.5501 2.31366C23.5606 1.06795 24.7873 0.545697 26.3395 0.385319Z" fill="#1E1E1E"/>
<path d="M64.6528 0.534953L66.3598 0.53363C67.3142 0.533435 68.4145 0.44755 69.2456 0.999734C70.3858 1.75748 70.2773 3.55109 69.0616 4.17642C68.6849 4.37019 68.4502 4.42986 68.0326 4.50345C68.7699 5.48642 69.54 6.46945 70.2892 7.44516C70.0982 7.44391 69.9053 7.47345 69.7163 7.44749C69.5915 7.43035 69.5865 7.39174 69.5173 7.29926C68.8128 6.41511 68.1378 5.47738 67.4285 4.59065C66.7015 4.6137 65.9139 4.59371 65.1767 4.6043L65.1739 7.44744L64.6562 7.44979C64.6603 5.17984 64.6999 2.79848 64.6528 0.534953Z" fill="#1E1E1E"/>
<path d="M67.3363 1.02454C67.9623 1.02517 68.6359 1.06858 69.0897 1.50995C69.9175 2.31471 69.4974 3.62116 68.4422 3.96301C68.0166 4.10089 67.8314 4.10838 67.4135 4.11229C66.6749 4.12452 65.9092 4.11634 65.1686 4.1177C65.196 3.11553 65.178 2.03797 65.1789 1.03017L67.3363 1.02454Z" fill="#FEFEFE"/>
<path d="M87.5194 9.47278L89.6937 9.47697V16.0274C89.6943 17.0684 89.7386 18.3709 89.6915 19.3856L87.5189 19.3912L87.5194 9.47278Z" fill="#1E1E1E"/>
<path d="M59.0696 0.535679L60.611 0.534412C61.5935 0.53277 62.6595 0.474279 63.4681 1.14359C64.2969 1.82966 64.3365 3.22268 63.6408 4.01399C63.0964 4.63357 62.3357 4.80433 61.555 4.85609L59.5843 4.85808L59.581 7.44614L59.087 7.44875C59.006 5.19582 59.1335 2.80043 59.0696 0.535679Z" fill="#1E1E1E"/>
<path d="M59.5824 1.02847L60.8795 1.02317C61.1883 1.02223 61.4913 1.02797 61.7999 1.03263C63.3673 1.05629 64.262 2.65003 63.0759 3.86844C62.1378 4.56242 60.7192 4.37741 59.581 4.37793L59.5824 1.02847Z" fill="#FEFEFE"/>
<path d="M59.5437 0.880321C59.8409 0.862235 60.2087 0.899904 60.5115 0.91147C60.7871 0.922011 61.0663 0.923231 61.34 0.940013C61.0893 0.944395 59.7626 0.976377 59.5916 0.938043C59.5783 0.910721 59.5658 0.900431 59.5437 0.880321Z" fill="#1E1E1E"/>
<path d="M82.2313 0.534058C83.8621 0.557474 85.5117 0.520816 87.1473 0.542909C87.1462 0.698319 87.134 0.875037 87.1268 1.03198C85.6764 1.01298 84.1981 1.0276 82.746 1.02918C82.7665 1.90053 82.7457 2.86099 82.7452 3.73961C83.7525 3.71911 84.7657 3.74014 85.7735 3.73015C86.0821 3.72708 86.3962 3.72785 86.7045 3.74219L86.7067 4.202L83.4667 4.20314L82.7477 4.20331L82.7444 6.98062C84.2064 6.97901 85.7345 6.95247 87.1888 6.98051L87.1929 7.44934L82.2371 7.44931C82.2028 5.1583 82.2711 2.82964 82.2313 0.534058Z" fill="#1E1E1E"/>
<path d="M90.7813 0.469169C90.8577 0.464859 90.9341 0.462082 91.0104 0.460845C92.0781 0.44618 92.9728 0.839309 93.7297 1.58011C93.6076 1.693 93.4709 1.83871 93.3522 1.9587C93.2185 1.83416 93.0636 1.68609 92.9202 1.57578C92.2707 1.07297 91.4471 0.852402 90.6338 0.963464C89.8838 1.07397 89.2067 1.47384 88.7467 2.07775C87.7391 3.4244 87.9846 5.49243 89.347 6.50425C90.1315 7.08705 90.8461 7.11784 91.7693 6.98234C91.8849 6.93199 92.0452 6.90035 92.1846 6.84284C92.7024 6.62929 93.0273 6.35313 93.4211 5.97135C93.5277 6.09645 93.6378 6.21844 93.7515 6.33718C92.5131 7.70608 90.3814 7.96365 88.9067 6.81855C87.3943 5.64401 87.1773 3.25148 88.3457 1.76215C88.9911 0.93936 89.761 0.592081 90.7813 0.469169Z" fill="#1E1E1E"/>
<path d="M0.377197 12.9714L29.8327 12.976L37.9749 12.9783C39.3669 12.9774 40.9255 12.9418 42.3045 12.9785C42.3709 13.0376 42.3499 13.0161 42.3679 13.126L11.3816 13.1249L4.15031 13.1251C2.92651 13.1252 1.65136 13.1455 0.431289 13.1238C0.375875 13.0723 0.392553 13.0677 0.377197 12.9714Z" fill="#090909"/>
<path d="M93.6113 0.531372C95.3595 0.56407 97.1912 0.536914 98.9471 0.539411L98.9407 1.02945L96.5359 1.03028C96.5243 2.35976 96.5207 3.68926 96.5257 5.01877L96.5276 7.44728L96.0184 7.44889C96.0463 5.3299 96.0217 3.15295 96.0237 1.02828L93.6288 1.0269L93.6113 0.531372Z" fill="#1E1E1E"/>
<path d="M0.371094 26.4764C1.52881 26.4567 2.74831 26.4784 3.91244 26.4784H11.1918L33.3604 26.4811H40.2337C40.4571 26.4809 42.2716 26.4598 42.3486 26.5061L42.3715 26.6065L14.6124 26.6084L5.10781 26.6087C3.58304 26.6087 1.96722 26.6403 0.454857 26.6104C0.374373 26.561 0.39985 26.5901 0.371094 26.4764Z" fill="#090909"/>
<path d="M80.7969 0.534058L81.3191 0.539292C81.282 1.68711 81.3235 2.8399 81.308 3.99609C81.2928 5.03976 81.4801 6.38694 80.537 7.12302C79.6099 7.84634 78.2002 7.58416 77.4832 6.69408C77.3836 6.55519 77.2682 6.402 77.1791 6.25806C77.2928 6.17075 77.4669 6.03514 77.6019 6.00046C77.7605 6.10692 77.9617 6.50424 78.1327 6.64639C79.0507 7.43595 80.5176 7.07142 80.7396 5.81068C80.8406 5.23562 80.7977 4.4946 80.7983 3.9027L80.7969 0.534058Z" fill="#1E1E1E"/>
<path d="M58.6136 21.9911C58.8574 21.9664 59.34 21.9799 59.6032 21.9798L61.4219 21.9794L67.3973 21.9793L86.8138 21.9791L95.5925 21.9792L97.8853 21.979C98.1581 21.979 98.4664 21.9734 98.7406 21.9799C98.8109 21.9816 98.8148 22.0096 98.8519 22.0625C98.6814 22.144 92.8547 22.0967 92.1988 22.0967L66.7796 22.0974L60.6155 22.0951C60.0429 22.0946 59.3096 22.094 58.7207 22.0975C58.6676 22.0978 58.6438 22.0377 58.6136 21.9911Z" fill="#090909"/>
<path d="M58.608 31.6985C58.7993 31.665 59.5238 31.6788 59.7557 31.6788L62.0742 31.6799L70.6982 31.6802L91.937 31.6805L96.8076 31.6797C97.047 31.6791 98.6474 31.6602 98.8032 31.6988L98.8414 31.7878C98.214 31.8339 96.9869 31.795 96.3222 31.7945L91.352 31.7937L75.579 31.7939L63.9862 31.7942L60.3817 31.7914C59.9765 31.7912 59.0439 31.8253 58.6764 31.7851L58.608 31.6985Z" fill="#1E1E1E"/>
<path d="M21.9902 20.2085C22.4624 20.2058 22.9778 20.171 23.4369 20.2774C24.2509 20.466 24.3311 21.5413 23.6382 21.9381C23.5605 21.9826 23.4605 22.0057 23.4114 22.0721C23.4752 22.2247 24.0579 23.0741 24.1973 23.29C24.0766 23.2923 23.8691 23.3063 23.7604 23.2746C23.5415 22.8761 23.2486 22.5051 23.0356 22.107L22.3408 22.1083L22.342 23.2906L21.9922 23.2936L21.9902 20.2085Z" fill="#1E1E1E"/>
<path d="M22.3439 20.531L22.8484 20.5302C23.2152 20.5308 23.4218 20.5593 23.6808 20.8192C23.7784 21.1148 23.7986 21.3244 23.5975 21.5823C23.2862 21.8752 22.7586 21.8002 22.3405 21.7942L22.3439 20.531Z" fill="#FEFEFE"/>
<path d="M27.8726 15.7208C29.3626 15.5515 29.4979 17.787 28.2728 18.0666C26.9314 18.3668 26.5374 16.0862 27.8726 15.7208Z" fill="#1E1E1E"/>
<path d="M27.9191 16.0238C28.8614 15.9276 29.0529 17.325 28.2927 17.7526C27.3363 18.0226 27.0266 16.4404 27.9191 16.0238Z" fill="#FEFEFE"/>
<path d="M2.85068 20.9657C4.15799 20.8342 4.5182 22.9441 3.12081 23.3479C1.85088 23.525 1.43148 21.2999 2.85068 20.9657Z" fill="#1E1E1E"/>
<path d="M2.87416 21.2609C3.73899 21.2393 3.90125 22.3653 3.38272 22.8815C3.32129 22.9426 3.19767 22.9985 3.11833 23.0367C2.97838 23.0393 2.86652 23.0504 2.74047 22.9811C2.10427 22.6315 2.14709 21.484 2.87416 21.2609Z" fill="#FEFEFE"/>
<path d="M38.4504 15.7207C39.5424 15.5699 39.9733 16.8237 39.502 17.6119C39.3667 17.8402 39.1442 18.0033 38.886 18.0635C37.5571 18.3372 37.1312 16.2022 38.4504 15.7207Z" fill="#1E1E1E"/>
<path d="M38.5113 16.0215C39.5402 15.9345 39.6144 17.4188 38.8464 17.787C37.8779 17.9242 37.6504 16.4329 38.5113 16.0215Z" fill="#FEFEFE"/>
<path d="M28.8133 29.5761C29.4185 29.558 29.9227 30.0371 29.9376 30.6437C29.9523 31.2503 29.4719 31.7535 28.8664 31.7649C28.2656 31.7765 27.7683 31.2991 27.7536 30.6969C27.739 30.0948 28.2125 29.5938 28.8133 29.5761Z" fill="#828282"/>
<path d="M28.7018 30.057C28.8592 30.0201 29.0247 30.0451 29.1639 30.1272C29.3825 30.2562 29.5021 30.5042 29.4672 30.756C29.4323 31.0076 29.2497 31.2134 29.0045 31.2778C28.7823 31.336 28.546 31.2678 28.3885 31.1003C28.2435 30.9455 28.1859 30.728 28.2357 30.5216C28.2914 30.2911 28.4715 30.1114 28.7018 30.057Z" fill="#FEFEFE"/>
<path d="M50.8784 0.635254L50.9722 0.677748C50.9966 0.718273 51.001 0.725125 51.0013 0.773583L50.9938 31.7176L50.8953 31.6937C50.8361 31.5892 50.8729 27.5364 50.8729 27.1017L50.8726 9.56658L50.8723 3.76248C50.8723 2.74772 50.8516 1.64441 50.8784 0.635254Z" fill="#090909"/>
<path d="M5.94714 29.6106C6.48451 29.6106 7.06951 29.5241 7.50236 29.8755C7.71055 30.0433 7.84103 30.2894 7.86339 30.5562C7.89148 30.8757 7.78056 31.1587 7.57932 31.4022C7.18051 31.8077 6.482 31.7279 5.9534 31.7287C5.95747 31.0444 5.96851 30.2913 5.94714 29.6106Z" fill="#828282"/>
<path d="M6.46099 30.0605C6.71188 30.0571 6.83553 30.0566 7.08161 30.1107C7.43364 30.4077 7.5002 30.7891 7.18325 31.1458C6.89688 31.3051 6.76062 31.2806 6.43725 31.2768C6.43454 30.9478 6.42081 30.3733 6.46099 30.0605Z" fill="#FEFEFE"/>
<path d="M1.65021 14.9502C1.76312 14.9503 1.84232 14.9541 1.95479 14.9643C2.09147 15.0601 3.02275 17.6906 3.1788 18.0458L2.79657 18.0462C2.71377 17.7754 2.60122 17.5132 2.51308 17.2414L2.07091 17.2435L1.13265 17.2428C1.07708 17.4529 0.930357 17.8536 0.836792 18.0466L0.503723 18.0474C0.708717 17.356 1.07711 16.5493 1.3192 15.8543C1.42461 15.5517 1.57211 15.2684 1.65021 14.9502Z" fill="#1E1E1E"/>
<path d="M1.79724 15.4238C1.94726 15.5511 2.24105 16.6211 2.4139 16.9314C2.2323 16.9244 2.04263 16.9243 1.86028 16.9215C1.66178 16.9266 1.46322 16.9259 1.26477 16.9196C1.43278 16.4664 1.66377 15.8778 1.79724 15.4238Z" fill="#FEFEFE"/>
<path d="M21.3427 14.949L21.6465 14.9503C22.0779 15.8405 22.4472 17.1086 22.8436 18.0453L22.4943 18.0445C22.3858 17.8278 22.264 17.471 22.1817 17.2406L21.6695 17.2439L20.8288 17.2425C20.7156 17.4919 20.6134 17.784 20.5165 18.0433C20.4126 18.0451 20.2889 18.0596 20.1995 18.0179C20.2288 17.8404 20.5229 17.0825 20.5985 16.8849C20.8395 16.2369 21.0876 15.5916 21.3427 14.949Z" fill="#1E1E1E"/>
<path d="M21.4818 15.453C21.6102 15.5775 21.9699 16.6948 22.0618 16.9289L21.5809 16.9254L20.9131 16.9197C21.0161 16.7459 21.3941 15.6912 21.4818 15.453Z" fill="#FEFEFE"/>
<path d="M19.1548 29.6093C19.8231 29.6068 21.0427 29.4385 20.8749 30.4992C20.8372 30.738 20.6412 30.867 20.4552 30.9887C20.5774 31.1715 20.8817 31.4972 20.8745 31.683C20.8132 31.7366 20.7845 31.7202 20.6876 31.7255C20.1698 31.744 20.3422 31.4575 20.0765 31.1984C19.5343 30.6698 19.6182 31.4864 19.6145 31.7238L19.1685 31.7296C19.1673 31.0312 19.1756 30.3056 19.1548 29.6093Z" fill="#828282"/>
<path d="M19.6277 30.0615C20.031 30.0529 20.5766 29.9694 20.3436 30.5763C20.1419 30.6385 19.8363 30.6177 19.621 30.6127C19.6158 30.4354 19.624 30.2399 19.6277 30.0615Z" fill="#FEFEFE"/>
<path d="M40.7249 29.6133C41.5073 29.6061 42.9305 29.4896 42.3148 30.7872C42.232 30.8405 42.1512 30.8968 42.0724 30.9558C42.0522 31.2163 42.4778 31.4349 42.4609 31.6768C42.3917 31.7403 42.3707 31.7184 42.2533 31.7209L42.0466 31.7256C41.833 31.6407 41.7743 31.3103 41.595 31.1492C41.4563 31.0246 41.3905 31.0457 41.2023 31.0524C41.1973 31.2746 41.1909 31.4967 41.1829 31.7186L40.7269 31.725L40.7249 29.6133Z" fill="#8E8E8E"/>
<path d="M41.2065 30.0583C41.5374 30.0578 42.2655 30.0006 41.8939 30.5773C41.7453 30.6375 41.37 30.6158 41.197 30.6136C41.1935 30.4217 41.199 30.2494 41.2065 30.0583Z" fill="#FEFEFE"/>
<path d="M14.992 15.7225C16.2968 15.6358 16.0738 16.5898 16.0907 17.5142C16.0931 17.6425 16.1223 17.9449 16.0487 18.0342C15.9568 18.0423 15.8579 18.0637 15.7801 18.0252C15.7798 17.9293 15.7816 17.8744 15.7634 17.7783C15.6973 17.783 15.6187 17.9023 15.5519 17.9483C15.2287 18.1705 14.703 18.1299 14.4594 17.8091C14.2844 17.531 14.2795 17.1723 14.4643 16.8915C14.626 16.6457 15.0423 16.6006 15.307 16.6277C15.4265 16.6399 15.6142 16.6999 15.7288 16.6795C15.8041 16.5481 15.7251 16.2872 15.6159 16.1798C15.3048 15.8738 14.9613 16.1239 14.6267 16.1254C14.5428 16.0871 14.5498 16.0947 14.5101 15.9993C14.4381 15.8258 14.8758 15.7525 14.992 15.7225Z" fill="#1E1E1E"/>
<path d="M15.1276 16.8778C16.0435 16.763 15.9102 17.5709 15.3045 17.8052C15.1563 17.8222 15.0373 17.8325 14.9025 17.7563C14.7925 17.6943 14.7124 17.59 14.6808 17.4675C14.6492 17.3423 14.6715 17.2096 14.7424 17.1018C14.8434 16.9493 14.959 16.9094 15.1276 16.8778Z" fill="#FEFEFE"/>
<path d="M10.6272 20.99C11.9931 20.6465 11.7203 22.5106 11.7172 23.2943C11.6109 23.2991 11.5012 23.3157 11.4061 23.2771C11.4036 23.1848 11.4017 23.1316 11.3871 23.0382C11.1153 23.0682 10.885 23.7149 10.1698 23.1426C9.61085 22.5113 10.2084 21.6614 10.9936 21.8793C11.1521 21.9233 11.3022 21.9951 11.4057 21.8729C11.4738 21.6291 11.1965 21.3811 11.0046 21.2765C10.6237 21.2712 10.595 21.2848 10.2351 21.4084L10.1069 21.1734C10.3034 21.0598 10.4023 21.0159 10.6272 20.99Z" fill="#1E1E1E"/>
<path d="M10.6064 22.1541C10.9018 22.1188 11.1128 22.1331 11.3943 22.2241C11.3893 22.6224 11.3934 22.808 11.0217 23.0079C10.8473 23.15 10.5057 23.053 10.3776 22.8521C10.3019 22.7357 10.2811 22.5919 10.3205 22.4588C10.3664 22.3034 10.4758 22.2289 10.6064 22.1541Z" fill="#FEFEFE"/>
<path d="M5.2636 16.0985C5.63014 15.6692 6.12351 15.4954 6.52232 15.9795C6.76662 16.2761 6.73313 17.6172 6.66702 18.0034C6.62233 18.0569 6.60127 18.0604 6.53576 18.0901C6.09229 17.98 6.76565 16.03 5.91595 16.0114C5.24326 15.9966 5.35238 16.8517 5.3565 17.3138L5.35 18.0421L5.00842 18.0441C5.01096 17.6677 5.12279 16.3601 4.81459 16.0885C4.55437 15.8592 4.22633 16.1093 4.03748 16.3661C3.9942 16.6981 4.04033 17.8954 3.96976 18.0171C3.8943 18.0364 3.74253 18.0608 3.68027 18.0076C3.66776 17.5087 3.67869 16.995 3.67379 16.4949C3.67249 16.363 3.66485 15.8667 3.68533 15.7592C3.79653 15.6989 3.84404 15.6967 3.95014 15.75C4.0284 15.8659 3.96661 15.9446 4.02334 16.0218C4.21476 15.8792 4.23081 15.7945 4.45682 15.7173C4.8274 15.682 5.06681 15.7639 5.2636 16.0985Z" fill="#1E1E1E"/>
<path d="M33.445 15.7212C34.4781 15.6378 34.5307 16.3725 34.482 17.1938C34.4667 17.4489 34.5166 17.7591 34.4679 18.0121L34.4263 18.0373C34.3054 18.0399 34.2636 18.0634 34.1809 18.005C34.1609 17.9135 34.1623 17.8785 34.1621 17.7843C34.1214 17.7608 34.1338 17.753 34.0992 17.7896C33.7445 18.1652 33.2815 18.2159 32.8915 17.8313C32.5157 17.2623 32.8677 16.5621 33.5565 16.6191C33.755 16.6356 33.9459 16.6807 34.1308 16.6916C34.1914 16.6026 34.1153 16.3503 34.0898 16.2436C33.7478 15.9036 33.4262 16.0015 33.0241 16.1706C32.9743 16.0865 32.9212 15.9816 32.8741 15.8941C33.1259 15.8001 33.1843 15.7782 33.445 15.7212Z" fill="#1E1E1E"/>
<path d="M33.4855 16.8824C34.1441 16.7956 34.2379 16.958 34.0843 17.5489C33.9568 17.6895 33.8801 17.7398 33.7013 17.7972C33.1003 18.0235 32.7319 17.0381 33.4855 16.8824Z" fill="#FEFEFE"/>
<path d="M31.7768 20.9918C31.8449 20.9742 31.9653 20.9822 32.0378 20.9858C33.0974 21.0393 32.7357 22.3682 32.7855 23.0627C32.7919 23.1531 32.7794 23.2464 32.7175 23.3013C32.5293 23.3218 32.5021 23.2558 32.4664 23.087L32.4366 23.068C32.3475 23.1168 32.2733 23.1713 32.1892 23.2273C31.8156 23.4755 31.3722 23.3443 31.1472 22.9757C31.1387 22.9591 31.1301 22.9425 31.1212 22.926C31.0495 22.7666 31.0119 22.522 31.0877 22.3596C31.4896 21.5004 32.3015 22.0092 32.4601 21.939C32.4958 21.8647 32.5035 21.8382 32.48 21.75C32.2888 21.0339 31.8654 21.2885 31.3625 21.3975C31.2887 21.3572 31.2784 21.2883 31.2355 21.1962C31.3387 21.0281 31.6039 21.0093 31.7768 20.9918Z" fill="#1E1E1E"/>
<path d="M31.7008 22.1522C32.0174 22.1224 32.1807 22.1289 32.4859 22.2125C32.4851 22.4923 32.4895 22.5727 32.386 22.8318C32.3052 22.8952 32.1931 22.9638 32.1046 23.0213C31.4351 23.23 31.0673 22.5418 31.7008 22.1522Z" fill="#FEFEFE"/>
<path d="M25.3849 20.9623C25.4084 20.9599 25.4319 20.9585 25.4555 20.9581C26.2681 20.9455 26.4231 21.6303 26.4165 22.2894C26.0921 22.3006 25.1739 22.2683 24.9398 22.3082C24.8176 22.5196 25.1795 22.9779 25.4093 23.0225C25.6936 23.0778 25.8206 23.0196 26.057 22.882C26.1173 22.8313 26.1192 22.829 26.1942 22.8109C26.2955 22.8417 26.2629 22.8173 26.3204 22.8986C26.334 23.3843 25.3961 23.4495 25.0827 23.2223C24.8256 23.0359 24.6762 22.8628 24.6088 22.5444C24.4658 21.8687 24.6475 21.1437 25.3849 20.9623Z" fill="#1E1E1E"/>
<path d="M25.361 21.2592C25.91 21.2028 26.0223 21.5646 26.1056 22.0203L25.6803 22.0142C25.5034 22.0126 25.0217 22.063 24.9136 21.9746C24.8359 21.7389 25.1507 21.3672 25.361 21.2592Z" fill="#FEFEFE"/>
<path d="M17.5682 20.9596C17.5914 20.9574 17.6146 20.9562 17.6379 20.956C18.4395 20.9499 18.6213 21.6306 18.6118 22.2955C18.1006 22.3017 17.5893 22.2984 17.0782 22.2856C17.1745 22.8746 17.5694 23.2489 18.1559 22.9341C18.2305 22.8812 18.2662 22.8507 18.3553 22.8221C18.4666 22.8555 18.4744 22.8988 18.5657 23.0003C18.3927 23.1513 18.2685 23.2479 18.0446 23.3157C17.7978 23.3884 17.5323 23.36 17.3064 23.2366C16.5016 22.796 16.5114 21.2583 17.5682 20.9596Z" fill="#1E1E1E"/>
<path d="M17.5705 21.2554C17.8131 21.2231 17.9034 21.2836 18.0942 21.4137C18.1717 21.5826 18.3373 21.8329 18.2234 21.9842C18.116 22.04 17.9391 22.0195 17.8114 22.0156L17.051 22.0145C17.1624 21.6425 17.1947 21.4268 17.5705 21.2554Z" fill="#FEFEFE"/>
<path d="M29.6145 20.9626C30.412 20.8611 30.6567 21.6378 30.6434 22.2829C30.138 22.297 29.6324 22.301 29.1268 22.2949C29.1786 22.6786 29.3502 22.9988 29.7852 23.0596C29.9189 23.0782 30.1458 22.9868 30.2454 22.8983C30.3077 22.8459 30.3116 22.8395 30.3868 22.8133C30.4937 22.8339 30.4632 22.8123 30.5266 22.8834C30.5498 23.1257 30.3143 23.2565 30.109 23.3118C28.6326 23.7089 28.2441 21.2895 29.6145 20.9626Z" fill="#1E1E1E"/>
<path d="M29.6177 21.2525C30.1538 21.2089 30.2429 21.5957 30.3179 22.0199L29.7863 22.0159L29.1276 22.0179C29.1561 21.6594 29.2618 21.3861 29.6177 21.2525Z" fill="#FEFEFE"/>
<path d="M86.1338 23.7599L86.5492 23.7587C86.8151 24.1456 87.1893 24.7143 87.4143 25.1198L87.4082 23.7611L87.8559 23.7619L87.8546 25.2462C87.8546 25.4204 87.8642 25.8663 87.8396 26.0181L87.7915 26.0475L87.4707 26.0433C87.1619 25.5817 86.884 25.1061 86.5763 24.6491C86.6065 25.0326 86.586 25.6511 86.5818 26.0472L86.1374 26.0494C86.1507 25.3208 86.1521 24.4861 86.1338 23.7599Z" fill="#1E1E1E"/>
<path d="M7.98381 15.7184C8.86801 15.625 9.10094 16.2684 9.0995 17.0292C8.84161 17.0403 7.73513 16.997 7.61098 17.0663C7.58516 17.1799 7.65886 17.3868 7.71609 17.4853C7.80044 17.6323 7.94149 17.738 8.10601 17.7774C8.32876 17.8319 8.5067 17.7807 8.695 17.6641C8.75264 17.606 8.76188 17.5889 8.83599 17.5611C8.94323 17.5938 8.97619 17.66 9.06331 17.7525C7.91418 18.7515 6.80642 17.4061 7.38182 16.2267C7.5089 15.9662 7.71183 15.8073 7.98381 15.7184Z" fill="#1E1E1E"/>
<path d="M8.01953 16.0221C8.59537 15.9537 8.69923 16.2938 8.78784 16.7759L8.43491 16.7803C8.22155 16.7849 7.68631 16.8492 7.57047 16.6884C7.54 16.4484 7.82025 16.1367 8.01953 16.0221Z" fill="#FEFEFE"/>
<path d="M3.62897 29.6085L4.05066 29.6088C4.36335 30.0243 4.69654 30.4423 5.00087 30.8598C5.01783 30.4864 5.00217 29.9921 5.00018 29.6094L5.49515 29.6105L5.49465 31.7241L5.06917 31.7291C4.83308 31.3474 4.38955 30.7927 4.10795 30.4118C4.07847 30.8337 4.10363 31.2886 4.08265 31.7238L3.63353 31.7291C3.65266 31.0512 3.63234 30.2923 3.62897 29.6085Z" fill="#828282"/>
<path d="M9.25092 29.6096L9.67416 29.6129C9.99791 30.0404 10.3038 30.4598 10.6352 30.8853C10.6286 30.4603 10.6255 30.0351 10.6259 29.6102L11.0754 29.6124C11.0936 30.2823 11.0833 31.0376 11.0781 31.7085C10.9997 31.7324 10.7906 31.7255 10.6975 31.7257C10.4476 31.3993 9.97063 30.715 9.71268 30.4412C9.69514 30.8453 9.70371 31.3169 9.70305 31.726L9.25449 31.7285L9.25092 29.6096Z" fill="#828282"/>
<path d="M12.2466 29.6149C12.3323 29.6063 12.4182 29.6008 12.5042 29.598C12.8698 29.5878 13.1044 29.646 13.3731 29.9001C13.0473 30.3813 13.0492 30.0854 12.5701 30.0343C12.491 30.026 12.3057 30.0882 12.2238 30.1142C11.9735 30.4052 11.9671 30.4729 11.9752 30.849C12.0137 30.93 12.0548 31.0226 12.1125 31.0914C12.3429 31.3658 12.8603 31.4243 13.0414 31.0651C13.0453 30.9691 13.0575 31.0041 13.0027 30.9331C12.8921 30.8901 12.6729 30.9095 12.5443 30.9128C12.5421 30.773 12.5394 30.6396 12.5453 30.4998C12.8472 30.5028 13.1491 30.502 13.4509 30.4965C13.4635 30.7833 13.4582 31.1133 13.4603 31.4038C13.1274 31.723 12.6416 31.8384 12.2018 31.6958C11.9404 31.6135 11.7231 31.429 11.5988 31.1844C11.254 30.4973 11.6161 29.9212 12.2466 29.6149Z" fill="#828282"/>
<path d="M31.3341 29.5928C31.5754 29.6022 32.0702 29.6458 32.0913 29.9597C32.0453 30.0787 31.9609 30.1481 31.8461 30.1994C31.783 30.1711 31.5641 30.0524 31.525 30.0455C30.7939 29.9179 30.6165 30.5655 30.8667 31.1117C31.1277 31.2909 31.6568 31.4631 31.8214 31.0762C31.8153 30.9797 31.8275 31.0177 31.765 30.9325C31.6687 30.8995 31.4359 30.912 31.3228 30.9128L31.3216 30.4923L31.6128 30.4984L32.2208 30.4979C32.2227 30.7991 32.2199 31.1003 32.213 31.4013C31.7943 31.8251 31.0623 31.8864 30.6066 31.4881C30.3924 31.3006 30.2631 31.0343 30.2482 30.7497C30.2092 30.0629 30.6644 29.6194 31.3341 29.5928Z" fill="#828282"/>
<path d="M32.6245 29.618C33.15 29.6144 33.6755 29.6158 34.201 29.6222L34.203 30.0538C33.8385 30.0513 33.474 30.0524 33.1096 30.0571L33.1029 30.4568C33.422 30.4643 33.7613 30.4588 34.0818 30.4591L34.0795 30.8748L33.1671 30.876L33.1292 30.8976C33.0913 31.0008 33.1049 31.1653 33.1071 31.2804C33.4796 31.2823 33.8521 31.282 34.2246 31.2793C34.2273 31.4207 34.214 31.5783 34.2055 31.7206L32.625 31.7222C32.6435 31.0601 32.6253 30.2879 32.6245 29.618Z" fill="#8E8E8E"/>
<path d="M59.655 23.7653C59.8775 23.7494 60.4174 23.8075 60.5195 24.0254C60.4755 24.1379 60.3479 24.2738 60.2668 24.3707C59.5299 23.8584 59.0912 24.5421 59.3063 25.2474C59.3334 25.3358 59.4333 25.4559 59.4911 25.5312C59.6093 25.587 59.6932 25.6103 59.8188 25.6477C59.9281 25.6194 60.0377 25.5748 60.144 25.5351L60.1509 25.1421L59.7449 25.1431C59.7405 25.0795 59.7366 25.0159 59.7333 24.9521C59.728 24.8401 59.7222 24.8088 59.7914 24.7336L59.8954 24.7314L60.5914 24.7377L60.5887 25.7789C58.8087 26.9115 58.015 24.1452 59.655 23.7653Z" fill="#1E1E1E"/>
<path d="M21.2799 29.61L22.8243 29.6114L22.8292 30.0485C22.4772 30.0541 22.1133 30.0505 21.7604 30.0513C21.752 30.1825 21.7525 30.324 21.7506 30.4563C22.0675 30.464 22.409 30.4568 22.7278 30.456L22.7163 30.8748L21.8192 30.8751L21.7785 30.8945C21.7418 30.9969 21.7551 31.1636 21.7571 31.279L22.8591 31.2815L22.8518 31.7206L21.2797 31.7256C21.3051 31.0834 21.279 30.2646 21.2799 29.61Z" fill="#828282"/>
<path d="M38.7556 29.6116C39.2715 29.6182 39.7956 29.6149 40.3123 29.6163L40.3142 30.041C39.9796 30.0615 39.5703 30.0526 39.2305 30.0537C39.223 30.1824 39.2252 30.3303 39.2241 30.4606L40.1822 30.4604L40.1758 30.88L39.306 30.8717L39.2452 30.8981C39.2064 31.0001 39.2214 31.1671 39.2244 31.2817C39.5897 31.2833 39.9547 31.2819 40.32 31.2772L40.3178 31.7238C39.7989 31.7202 39.2803 31.7205 38.7617 31.7249C38.7722 31.0384 38.7659 30.2981 38.7556 29.6116Z" fill="#8E8E8E"/>
<path d="M37.817 29.61L38.2772 29.6144C38.2932 30.3045 38.2827 31.0213 38.2819 31.7133L37.8114 31.7283C37.8178 31.4487 37.815 31.1564 37.8164 30.8754L36.989 30.8843L36.9837 31.7206L36.5202 31.7261C36.539 31.0499 36.5177 30.2934 36.5157 29.6111L36.9865 29.6125L36.9881 30.4443C37.2701 30.4549 37.5303 30.4416 37.8206 30.4593C37.8258 30.1761 37.8247 29.8929 37.817 29.61Z" fill="#8E8E8E"/>
<path d="M75.5312 27.5731L76.9572 27.5776L76.955 28.0083L75.9781 28.0119L75.9773 28.522L76.8396 28.5201L76.8371 28.9711C76.6935 28.9697 76.0587 28.9448 75.9773 29.0047L75.9767 29.436C76.3088 29.423 76.6417 29.4202 76.9741 29.428L76.9796 29.8601L75.5334 29.8623L75.5312 27.5731Z" fill="#1E1E1E"/>
<path d="M78.2778 23.7244C78.3876 23.726 78.43 23.7059 78.5022 23.7619C78.5216 23.9448 78.5218 26.0033 78.5008 26.0372C78.4208 26.0605 78.3428 26.0533 78.2927 25.9853C78.3082 25.9024 78.3289 25.8511 78.2916 25.7789L78.2534 25.7692C77.9576 26.0036 77.8795 26.1359 77.4572 25.9734C76.5778 25.3741 77.3089 23.6396 78.2847 24.6452C78.2908 24.3489 78.2808 24.0229 78.2778 23.7244Z" fill="#1E1E1E"/>
<path d="M77.7159 24.5339C78.3851 24.5591 78.3878 25.2636 78.1022 25.7204L77.8692 25.8402C77.1669 25.8388 77.0916 24.7549 77.7159 24.5339Z" fill="#FEFEFE"/>
<path d="M73.0172 23.7563L74.4449 23.7622L74.4377 24.1993L73.4744 24.1981V24.7066L74.3204 24.707L74.3173 25.1467C74.1693 25.1445 73.5732 25.1191 73.4774 25.174L73.4752 25.6163C73.7913 25.6055 74.1446 25.6122 74.4637 25.6113L74.4582 26.051L73.0175 26.0504C73.0244 25.2858 73.0244 24.521 73.0172 23.7563Z" fill="#1E1E1E"/>
<path d="M91.647 24.3292C91.9725 24.3225 91.8341 24.4202 91.8922 24.5652C91.9988 24.5247 92.1286 24.418 92.2354 24.348C93.295 24.2505 93.3379 25.6779 92.6342 26.0024C92.2597 26.0742 92.1247 26.0099 91.8684 25.7342C91.8695 25.9608 91.9694 26.3929 91.7893 26.5294C91.7032 26.53 91.7279 26.5419 91.6661 26.4997C91.6152 26.0304 91.6548 24.8657 91.647 24.3292Z" fill="#1E1E1E"/>
<path d="M92.3009 24.5397C92.9537 24.5463 92.9839 25.2818 92.7 25.7158L92.454 25.8467C92.2038 25.8248 92.1614 25.769 91.9616 25.601C91.8493 25.2319 91.8612 25.1567 91.9514 24.789C92.0804 24.6454 92.1221 24.606 92.3009 24.5397Z" fill="#FEFEFE"/>
<path d="M18.229 29.6093L18.7011 29.6117L18.7043 30.1146C18.7096 30.4991 18.8126 31.1335 18.4847 31.4719C18.0954 31.8741 17.2419 31.8649 16.9981 31.301C16.8502 30.9587 16.9015 30.0558 16.9043 29.6106L17.368 29.614C17.3814 30.0716 17.3244 30.6722 17.4094 31.1088C17.816 31.4688 18.1941 31.3551 18.2306 30.8103C18.2562 30.4297 18.2341 29.9929 18.229 29.6093Z" fill="#828282"/>
<path d="M86.4164 29.4289C86.2149 29.5934 86.0461 29.7412 85.7599 29.716C85.5997 29.7027 85.4514 29.625 85.3487 29.5007C84.9292 28.9962 85.2856 27.9286 86.0383 28.1815C86.1402 28.2156 86.3472 28.3887 86.387 28.376L86.4114 28.1635C86.4811 28.108 86.5254 28.1349 86.5965 28.1835C86.6364 28.3108 86.6477 29.7873 86.5456 29.99C86.4891 30.1024 86.3906 30.1861 86.2783 30.2513L86.2503 30.268C86.2143 30.2255 86.1955 30.2011 86.1634 30.1556L86.1731 30.1345L86.1432 30.0968C86.3912 29.8921 86.3804 29.8028 86.4108 29.4883L86.4164 29.4289Z" fill="#1E1E1E"/>
<path d="M85.7601 28.3607C85.8122 28.3579 85.8695 28.3554 85.9215 28.3604C86.064 28.3759 86.1946 28.4481 86.2837 28.561C86.5392 28.8885 86.3554 29.2805 86.0698 29.5137C85.5556 29.5637 85.3138 29.2569 85.4228 28.7407C85.4618 28.5571 85.596 28.4445 85.7601 28.3607Z" fill="#FEFEFE"/>
<path d="M23.6928 29.6121C24.1747 29.5832 24.3066 29.6179 24.7128 29.865C24.6222 29.9979 24.5686 30.0692 24.4622 30.1893C24.2794 30.1102 24.0197 29.9996 23.8237 30.024C23.7486 30.0611 23.7456 30.0745 23.6955 30.146C23.6697 30.5241 24.3982 30.3726 24.723 30.8517L24.7422 30.8805C24.7882 31.4247 24.6471 31.6228 24.1096 31.7412C23.7156 31.7426 23.3999 31.6905 23.1121 31.3973C23.1332 31.3701 23.3431 31.1055 23.3635 31.108C23.5959 31.1382 23.7972 31.3593 24.0527 31.3349C24.1296 31.3274 24.2001 31.2885 24.2472 31.2272C24.3013 31.1557 24.2938 31.1454 24.28 31.0763C24.0109 30.7535 22.7187 30.8536 23.3412 29.8057C23.4476 29.7338 23.5774 29.6714 23.6928 29.6121Z" fill="#828282"/>
<path d="M8.56219 20.1592C9.05357 20.1837 9.23024 20.2782 9.59495 20.571C9.5137 20.6385 9.43954 20.7239 9.36706 20.8017C8.72356 20.3387 8.0375 20.389 7.74598 21.1726C7.39015 22.1292 7.96782 23.441 9.13811 22.876C9.20077 22.8428 9.32024 22.7395 9.38142 22.6893L9.58294 22.9081C9.35635 23.1315 9.15201 23.2795 8.82756 23.3356C8.50079 23.3901 8.16588 23.3108 7.89799 23.1154C7.08582 22.5305 7.06894 21.031 7.86822 20.4287C8.0973 20.256 8.28673 20.2057 8.56219 20.1592Z" fill="#1E1E1E"/>
<path d="M37.1102 20.1239L37.4353 20.1273L37.4301 21.3508C37.4589 21.318 37.4882 21.2855 37.5178 21.2534C37.8446 20.9008 38.2808 20.8299 38.6234 21.1781C38.9889 21.5499 38.8569 22.7948 38.852 23.2933L38.5207 23.2943L38.524 21.9037C38.5091 21.4676 38.2105 21.0133 37.7439 21.3203C37.2056 21.6744 37.5244 22.6885 37.411 23.2761C37.3072 23.2957 37.2607 23.2844 37.1586 23.2704C37.0891 23.1874 37.1187 20.4622 37.1102 20.1239Z" fill="#1E1E1E"/>
<path d="M62.8615 29.8227C61.9292 29.4951 62.3175 27.8336 63.2794 28.1959C63.9776 28.4586 64.0332 29.555 63.2498 29.8222C63.1742 29.8715 62.9398 29.8746 62.8615 29.8227Z" fill="#1E1E1E"/>
<path d="M63.0037 29.6503C62.5695 29.4963 62.4779 29.0181 62.6475 28.6242C62.9625 27.8933 63.8477 28.7535 63.5359 29.3019C63.4603 29.445 63.3089 29.5967 63.1465 29.6447L63.0037 29.6503Z" fill="#FEFEFE"/>
<path d="M63.0038 29.6501L63.1466 29.6445L63.2146 29.7194C63.2055 29.7449 63.1961 29.7707 63.1867 29.7963L63.2498 29.8221C63.1742 29.8714 62.9398 29.8745 62.8615 29.8226L62.9265 29.796C62.913 29.7752 62.8994 29.7541 62.8864 29.7327C62.9119 29.69 62.9575 29.6742 63.0038 29.6501Z" fill="#090909"/>
<path d="M90.3173 24.343C90.4285 24.3359 90.5677 24.3374 90.6815 24.3354C91.2391 24.6319 91.4632 25.18 91.0736 25.7672C91.0268 25.8373 90.8334 25.9788 90.7523 26.0013C89.9304 26.2132 89.5551 25.313 89.9204 24.6849C90.0256 24.5036 90.1391 24.4457 90.3173 24.343Z" fill="#1E1E1E"/>
<path d="M90.3233 24.5661C91.1608 24.4468 91.2388 25.5151 90.6632 25.8082C90.6294 25.8334 90.4639 25.8481 90.4307 25.8354C89.8941 25.6262 89.9265 24.8723 90.3233 24.5661Z" fill="#FEFEFE"/>
<path d="M64.7456 24.3433C65.8367 24.2362 65.9369 25.7256 65.154 26.0047C64.176 26.2568 63.7803 24.8062 64.7456 24.3433Z" fill="#1E1E1E"/>
<path d="M64.7508 24.5612C65.5509 24.4767 65.6823 25.4704 65.0596 25.8119C64.8449 25.8854 64.7176 25.7756 64.5532 25.6569C64.3537 25.2508 64.3412 24.8329 64.7508 24.5612Z" fill="#FEFEFE"/>
<path d="M71.7493 29.8183C70.8136 29.4417 71.278 27.786 72.2496 28.2176C72.432 28.2994 72.5742 28.4506 72.6453 28.6378C72.8094 29.0675 72.6567 29.6355 72.1945 29.8106C72.0808 29.8827 71.8719 29.8672 71.7493 29.8183Z" fill="#1E1E1E"/>
<path d="M71.6124 28.5164C72.3987 27.9086 72.8976 29.3485 72.0237 29.6519L71.9647 29.6655C71.7815 29.5998 71.7378 29.5718 71.5839 29.4569C71.4616 29.0792 71.4373 28.8867 71.6124 28.5164Z" fill="#FEFEFE"/>
<path d="M71.9648 29.6653L72.0238 29.6517L72.104 29.7275L72.0841 29.7799C72.1079 29.8082 72.1467 29.8035 72.1945 29.8107C72.0808 29.8828 71.8719 29.8673 71.7493 29.8184C71.6671 29.8379 71.9682 29.7502 71.8641 29.7907C71.8229 29.7693 71.8193 29.7649 71.7836 29.7344C71.8207 29.6309 71.793 29.7483 71.9648 29.6653Z" fill="#090909"/>
<path d="M15.4504 29.6151C15.7185 29.586 16.4973 29.5943 16.5232 29.9546C16.4819 30.0608 16.3663 30.1607 16.283 30.2439C16.0886 30.116 15.9533 30.0642 15.7287 30.0109C15.2634 30.1491 14.9938 30.556 15.2465 31.0095C15.3195 31.1432 15.4439 31.2408 15.5906 31.2799C15.8448 31.3476 16.0396 31.2447 16.25 31.1199L16.2635 31.0966L16.3137 31.0866C16.5679 31.2996 16.642 31.4455 16.2856 31.6269C16.0025 31.7712 15.6121 31.7812 15.3149 31.6688C15.0712 31.5778 14.8746 31.3917 14.7696 31.1532C14.6449 30.8705 14.6366 30.5501 14.7464 30.2614C14.8916 29.8908 15.1147 29.7599 15.4504 29.6151Z" fill="#828282"/>
<path d="M0.708008 29.6103C1.23445 29.6067 1.76089 29.6086 2.2873 29.6161L2.28608 30.0591C1.94107 30.0749 1.53629 30.0652 1.1869 30.0655L1.18231 30.476C1.36319 30.4746 2.09643 30.4305 2.17536 30.5254L2.17245 30.9115L1.1889 30.9123L1.18588 31.7242L0.713875 31.7297L0.708008 29.6103Z" fill="#828282"/>
<path d="M17.5534 15.7202C18.795 15.5632 18.4981 17.214 18.4895 18.0417L18.1554 18.0454C18.1463 17.5493 18.181 17.0392 18.1495 16.5459C18.1232 16.134 17.8841 15.9802 17.4931 16.0293C17.3044 16.1244 17.2792 16.1624 17.1332 16.3155C16.9803 16.8574 17.1379 17.474 17.047 18.0071L17.0011 18.0382C16.9212 18.0383 16.8137 18.0516 16.7559 18.0058C16.7226 17.8024 16.7383 17.335 16.7389 17.1103C16.7394 16.6516 16.7366 16.193 16.7308 15.7345C16.8261 15.7325 16.914 15.7266 17.0077 15.7464C17.0838 15.8505 17.0359 15.8556 17.0812 15.9939C17.2339 15.9651 17.2508 15.8187 17.5209 15.7306L17.5534 15.7202Z" fill="#1E1E1E"/>
<path d="M13.2426 20.9612C14.4185 20.9076 14.1228 22.4711 14.1125 23.2887L13.7757 23.291C13.7781 22.9504 13.7768 22.5969 13.784 22.257C13.795 21.7358 13.7789 21.0571 13.0353 21.311C12.435 21.6727 12.7961 22.6823 12.6793 23.2661C12.6055 23.3188 12.4861 23.3076 12.4115 23.2641C12.36 23.1628 12.3556 22.9759 12.3673 22.8629C12.4264 22.2915 12.3113 21.6034 12.3751 21.0445C12.4422 20.9927 12.6158 20.9906 12.6873 21.0346C12.691 21.1282 12.6955 21.1899 12.7071 21.2836C12.855 21.2397 12.865 21.0608 13.2426 20.9612Z" fill="#1E1E1E"/>
<path d="M41.0719 15.7169C42.0264 15.6263 42.033 16.4058 42.004 17.1316C41.9979 17.2881 42.0236 17.9616 41.9575 18.0357C41.6959 18.047 41.7073 18.0854 41.6904 17.855C41.6497 17.3057 41.8058 16.6249 41.5219 16.1334C41.3567 16.0309 41.1563 15.9456 40.9662 16.0478C40.2649 16.3845 40.7564 17.736 40.5431 18.0344C40.4252 18.0432 40.398 18.0389 40.2837 18.0215C40.2475 17.9431 40.2511 15.9995 40.2433 15.7525C40.3521 15.7432 40.4578 15.7185 40.5467 15.7694C40.6003 15.8537 40.5818 15.9963 40.579 16.1037C40.7653 15.8653 40.7855 15.8199 41.0719 15.7169Z" fill="#1E1E1E"/>
<path d="M34.4596 29.6142L36.1862 29.6134L36.1834 30.073L35.5704 30.0802C35.5671 30.6136 35.5748 31.1881 35.5591 31.7179C35.442 31.7176 35.2998 31.7215 35.1852 31.7165L35.1263 31.701C35.0762 31.5875 35.0839 30.4081 35.1188 30.2666C35.1063 30.1984 35.1091 30.1263 35.0554 30.0977C34.9176 30.0248 34.6337 30.0697 34.4701 30.0678C34.4665 29.9185 34.4599 29.7624 34.4596 29.6142Z" fill="#8E8E8E"/>
<path d="M25.8674 29.6112L27.5768 29.6126C27.5812 29.7596 27.5754 29.926 27.5735 30.0747L26.968 30.08C26.9621 30.44 26.9635 30.8081 26.9616 31.169L26.9563 31.7276H26.4981L26.4989 30.0758C26.2983 30.0705 26.0722 30.0767 25.8693 30.0783L25.8674 29.6112Z" fill="#828282"/>
<path d="M23.7736 15.7215C23.9907 15.7034 24.5789 15.7545 24.678 15.9663C24.6669 16.0567 24.5913 16.1362 24.5334 16.2134C24.2225 16.0352 23.5798 15.7867 23.6012 16.3762C23.6121 16.675 24.7452 16.871 24.7509 17.331C24.7573 17.8512 24.3973 18.0191 24.0132 18.0843C23.6529 18.0694 23.4236 17.976 23.1333 17.768C23.1884 17.6872 23.2739 17.5839 23.3358 17.5045C23.6459 17.754 24.1815 18.0099 24.3956 17.5341C24.5816 17.1206 23.3823 16.9606 23.2848 16.5122C23.1833 16.0458 23.3877 15.8664 23.7736 15.7215Z" fill="#1E1E1E"/>
<path d="M27.4949 20.9661C27.8765 20.9622 28.0257 21.0341 28.3337 21.2268C28.2797 21.2892 28.2266 21.3523 28.1743 21.416C28.0389 21.4626 27.4791 21.0674 27.305 21.3288C26.8277 22.046 28.3553 21.8921 28.337 22.6368C28.3234 23.1888 27.9717 23.3254 27.5289 23.3497C27.1669 23.2817 27.054 23.2268 26.7637 23.0208C26.8138 22.947 26.8944 22.8555 26.953 22.7849C27.1321 22.9041 27.4348 23.0907 27.6739 23.0312C28.2219 22.8813 28.1233 22.5809 27.6927 22.3464C27.222 22.0901 27.0214 22.1446 26.8647 21.6041L26.942 21.2795C27.1299 21.0662 27.2234 21.0283 27.4949 20.9661Z" fill="#1E1E1E"/>
<path d="M25.6813 15.7196C26.0533 15.6978 26.2899 15.7437 26.5954 15.9686L26.4559 16.1586C26.3054 16.2291 26.0544 15.9734 25.771 15.9947C25.6872 16.0003 25.6102 16.0436 25.5618 16.1124C25.1312 16.7161 26.5597 16.7037 26.6065 17.2886C26.6505 17.8411 26.4177 17.9916 25.9246 18.0857C25.6647 18.0669 25.2278 18.0278 25.1038 17.7682C25.1055 17.6355 25.1323 17.6398 25.2156 17.5083C25.3781 17.6361 25.5264 17.7495 25.7367 17.7836C25.83 17.802 26.0798 17.7907 26.1482 17.7285C26.7537 17.1779 25.569 17.0499 25.3215 16.7184C25.1446 16.4815 25.1601 16.4611 25.1728 16.1571C25.3263 15.8722 25.3772 15.8297 25.6813 15.7196Z" fill="#1E1E1E"/>
<path d="M98.0468 24.3483C98.603 24.2838 98.9675 24.4531 98.9539 25.0641C98.9473 25.3517 98.9805 25.739 98.9423 26.0078C98.8886 26.0566 98.8707 26.0394 98.7804 26.0389C98.6587 25.9354 98.7616 25.9399 98.6816 25.8292C98.597 25.8805 98.5416 25.9315 98.4672 25.9953C98.2427 26.0403 98.0891 26.0558 97.8816 25.9518C97.5977 25.6705 97.5982 25.458 97.8022 25.1289C97.904 25.0704 98.0255 25.0048 98.1431 24.9858C98.3033 24.9598 98.5898 25.083 98.7251 24.9837C98.7533 24.8872 98.5958 24.5962 98.5256 24.5742C98.3368 24.5147 97.9881 24.6172 97.806 24.5531L97.7911 24.5162C97.8484 24.4287 97.9511 24.3934 98.0468 24.3483Z" fill="#1E1E1E"/>
<path d="M98.3072 25.1521C98.3421 25.1525 98.3767 25.1534 98.4116 25.1548C98.5225 25.1594 98.6036 25.1579 98.6808 25.2418C98.7353 25.333 98.7132 25.45 98.7055 25.5589C98.6075 25.7062 98.5544 25.7872 98.3825 25.8515C97.7413 25.8535 97.7142 25.2428 98.3072 25.1521Z" fill="#FEFEFE"/>
<path d="M94.41 24.3448C95.1887 24.2675 95.3407 24.6 95.2983 25.3266C95.29 25.4701 95.3487 25.9586 95.2538 26.0363C95.1503 26.0396 95.15 26.0585 95.0941 26.0086C95.0946 25.934 95.0982 25.9226 95.0722 25.8543C94.8467 25.8346 94.7066 26.2679 94.1573 25.8876C94.027 25.7143 94.0062 25.4861 94.0585 25.2775C94.1678 24.8399 94.8586 25.093 95.0589 24.9938C95.0991 24.8963 95.0642 24.8647 95.0401 24.7739C94.938 24.3885 94.3829 24.6543 94.1664 24.5643L94.1642 24.5148C94.2107 24.4215 94.3137 24.3894 94.41 24.3448Z" fill="#1E1E1E"/>
<path d="M94.6368 25.1527C94.8029 25.1464 94.915 25.1724 95.0758 25.2021C95.0788 25.3492 95.0625 25.4742 95.0467 25.6194C94.9219 25.7478 94.853 25.8083 94.6822 25.8582C94.1121 25.8132 94.0698 25.2787 94.6368 25.1527Z" fill="#FEFEFE"/>
<path d="M82.3267 28.1467C82.3607 28.1458 82.395 28.1467 82.4288 28.1489C82.7393 28.1678 82.8345 28.2424 83.0304 28.4684C83.0426 28.5145 83.052 28.5614 83.0586 28.6088C83.0811 28.7788 83.1159 29.7372 83.0335 29.8428L82.897 29.8548C82.8146 29.7666 82.9103 29.7433 82.8359 29.6376C82.6098 29.6723 82.3726 30.1274 81.9398 29.6895C81.7607 29.4745 81.7901 29.3469 81.8321 29.0878C82.255 28.5813 82.5993 28.938 82.8198 28.7841C82.8511 28.6773 82.8115 28.601 82.7717 28.5039C82.6139 28.1201 82.0245 28.6077 81.9365 28.3503C81.9996 28.1675 82.1521 28.18 82.3267 28.1467Z" fill="#090909"/>
<path d="M82.3397 28.979C82.565 28.9754 82.6461 28.9873 82.8655 29.0237C82.8583 29.1599 82.8279 29.3257 82.8066 29.463C82.6925 29.554 82.6502 29.5856 82.5226 29.6533C82.3076 29.6913 82.0873 29.6347 82.024 29.3978C82.0002 29.3096 82.0165 29.2151 82.0685 29.1399C82.1429 29.0309 82.221 29.0029 82.3397 28.979Z" fill="#FEFEFE"/>
<path d="M13.005 15.7203C13.0455 15.7168 13.086 15.7142 13.1266 15.7125C13.4879 15.696 13.7004 15.7759 13.9671 16.0194L13.7699 16.26C13.1128 15.7832 12.6494 16.0425 12.5647 16.8258C12.4994 17.4303 12.9709 18.0621 13.5921 17.6809C13.66 17.6198 13.6856 17.5867 13.7735 17.5607C13.8777 17.6002 13.8964 17.6573 13.9759 17.7557C13.864 17.8595 13.7527 17.9494 13.6112 18.0096C13.3668 18.1159 13.0898 18.1184 12.8435 18.0165C11.9747 17.6545 11.9498 16.1198 13.005 15.7203Z" fill="#1E1E1E"/>
<path d="M15.5396 20.961C15.9375 20.9516 16.1058 21.026 16.4094 21.2766C16.3398 21.3513 16.2745 21.433 16.2092 21.5118C14.5938 20.3497 14.6582 23.8495 16.105 22.8701C16.1318 22.8412 16.1688 22.8257 16.2049 22.8057C16.3013 22.8267 16.3555 22.9108 16.4255 22.9895C15.0233 24.4231 13.7179 21.4464 15.5396 20.961Z" fill="#1E1E1E"/>
<path d="M79.3642 24.3399L79.3974 24.3383C79.9902 24.3109 80.2069 24.6899 80.2307 25.2384C80.1083 25.4626 79.1708 25.127 79.0924 25.4378C79.1904 25.7386 79.4345 25.8268 79.7168 25.8498C79.8023 25.8038 80.0143 25.6543 80.0677 25.6526C80.1313 25.7117 80.1142 25.6798 80.1194 25.7841C80.0591 25.9347 79.9207 26.0038 79.7657 26.0221C79.6838 26.0495 79.4979 26.0404 79.4157 26.0221C78.7889 25.882 78.6953 24.9547 79.0941 24.5363C79.1705 24.4562 79.2726 24.3964 79.3642 24.3399Z" fill="#1E1E1E"/>
<path d="M79.7168 25.8502C79.8023 25.8041 80.0143 25.6546 80.0677 25.653C80.1314 25.712 80.1142 25.6801 80.1195 25.7844C80.0591 25.935 79.9208 26.0041 79.7658 26.0224L79.7121 25.9844L79.7558 25.9203L79.7168 25.8502Z" fill="#090909"/>
<path d="M79.5178 24.5389C79.5524 24.5427 79.6922 24.5594 79.714 24.5787C79.8621 24.7094 80.0821 24.8876 79.9667 25.0963C79.8945 25.1289 79.7182 25.114 79.6302 25.1118C79.4666 25.1144 79.3036 25.1209 79.1409 25.1043L79.0975 25.04C79.08 24.8173 79.2978 24.5837 79.5178 24.5389Z" fill="#FEFEFE"/>
<path d="M65.3062 28.1433C65.4191 28.1461 65.4628 28.1281 65.5455 28.1819C65.5461 28.2576 65.5461 28.2837 65.5594 28.3578C65.8087 28.3639 65.9819 27.7786 66.4828 28.4457L66.6691 28.216C67.2417 28.0188 67.5311 28.3281 67.5325 28.9081C67.5331 29.1954 67.5571 29.5463 67.4913 29.8262L67.4177 29.8584C67.1312 29.7202 67.576 27.7636 66.6572 28.4723L66.6337 28.4906C66.3954 29.0199 66.6442 29.53 66.4817 29.8209C66.3993 29.8728 66.4375 29.8625 66.3359 29.8559C66.169 29.6082 66.6035 28.2002 65.8494 28.3714C65.7157 28.4016 65.6338 28.5597 65.5679 28.6695C65.5519 29.0354 65.5632 29.4173 65.5544 29.7843C65.553 29.8354 65.5325 29.8342 65.488 29.8645C65.3886 29.8617 65.4249 29.8759 65.351 29.8134C65.3299 29.766 65.3192 28.3442 65.3062 28.1433Z" fill="#1E1E1E"/>
<path d="M66.0503 24.3256C66.2396 24.3283 66.2377 24.3314 66.2991 24.5163L66.3047 24.5331C66.6464 24.4521 66.7483 24.0211 67.1894 24.6088C67.5741 24.2533 67.8195 24.206 68.202 24.6041C68.2504 24.7863 68.28 25.7983 68.2471 25.9902C68.1716 26.0546 68.2092 26.0379 68.0946 26.0421C68.0863 26.0374 68.0304 26.0055 68.0304 26.0055C67.967 25.6704 68.2659 24.0642 67.3779 24.6517C67.0931 25.1201 67.392 25.8224 67.1836 26.0487C67.1133 26.0668 67.1277 26.0751 67.0776 26.0504C66.8925 25.8379 67.346 24.4328 66.621 24.5538C66.0232 24.6535 66.437 25.7894 66.2396 26.0582C66.1511 26.0748 66.1907 26.0828 66.1162 26.0357C65.9936 25.8435 66.0528 24.6127 66.0503 24.3256Z" fill="#1E1E1E"/>
<path d="M88.6876 25.9991C88.1028 25.9317 88.0037 24.8464 88.4274 24.5158C88.674 24.3234 88.7011 24.3272 89.013 24.338C89.4887 24.5871 89.5167 24.8048 89.5247 25.3078C89.148 25.3139 88.7603 25.3071 88.3831 25.3051C88.5254 25.7487 88.5799 25.7739 89.0174 25.8588C89.1633 25.7711 89.2535 25.6937 89.4215 25.7009L89.4652 25.7248C89.468 26.0108 88.9078 26.0588 88.6876 25.9991Z" fill="#1E1E1E"/>
<path d="M89.0174 25.8585C89.1633 25.7708 89.2535 25.6935 89.4215 25.7007L89.4652 25.7245C89.468 26.0105 88.9078 26.0585 88.6876 25.9988L88.6975 25.9822C88.8019 25.9176 88.832 25.9165 88.9527 25.9045L88.987 25.9012L89.0174 25.8585Z" fill="#090909"/>
<path d="M88.6909 24.5594C88.7747 24.5457 88.943 24.5347 89.0125 24.5793C89.1957 24.6967 89.3728 24.8608 89.2416 25.0855C89.1362 25.1426 89.1196 25.1197 88.9806 25.1147L88.389 25.1205C88.4504 24.8522 88.485 24.7398 88.6909 24.5594Z" fill="#FEFEFE"/>
<path d="M30.3248 15.7216L30.3749 15.7178C30.7839 15.6887 30.9848 15.7509 31.3039 16.0268C31.2289 16.0976 31.163 16.1853 31.0977 16.2661C31.0792 16.2516 31.0606 16.2373 31.0421 16.223C30.042 15.4604 29.3969 17.1043 30.3201 17.755C30.5589 17.8094 30.689 17.8177 30.9034 17.6982C30.9391 17.6721 31.0598 17.5449 31.0977 17.5064L31.3053 17.75C31.1893 17.8691 31.0853 17.9438 30.9322 18.0108C30.694 18.1154 30.4236 18.1182 30.1834 18.0185C29.3736 17.6903 29.3299 16.3029 30.0467 15.8523C30.1311 15.7991 30.2321 15.7591 30.3248 15.7216Z" fill="#1E1E1E"/>
<path d="M87.5878 28.1361C88.2157 28.2451 88.2832 28.5292 88.3187 29.1164C87.9431 29.1205 87.5673 29.1186 87.1918 29.1111C87.2095 29.2118 87.2488 29.3466 87.2756 29.4487C87.5001 29.6254 87.5203 29.6439 87.8023 29.6561L87.9927 29.5613C88.0701 29.5222 88.0934 29.5249 88.1819 29.5294L88.2389 29.5624C88.2359 29.6736 88.1172 29.7543 88.017 29.7771C87.9874 29.7951 87.9403 29.8234 87.9074 29.8323C87.029 30.0686 86.6646 28.9147 87.1926 28.3519C87.3202 28.216 87.4143 28.191 87.5878 28.1361Z" fill="#1E1E1E"/>
<path d="M87.8022 29.6561L87.9926 29.5612C88.0701 29.5221 88.0934 29.5249 88.1819 29.5293L88.2389 29.5623C88.2359 29.6736 88.1172 29.7543 88.017 29.777L87.9412 29.7565L88.0131 29.7038C87.9556 29.6264 87.983 29.7265 87.8022 29.6561Z" fill="#090909"/>
<path d="M87.5344 28.3663C87.8039 28.3421 87.9683 28.4475 88.0746 28.7158C88.1006 28.7809 88.0768 28.8514 88.0436 28.9116C87.9478 28.9687 87.9354 28.9471 87.8045 28.9446L87.1774 28.9427C87.1915 28.8858 87.2061 28.8289 87.2216 28.7723C87.2856 28.5396 87.3354 28.4794 87.5344 28.3663Z" fill="#FEFEFE"/>
<path d="M35.7483 20.9671C36.1266 20.9447 36.3236 21.059 36.6012 21.2771C36.5112 21.3618 36.467 21.4231 36.3922 21.521C36.201 21.3389 35.8839 21.1524 35.6221 21.2959C34.8444 21.722 35.158 23.5483 36.2583 22.9043C36.3183 22.8474 36.3211 22.8417 36.3967 22.8125C36.4938 22.8365 36.5442 22.9246 36.6114 23.0082C36.4249 23.1681 36.3053 23.265 36.061 23.3232C35.8269 23.3789 35.5806 23.3392 35.3755 23.2129C34.8082 22.8607 34.6884 21.975 35.0271 21.4292C35.205 21.1423 35.4331 21.0389 35.7483 20.9671Z" fill="#1E1E1E"/>
<path d="M1.13407 20.1329C1.31848 20.1175 1.58966 20.0489 1.69762 20.2133C1.69986 20.3273 1.72003 20.3334 1.66092 20.4086C1.34585 20.5572 1.12266 20.1464 1.10708 21.0022C1.34494 21.0029 1.54057 20.9671 1.7272 21.1165L1.72108 21.1922C1.56038 21.3281 1.31638 21.2957 1.11234 21.292L1.11129 22.667L1.11215 23.2931L0.785596 23.2943C0.787727 22.6633 0.803667 21.9689 0.778484 21.343C0.713229 21.2344 0.641941 21.347 0.529464 21.245C0.488853 21.161 0.496884 21.1299 0.503074 21.0353C0.555203 20.9868 0.637901 21.0023 0.732131 20.9947C0.956648 20.7773 0.580505 20.5478 1.13407 20.1329Z" fill="#1E1E1E"/>
<path d="M35.2209 15.0896L35.5663 15.0899C35.5568 15.3039 35.5585 15.5409 35.5552 15.7569L36.1427 15.7581L36.1416 16.0497L35.5685 16.0502C35.5621 16.4235 35.4738 17.4817 35.6634 17.7272C35.8065 17.8251 35.9401 17.7794 36.1117 17.7516C36.1258 17.756 36.1529 17.7871 36.1659 17.8001C36.2218 18.0585 35.7677 18.1247 35.5942 18.0681C35.1943 17.9379 35.2289 17.4951 35.2192 17.1851C35.2134 17.0026 35.2555 16.1517 35.2068 16.0663C35.0529 16.034 35.0089 16.0364 34.9411 15.8881C34.9583 15.7941 34.9389 15.8276 35.0172 15.7645C35.1005 15.7568 35.1149 15.7572 35.1924 15.7289C35.2574 15.6399 35.2234 15.2297 35.2209 15.0896Z" fill="#1E1E1E"/>
<path d="M68.7308 28.2073C68.8528 28.2591 68.9486 28.3579 68.9973 28.4813C69.0844 28.6985 69.1531 29.7728 68.9491 29.8874C68.8232 29.8211 68.8287 29.752 68.8066 29.6205C68.5434 29.8932 68.1651 29.9928 67.9047 29.6585C67.8112 29.5379 67.771 29.3839 67.7937 29.2325C67.864 28.7726 68.3433 28.7557 68.7048 28.8322L68.7737 28.8544L68.8105 28.8344C68.8664 28.6594 68.7809 28.5088 68.6561 28.3959L68.6848 28.3823C68.6516 28.329 68.6536 28.3327 68.6444 28.2705L68.7308 28.2073Z" fill="#090909"/>
<path d="M68.6268 28.9818C68.7593 29.0159 68.7352 28.9887 68.8102 29.0803C68.823 29.1749 68.8172 29.3407 68.8318 29.4015C68.66 29.6398 68.3384 29.7832 68.0979 29.5518C68.0345 29.4911 68.0013 29.4054 68.0074 29.3177C68.0182 29.1546 68.1079 29.09 68.223 28.991C68.3486 28.9777 68.4984 28.9815 68.6268 28.9818Z" fill="#FEFEFE"/>
<path d="M68.7309 28.2073C68.8529 28.2591 68.9487 28.3579 68.9974 28.4813C69.0845 28.6985 69.1532 29.7728 68.9492 29.8874C68.8233 29.8211 68.8288 29.752 68.8067 29.6205C68.851 29.5429 68.8377 29.4924 68.8319 29.4014C68.8172 29.3406 68.823 29.1748 68.8103 29.0802C68.7353 28.9887 68.7594 29.0158 68.6268 28.9817L68.6893 28.9548C68.6476 28.9387 68.624 28.9393 68.6058 28.9093L68.7048 28.8322L68.7738 28.8544L68.8106 28.8344C68.8665 28.6594 68.781 28.5088 68.6561 28.3959L68.6849 28.3823C68.6517 28.329 68.6536 28.3327 68.6445 28.2705L68.7309 28.2073Z" fill="#1E1E1E"/>
<path d="M44.2463 30.4295C44.24 30.4434 44.2112 30.4731 44.1996 30.4861C44.0488 30.5324 44.0258 30.3876 43.9793 30.2689C43.8763 30.2445 43.917 30.2414 43.8229 30.2753C43.7839 30.3774 43.7621 30.4406 43.6688 30.4928C43.5232 30.5086 43.4444 30.3984 43.3782 30.4101C43.1975 30.4417 43.0376 30.5718 42.8411 30.5019C42.6972 30.3965 42.7874 30.3613 42.6255 30.2659C42.6421 30.1926 42.7149 30.1488 42.7774 30.0969L42.778 30.067C42.7027 29.9505 42.6747 29.8947 42.7099 29.7485C42.8732 29.5416 43.0262 29.4592 43.2775 29.5932C43.3785 29.753 43.3721 30.1255 43.4081 30.3438C43.4607 30.0789 43.2916 29.7413 43.508 29.5624C43.7565 29.5033 43.7809 29.5918 43.8719 29.7777C43.9201 29.6501 43.922 29.6356 44.0421 29.5907C44.1038 29.6096 44.1954 29.6223 44.2129 29.6731C44.2887 29.8969 44.2242 30.1804 44.2463 30.4295Z" fill="#F7F7F7"/>
<path d="M44.0422 29.5908C44.1039 29.6097 44.1955 29.6224 44.2129 29.6732C44.2887 29.897 44.2242 30.1805 44.2464 30.4296C44.2317 30.4257 44.2171 30.4216 44.2024 30.4171C43.9403 30.3392 44.1703 30.2305 44.0516 30.0102C43.9685 30.0135 43.9658 30.0843 43.8645 30.1675C43.7837 30.1148 43.6918 29.9545 43.6334 29.866C43.6376 30.0357 43.6445 30.2036 43.6323 30.3728L43.5866 30.4085L43.5346 30.3944C43.4624 30.2382 43.4452 29.7437 43.5717 29.6116L43.6218 29.6133C43.7062 29.6785 43.7964 29.859 43.8534 29.9586C43.9766 29.8266 44.0156 29.7661 44.0422 29.5908Z" fill="#828282"/>
<path d="M42.9582 29.6372C43.0614 29.6164 43.2764 29.6552 43.2997 29.7712L43.2435 29.8183C43.1583 29.7748 43.1317 29.7581 43.0357 29.7401C42.9554 29.7814 42.9734 29.7576 42.9391 29.8275C43.0221 29.9781 43.269 29.9381 43.3296 30.1828C43.3091 30.2915 43.2797 30.3154 43.2089 30.3964C43.0263 30.3972 42.8901 30.4294 42.8046 30.2521C42.8799 30.2108 42.9726 30.2957 43.1334 30.279C43.2017 30.2238 43.1823 30.2588 43.192 30.1698C43.0644 30.0189 42.8159 30.0752 42.7977 29.8372C42.8461 29.7232 42.8633 29.7121 42.9582 29.6372Z" fill="#828282"/>
<path d="M84.0373 25.9634C83.3524 25.6137 83.5522 24.3479 84.3334 24.3386C84.4887 24.3353 84.6389 24.3947 84.7502 24.5034C84.9768 24.7283 84.9848 25.018 84.984 25.3093C84.6096 25.3129 84.2246 25.3074 83.8494 25.3058C83.9435 25.6727 83.9617 25.597 84.2011 25.8248L84.1773 25.8977C84.1187 25.921 84.0918 25.9324 84.0373 25.9634Z" fill="#1E1E1E"/>
<path d="M84.2707 24.5374C84.5339 24.5593 84.9172 24.827 84.7008 25.0809C84.6067 25.1403 84.5007 25.1188 84.3831 25.1133L83.8553 25.1195C83.9146 24.8386 83.9699 24.6254 84.2707 24.5374Z" fill="#FEFEFE"/>
<path d="M61.2625 25.9004C60.673 25.4411 60.9592 24.2615 61.7476 24.334C62.2172 24.3772 62.3055 24.9425 62.3302 25.3058C62.0684 25.3142 61.418 25.2595 61.257 25.3424C61.1493 25.4863 61.2941 25.6227 61.397 25.7289C61.3724 25.8588 61.3859 25.8418 61.2625 25.9004Z" fill="#1E1E1E"/>
<path d="M61.4983 24.5594C61.5647 24.5533 61.7025 24.5365 61.7593 24.5627C61.9558 24.6533 62.1442 24.8525 62.0551 25.0767C61.9671 25.1373 61.953 25.115 61.8271 25.1119C61.63 25.115 61.2213 25.1822 61.1718 24.9482C61.2146 24.8222 61.3862 24.6345 61.4983 24.5594Z" fill="#FEFEFE"/>
<path d="M20.1075 20.9859C20.1488 20.9852 20.1861 20.9908 20.2272 20.9952C20.2809 21.0664 20.2815 21.0814 20.2953 21.1703C20.2154 21.405 20.0275 21.3167 19.778 21.4983C19.3095 21.8393 19.561 22.6636 19.5 23.1723C19.4909 23.2488 19.4867 23.2479 19.4366 23.2824C19.3444 23.29 19.2868 23.3019 19.1977 23.2761C19.1508 23.204 19.1698 23.1497 19.171 23.0486C19.1705 22.8542 19.1448 21.0853 19.1817 21.0225C19.3072 20.997 19.3326 21.0009 19.4579 21.0119C19.5339 21.1009 19.4579 21.2256 19.5063 21.4103L19.5327 21.4111C19.5534 21.3731 19.5765 21.3365 19.6018 21.3014C19.7412 21.1101 19.88 21.0212 20.1075 20.9859Z" fill="#1E1E1E"/>
<path d="M10.7275 15.7205L10.7632 15.7442C10.9898 16.2878 10.2477 15.9445 10.0535 16.5608C9.94877 16.8933 10.0414 17.9004 9.94866 18.0269C9.87015 18.0351 9.76734 18.0588 9.7056 18.0199C9.65726 17.9347 9.67428 17.7837 9.67668 17.6774C9.67801 17.0322 9.67552 16.3871 9.66913 15.742C9.77155 15.7386 9.86387 15.7222 9.94836 15.7716C10.0215 15.8723 9.99222 16.0663 9.98934 16.2037C10.2084 15.8926 10.3382 15.7461 10.7275 15.7205Z" fill="#1E1E1E"/>
<path d="M80.3231 27.5261C80.4172 27.5264 80.4415 27.5203 80.5251 27.5569C80.5605 27.6368 80.5284 28.315 80.5257 28.4426C80.7238 28.2184 80.9524 28.0473 81.2579 28.1868C81.6376 28.3602 81.5991 28.8975 81.6016 29.2425C81.6033 29.4189 81.616 29.6894 81.5557 29.8419C81.4713 29.8749 81.5084 29.8727 81.4212 29.8478C81.3194 29.7188 81.3728 28.9729 81.373 28.7693C81.3111 28.2692 80.8182 28.2037 80.5926 28.6267C80.4 28.9876 80.658 29.4578 80.5152 29.8311C80.4346 29.8636 80.4247 29.8569 80.3353 29.8414C80.2852 29.6675 80.3237 27.8257 80.3231 27.5261Z" fill="#1E1E1E"/>
<path d="M58.8568 27.5785L59.301 27.5776C59.2841 28.3188 59.2965 29.111 59.2971 29.8563L58.8626 29.8591L58.8568 27.5785Z" fill="#1E1E1E"/>
<path d="M8.26886 29.6089L8.7389 29.6117C8.74125 30.2274 8.77037 31.1389 8.72971 31.7239L8.28165 31.7314L8.26886 29.6089Z" fill="#828282"/>
<path d="M2.66711 29.61L3.14122 29.6111L3.14072 31.7217C2.99438 31.7192 2.822 31.7289 2.67373 31.7333C2.69338 31.0709 2.68638 30.271 2.66711 29.61Z" fill="#828282"/>
<path d="M80.539 24.3303C80.8822 24.3111 80.6862 24.4484 80.8542 24.515C80.9497 24.4605 81.0144 24.4074 81.1008 24.3401C82.1089 24.2735 81.7644 25.193 81.8408 25.8379C81.8543 25.9508 81.8449 25.9904 81.7749 26.0665C81.5153 26.1366 81.6089 25.1826 81.6105 24.9979C81.5831 24.6824 81.3739 24.4387 81.0443 24.5597C80.5905 24.7262 80.8819 25.7339 80.7626 26.0232C80.686 26.0573 80.6741 26.054 80.5913 26.0351C80.5243 25.9558 80.5567 25.3784 80.5537 25.2339C80.5473 24.9359 80.5454 24.6292 80.539 24.3303Z" fill="#1E1E1E"/>
<path d="M73.0247 28.1416C73.1531 28.1391 73.173 28.1233 73.2408 28.2264C73.2367 28.275 73.2256 28.3208 73.248 28.361C73.5552 28.3407 73.8004 27.7668 74.2802 28.4924C74.3085 28.6888 74.355 29.7135 74.2725 29.8402C74.2069 29.8474 74.1474 29.863 74.0915 29.8316C74.0622 29.6372 74.0777 29.0084 74.0779 28.7693C73.9852 28.2217 73.5342 28.2345 73.2643 28.6617C73.2356 29.055 73.2798 29.4566 73.2547 29.8205L73.2029 29.8566C73.0906 29.8599 73.1296 29.8719 73.0413 29.8239C73.0009 29.4666 73.0277 28.5493 73.0247 28.1416Z" fill="#1E1E1E"/>
<path d="M62.5759 24.3265L62.7176 24.332C62.7937 24.3921 62.7818 24.4214 62.8098 24.5321C62.931 24.5319 63.5152 23.9844 63.7836 24.6467C63.8766 24.8761 63.922 25.8092 63.8345 26.0086C63.7604 26.0422 63.7465 26.0361 63.6621 26.0308C63.6173 25.9584 63.6356 25.0453 63.6353 24.8901C63.5766 24.6231 63.4183 24.5213 63.1496 24.554C62.5308 24.6293 62.9302 25.8069 62.7611 26.0419C62.6609 26.0469 62.678 26.061 62.6044 26.0189C62.5704 25.9434 62.5792 24.5303 62.5759 24.3265Z" fill="#1E1E1E"/>
<path d="M83.5648 28.1429C83.6237 28.1446 83.6564 28.1488 83.7151 28.1574L83.7543 28.2115C83.7593 28.2686 83.7566 28.3116 83.7887 28.3579C83.9099 28.3551 84.0402 28.1862 84.1747 28.1571C84.4534 28.0975 84.7351 28.2547 84.7869 28.5426C84.8295 28.7804 84.8798 29.6854 84.7711 29.8652L84.7157 29.8777C84.5406 29.7587 84.6109 28.9876 84.612 28.7474C84.5691 28.5992 84.5649 28.5316 84.4454 28.4359C84.3253 28.3396 84.3374 28.3596 84.1819 28.3643C83.5061 28.384 83.8933 29.6677 83.7474 29.8472C83.6666 29.858 83.6495 29.8674 83.5817 29.8314C83.5451 29.7556 83.5604 28.3266 83.5648 28.1429Z" fill="#1E1E1E"/>
<path d="M77.1882 28.1485C77.2596 28.146 77.3083 28.148 77.3797 28.1527C77.5524 28.2389 77.7251 28.6068 77.8441 28.7987C78.0137 28.5704 78.1513 28.1208 78.4557 28.1463L78.4812 28.186C78.3804 28.3918 78.1325 28.7313 77.9924 28.9807C78.0934 29.146 78.4986 29.7318 78.4939 29.86L78.3301 29.8577C78.1726 29.7895 77.9803 29.3596 77.8372 29.1646C77.7046 29.3657 77.5588 29.6672 77.4038 29.8403C77.3346 29.871 77.2829 29.8586 77.2068 29.8525L77.1929 29.8272C77.2796 29.5959 77.5367 29.283 77.677 28.9829C77.5743 28.7488 77.217 28.2492 77.1882 28.1485Z" fill="#1E1E1E"/>
<path d="M4.55975 21.0057L4.90164 21.0082C4.89765 21.1318 4.88074 21.3314 4.91428 21.4432C4.99351 21.5631 4.98538 21.5203 4.96836 21.6733L5.01208 21.6817C4.85786 22.0359 4.90767 22.8575 4.90175 23.2912C4.80267 23.2931 4.66281 23.3056 4.58294 23.2586C4.55591 23.1185 4.56584 22.6756 4.5652 22.5057L4.55975 21.0057Z" fill="#1E1E1E"/>
<path d="M33.9445 21.6479C33.6221 22.1879 33.8989 22.8352 33.7599 23.2589C33.6841 23.2931 33.5532 23.3018 33.4782 23.2644C33.4594 23.0825 33.471 22.6586 33.4716 22.4574C33.4738 21.9808 33.4702 21.5041 33.4611 21.0276C33.5197 20.9921 33.6988 21.0007 33.7655 21.0226C33.8297 21.1785 33.7381 21.275 33.8006 21.443L33.8792 21.5174C33.9268 21.5622 33.929 21.583 33.9445 21.6479Z" fill="#1E1E1E"/>
<path d="M11.2954 15.7488C11.4063 15.7455 11.5281 15.7267 11.6176 15.7816C11.6426 15.9221 11.6247 16.333 11.6236 16.503C11.6225 17.0164 11.6184 17.5299 11.6112 18.0433C11.5048 18.045 11.3892 18.0588 11.2957 18.0174C11.2693 17.6401 11.2887 17.1369 11.2846 16.7508C11.2821 16.5026 11.271 15.9807 11.2954 15.7488Z" fill="#1E1E1E"/>
<path d="M75.4005 25.7979C75.431 25.6448 75.47 25.4934 75.5173 25.3446C75.5987 25.0865 75.765 24.3997 75.98 24.2875C76.1336 24.3687 76.0572 24.4883 75.9961 24.6106C75.9219 24.8822 75.6172 25.9305 75.3878 26.0254C75.1111 25.9197 74.8772 24.748 74.6605 24.3531L74.6481 24.3311C74.7419 24.3287 74.7812 24.3307 74.8739 24.3429C74.9923 24.4144 75.3396 25.5835 75.4005 25.7979Z" fill="#1E1E1E"/>
<path d="M36.7338 15.7435C36.8381 15.7401 36.9463 15.7286 37.0437 15.7629C37.0833 15.8566 37.0562 17.8022 37.0517 18.0419C36.9646 18.0439 36.8215 18.0545 36.7529 18.0085C36.6986 17.4813 36.744 16.3412 36.7338 15.7435Z" fill="#1E1E1E"/>
<path d="M31.833 15.7509L32.1706 15.7416L32.1623 18.0404C32.0574 18.042 31.9509 18.0547 31.8576 18.0144C31.8316 17.7834 31.8427 17.4212 31.8427 17.1795C31.8466 16.7033 31.8432 16.227 31.833 15.7509Z" fill="#1E1E1E"/>
<path d="M69.5331 27.6632C69.6169 27.6599 69.6703 27.6466 69.7365 27.6935C69.8012 27.7961 69.7738 28.0041 69.773 28.1434C69.9153 28.1403 70.1535 28.0984 70.1859 28.2746C70.0716 28.4063 69.9335 28.3661 69.7689 28.3578C69.7772 28.6685 69.6573 29.441 69.9097 29.6268C70.003 29.6651 70.065 29.6404 70.1621 29.6179C70.1798 29.6282 70.1917 29.6531 70.2053 29.6737C70.1928 29.8323 70.0655 29.8795 69.9238 29.8648C69.2879 29.7988 69.6335 28.7955 69.5273 28.3841C69.5165 28.3423 69.4113 28.3872 69.3358 28.3004C69.3247 28.2344 69.3145 28.2141 69.3454 28.155C69.4238 28.1509 69.4404 28.152 69.514 28.1287C69.5536 28.0263 69.5356 27.7853 69.5331 27.6632Z" fill="#1E1E1E"/>
<path d="M61.9391 27.5367C62.0421 27.5301 62.0993 27.5217 62.2026 27.5434C62.2654 27.6208 62.2455 27.5958 62.2482 27.7198C62.1085 27.8188 62.0351 27.7109 61.8735 27.8335C61.6823 28.2618 62.1085 28.1017 62.2372 28.1722C62.2698 28.2684 62.2646 28.2274 62.2405 28.3397C62.1691 28.3822 61.9316 28.3591 61.8331 28.3558L61.8265 29.4906C61.8301 29.657 61.8721 29.7887 61.7111 29.8878L61.6674 29.8728C61.5589 29.713 61.6449 28.8371 61.6209 28.5849C61.5835 28.1888 61.5544 28.4637 61.3975 28.3128C61.3843 28.2177 61.3718 28.2335 61.405 28.1591C61.4687 28.1472 61.5234 28.14 61.5879 28.1322C61.6281 28.079 61.6222 27.8579 61.6245 27.7766C61.7376 27.6238 61.772 27.6019 61.9391 27.5367Z" fill="#1E1E1E"/>
<path d="M79.6938 29.8076C78.6228 30.1859 78.2807 28.396 79.2914 28.1594C79.4605 28.1197 79.88 28.1885 79.9055 28.3993C79.8385 28.4717 79.8546 28.4778 79.7757 28.4972C79.7187 28.4603 79.5917 28.3721 79.5344 28.3632C79.1724 28.3072 78.9593 28.5641 78.9355 28.9041C78.9236 29.0731 78.9588 29.3593 79.0728 29.4913C79.1721 29.6067 79.3473 29.6469 79.4931 29.6475H79.5247C79.6495 29.5798 79.7843 29.4764 79.9287 29.5415C79.932 29.6641 79.7998 29.7623 79.6938 29.8076Z" fill="#1E1E1E"/>
<path d="M79.5247 29.6474C79.6495 29.5797 79.7843 29.4763 79.9288 29.5415C79.9321 29.6641 79.7998 29.7623 79.6938 29.8075C79.6421 29.7808 79.6382 29.7501 79.6232 29.6962L79.5247 29.6474Z" fill="#090909"/>
<path d="M69.8433 24.3407C70.0365 24.3286 70.4784 24.3353 70.5149 24.5918C70.4773 24.6492 70.4676 24.6777 70.4034 24.7004C69.6997 24.0431 69.1501 25.4504 69.8383 25.7819C70.0016 25.8607 70.0719 25.8462 70.2351 25.7858L70.3699 25.6867C70.4582 25.6787 70.4228 25.6698 70.4975 25.7206L70.4989 25.7899C70.3611 26.0479 70.0741 26.0767 69.8184 26.0079C69.2442 25.854 69.168 25.0317 69.4813 24.6126C69.5834 24.476 69.6955 24.4215 69.8433 24.3407Z" fill="#1E1E1E"/>
<path d="M82.7014 24.3457C82.9048 24.3279 83.2696 24.3168 83.3656 24.5466C83.3617 24.6503 83.3778 24.6157 83.3158 24.6849C83.1852 24.6869 82.8675 24.3404 82.5996 24.6628C82.2467 25.0874 82.3563 25.8596 83.026 25.8332C83.1185 25.7703 83.2106 25.6887 83.3188 25.6956L83.3772 25.722C83.4135 25.9991 82.9187 26.0823 82.6926 26.0008C82.5537 25.9952 82.348 25.8205 82.2938 25.6951C82.0478 25.1275 82.1765 24.6434 82.7014 24.3457Z" fill="#1E1E1E"/>
<path d="M83.026 25.8332C83.1184 25.7702 83.2106 25.6887 83.3188 25.6956L83.3772 25.722C83.4134 25.9991 82.9186 26.0823 82.6925 26.0007C82.7744 25.8587 82.8688 26.0482 83.0254 25.9294L83.026 25.8332Z" fill="#090909"/>
<path d="M64.1793 28.143C64.261 28.1413 64.3144 28.1316 64.3858 28.1693C64.4461 28.2509 64.4281 28.3904 64.4267 28.5C64.5026 28.3965 64.595 28.3011 64.6824 28.207C64.8153 28.1721 64.8952 28.1366 65.0156 28.2248L65.0195 28.2836C64.8261 28.6328 64.4655 28.2731 64.4278 29.0306C64.4253 29.2586 64.4306 29.488 64.4287 29.716C64.4276 29.8208 64.4367 29.7934 64.3736 29.8547C64.2958 29.8688 64.2936 29.8685 64.2241 29.8347C64.163 29.6355 64.197 28.4644 64.1793 28.143Z" fill="#1E1E1E"/>
<path d="M93.4497 23.7219C93.5377 23.7206 93.5891 23.7109 93.6658 23.7524C93.735 24.0132 93.6816 25.6774 93.6807 26.0413C93.5595 26.0391 93.557 26.0569 93.4627 26.0033C93.4369 25.772 93.4488 25.4214 93.4486 25.1776L93.4497 23.7219Z" fill="#1E1E1E"/>
<path d="M70.6079 28.1465C70.7004 28.1427 70.7483 28.1349 70.8365 28.169C70.8697 28.2556 70.8567 29.6732 70.8581 29.8574C70.7723 29.8571 70.6868 29.8705 70.6251 29.8211C70.5886 29.5487 70.6129 28.5069 70.6079 28.1465Z" fill="#1E1E1E"/>
<path d="M60.1292 28.5276C59.9831 28.8849 60.1295 29.7162 60.002 29.8455C59.899 29.846 59.8904 29.8652 59.829 29.8089C59.8293 29.5018 59.7792 28.4012 59.8279 28.1809C59.8987 28.1418 59.92 28.1496 60.0047 28.1526C60.096 28.2433 60.0075 28.2464 60.0772 28.4109L60.0794 28.4885L60.1292 28.5276Z" fill="#1E1E1E"/>
<path d="M97.0824 24.3369C97.1712 24.3359 97.2407 24.3236 97.314 24.3681C97.3489 24.5611 97.3284 25.7628 97.3273 26.0443C97.2324 26.0473 97.2006 26.0557 97.1142 26.0146C97.0722 25.8865 97.0926 24.5884 97.0824 24.3369Z" fill="#1E1E1E"/>
<path d="M60.8468 28.2461C61.1402 28.3845 61.1133 28.8413 61.1169 29.1215C61.1189 29.2788 61.1385 29.7303 61.0646 29.8563C60.9617 29.8552 60.9993 29.8699 60.9235 29.8027C60.7721 29.4277 61.027 28.8785 60.7489 28.4339C60.7467 28.3729 60.7254 28.3163 60.6703 28.2883L60.6739 28.2719L60.7298 28.2686L60.7207 28.2824C60.7652 28.2672 60.8017 28.2577 60.8468 28.2461Z" fill="#1E1E1E"/>
<path d="M76.4457 24.3357C76.5403 24.3319 76.5672 24.3256 76.6577 24.3553C76.7003 24.4777 76.6776 25.8156 76.6773 26.0453C76.573 26.0408 76.5473 26.0558 76.4653 26.0056C76.4244 25.7032 76.4532 24.7282 76.4457 24.3357Z" fill="#1E1E1E"/>
<path d="M68.6719 24.3367C68.7663 24.3325 68.7909 24.3265 68.8814 24.3554C68.924 24.4779 68.9016 25.8122 68.9013 26.0419C68.7992 26.0394 68.7522 26.051 68.6866 25.9955C68.6445 25.6313 68.6844 24.7801 68.6719 24.3367Z" fill="#1E1E1E"/>
<path d="M96.5707 25.2766C97.0088 26.0037 95.8996 26.2786 95.5648 25.7807C95.5955 25.7319 95.6256 25.6983 95.6624 25.6548C95.8578 25.6442 96.1315 26.0545 96.3936 25.7241C96.4996 25.5907 96.4254 25.4815 96.3316 25.3699C96.3723 25.3509 96.45 25.3544 96.4988 25.3534L96.5707 25.2766Z" fill="#090909"/>
<path d="M71.8433 25.3644C72.128 26.1648 71.0283 26.1518 70.8077 25.8018C70.8049 25.7191 70.7925 25.7552 70.8506 25.6919C71.1736 25.6816 71.364 26.0586 71.685 25.635C71.7032 25.524 71.7763 25.4634 71.8433 25.3644Z" fill="#090909"/>
<path d="M4.91425 21.4433C5.04863 21.2416 5.19984 21.0503 5.44785 21.0005C5.52429 20.9859 5.60122 20.9738 5.67849 20.9644L5.68175 21.304C5.30608 21.3736 5.26285 21.4074 5.01204 21.6817L4.96832 21.6734C4.98534 21.5204 4.99348 21.5632 4.91425 21.4433Z" fill="#1E1E1E"/>
<path d="M70.9555 25.0628C70.5753 24.5919 71.1863 24.1925 71.6166 24.378C71.6933 24.411 71.8258 24.4723 71.8607 24.547L71.8123 24.6084C71.5574 24.6994 71.3551 24.3443 71.0388 24.7129C71.0034 24.8852 70.9519 24.8802 70.9555 25.0628Z" fill="#090909"/>
<path d="M33.8007 21.4432C33.9897 21.1777 34.1203 21.0304 34.4477 20.9745C34.4884 20.9676 34.529 20.9613 34.5697 20.9556C34.5716 21.0705 34.5907 21.18 34.5268 21.266C34.2711 21.4654 34.2385 21.2699 33.9446 21.6481C33.9291 21.5832 33.9269 21.5624 33.8793 21.5176L33.8007 21.4432Z" fill="#1E1E1E"/>
<path d="M95.6688 24.978C95.3362 24.2079 96.6891 24.2025 96.6205 24.5932C96.4027 24.6935 96.0471 24.3589 95.8321 24.7255L95.8171 24.7512L95.8028 24.8452C95.6932 24.8948 95.73 24.8617 95.6688 24.978Z" fill="#090909"/>
<path d="M70.9556 25.0628C70.952 24.8802 71.0034 24.8852 71.0389 24.7129C71.1695 25.149 71.6618 25.0156 71.8433 25.3642C71.7764 25.4632 71.7033 25.5238 71.685 25.6348C71.5511 25.2022 71.2448 25.331 70.9556 25.0628Z" fill="#1E1E1E"/>
<path d="M95.6688 24.978C95.7299 24.8617 95.6931 24.8948 95.8027 24.8452L95.8171 24.7512C95.9992 25.0958 96.238 25.0029 96.5707 25.2769L96.4987 25.3536C96.45 25.3547 96.3722 25.3511 96.3315 25.3701C96.1309 25.2938 95.7963 25.1506 95.6688 24.978Z" fill="#1E1E1E"/>
<path d="M61.397 25.7289L61.4227 25.745C61.6981 25.9159 61.8951 25.7944 62.1702 25.6807C62.2494 25.755 62.2347 25.7198 62.2488 25.8141C62.0855 26.0732 61.5116 26.0757 61.2625 25.9003C61.3859 25.8418 61.3724 25.8587 61.397 25.7289Z" fill="#090909"/>
<path d="M86.2502 30.2679C85.9987 30.3642 85.4037 30.3661 85.2518 30.1104L85.2836 30.0394C85.4867 29.9531 85.6611 30.2216 86.1144 30.1046L86.1431 30.0968L86.173 30.1345L86.1633 30.1556C86.1954 30.2011 86.2143 30.2255 86.2502 30.2679Z" fill="#090909"/>
<path d="M84.2011 25.8247C84.4551 25.848 84.5926 25.8624 84.7811 25.668C84.8716 25.6746 84.837 25.663 84.9117 25.7257L84.9258 25.7822C84.7473 26.0635 84.3151 26.091 84.0372 25.9634C84.0917 25.9323 84.1186 25.9209 84.1773 25.8976L84.2011 25.8247Z" fill="#090909"/>
<path d="M68.6561 28.3962C68.3301 28.2778 68.099 28.4764 67.9546 28.4142L67.9308 28.3407C67.9936 28.0714 68.5294 28.146 68.7308 28.2076L68.6445 28.2708C68.6536 28.3329 68.6517 28.3293 68.6849 28.3826L68.6561 28.3962Z" fill="#090909"/>
<path d="M36.7097 14.9034L37.0722 14.9036L37.0667 15.295L36.7141 15.2979L36.7097 14.9034Z" fill="#1E1E1E"/>
<path d="M31.8156 14.9095L32.1792 14.9123L32.1721 15.3011L31.8214 15.2962L31.8156 14.9095Z" fill="#090909"/>
<path d="M11.2737 14.9065L11.6365 14.9068L11.6305 15.2928C11.539 15.3015 11.3753 15.2993 11.278 15.3011L11.2737 14.9065Z" fill="#1E1E1E"/>
<path d="M60.0773 28.411C60.2657 28.2024 60.5967 28.0024 60.8469 28.2462C60.8018 28.2578 60.7652 28.2673 60.7207 28.2825L60.7298 28.2687L60.6739 28.272L60.6703 28.2884C60.7254 28.3164 60.7467 28.373 60.7489 28.434C60.4927 28.3067 60.3396 28.333 60.1293 28.5277L60.0795 28.4886L60.0773 28.411Z" fill="#090909"/>
<path d="M70.5947 27.575C70.6843 27.5725 70.7469 27.562 70.8288 27.5964C70.8844 27.6688 70.8686 27.7528 70.8673 27.8504C70.7759 27.8538 70.7128 27.8638 70.6273 27.8327C70.575 27.7367 70.5947 27.6968 70.5947 27.575Z" fill="#090909"/>
<path d="M97.0608 23.762C97.1552 23.7597 97.2169 23.7506 97.3057 23.783C97.3599 23.8537 97.3453 23.9357 97.3444 24.0307C97.2517 24.0343 97.2061 24.04 97.1139 24.0166C97.0503 23.9213 97.0696 23.8944 97.0608 23.762Z" fill="#1E1E1E"/>
<path d="M68.6533 23.762C68.7443 23.7608 68.7861 23.7568 68.8766 23.781C68.9303 23.8645 68.9084 23.9203 68.9068 24.0363C68.8157 24.0412 68.7922 24.0418 68.7026 24.0263C68.6353 23.9374 68.6577 23.8937 68.6533 23.762Z" fill="#090909"/>
<path d="M76.431 23.761C76.5218 23.7604 76.563 23.7572 76.6538 23.7794C76.7058 23.864 76.6864 23.8992 76.6859 24.013C76.6073 24.0385 76.545 24.0531 76.4697 24.0234C76.4158 23.9443 76.4299 23.8617 76.431 23.761Z" fill="#090909"/>
</g>
<defs>
<clipPath id="clip0_3220_17456">
<rect width="100" height="32" fill="white"/>
</clipPath>
</defs>
</svg>
