<svg width="96" height="32" viewBox="0 0 96 32" fill="none" xmlns="http://www.w3.org/2000/svg">
<path d="M6.31611 2.54053C6.99133 2.55538 7.71565 2.54385 8.39448 2.54457C8.63317 3.19136 9.04643 4.07047 9.33069 4.72083L10.9014 8.31943C11.1011 8.76756 11.2941 9.2186 11.4804 9.6724C11.5858 9.92365 11.7585 10.3575 11.8927 10.5769C12.0308 10.0919 12.4423 9.16699 12.6516 8.67183C13.0796 7.6596 13.4937 6.62054 13.9457 5.62158C14.0015 5.51323 14.0224 5.33803 14.0752 5.23481C14.5096 4.38421 14.7965 3.38819 15.2264 2.54297L17.2785 2.54518C17.5436 3.08058 17.8502 3.85476 18.0957 4.41842L20.2412 9.35105C20.5455 10.0436 20.8853 10.9003 21.2172 11.5636C20.8054 11.5548 19.6828 11.6218 19.346 11.5486C19.2246 11.4105 18.5896 9.84236 18.4822 9.56924C17.6017 9.58696 16.6808 9.57344 15.7963 9.57402C15.799 9.07315 15.7973 8.57229 15.791 8.07147C16.4803 8.06428 17.1697 8.06421 17.859 8.07122C17.7066 7.64507 17.4408 7.08611 17.2675 6.65601C17.1331 6.32269 16.9477 5.85377 16.7967 5.53739C16.7557 5.40678 16.2886 4.2644 16.2324 4.22625C16.148 4.33806 15.8469 5.2229 15.767 5.42425L14.1967 9.42354L13.6673 10.7699C13.5747 11.0079 13.4745 11.3091 13.3675 11.5343L13.3542 11.562C12.3821 11.5792 11.3922 11.5564 10.4162 11.5652C10.1553 10.9214 9.86198 10.1987 9.57296 9.57266C8.68537 9.58447 7.79371 9.56444 6.90361 9.57867C6.91709 9.13894 6.91545 8.49859 6.89659 8.0669L8.95166 8.07017C8.89878 7.88815 8.72627 7.51963 8.647 7.32788C8.40156 6.7274 8.15305 6.1282 7.90142 5.53028C7.73949 5.14889 7.45981 4.53923 7.36578 4.16468C7.21815 4.46131 7.05151 4.95196 6.92396 5.27503L5.8571 8.03372L4.93625 10.3514C4.80636 10.6798 4.56289 11.2459 4.4756 11.5638C3.86989 11.5842 3.16026 11.5575 2.53821 11.5644C2.7332 11.1525 2.89949 10.7102 3.07705 10.2892L4.3236 7.29918L5.66921 4.09186C5.88065 3.5863 6.1245 3.05021 6.31611 2.54053Z" fill="#1E1E1E"/>
<path d="M32.1356 2.54504C33.1563 2.56561 34.1845 2.53755 35.2057 2.54768C35.5053 2.55067 35.8171 2.54112 36.1135 2.58891C37.7255 2.71751 38.8381 3.76074 38.7026 5.43862C38.6162 6.50696 38.2158 6.94677 37.3581 7.49723C38.1554 8.82619 39.0826 10.2354 39.9197 11.5485L37.934 11.5537C37.6031 10.9429 37.0967 10.1864 36.728 9.57868C36.4422 9.10771 36.0009 8.3516 35.6914 7.91471C35.1107 7.90777 34.4565 7.92582 33.8861 7.90752C33.9105 8.30648 33.8941 8.84754 33.8934 9.25517L33.8871 11.5553C33.4098 11.5552 32.9188 11.5608 32.4428 11.5514L32.1509 11.5561C32.1308 10.3368 32.1593 9.10507 32.1303 7.88982C31.9734 7.93097 30.9522 7.91388 30.7256 7.91456L27.9088 7.92301C27.377 7.92376 26.7564 7.90853 26.2304 7.93409C26.2248 7.4232 26.2228 6.91225 26.2243 6.40133L26.2195 6.33163C26.3618 6.29558 27.6779 6.31292 27.9046 6.31318L32.1351 6.30646C32.1426 5.05268 32.1426 3.79885 32.1356 2.54504Z" fill="#828282"/>
<path d="M33.7332 11.4797C33.7329 11.3476 33.7347 11.2154 33.7382 11.0834L33.7896 11.263L33.8065 11.2484L33.8019 11.2681C33.8095 11.2006 33.7956 9.28208 33.7853 9.25451C33.7518 9.36501 33.7853 10.4799 33.7637 10.7115L33.738 10.7063C33.7317 10.1518 33.708 9.12231 33.7677 8.61049L33.7722 8.65865L33.814 8.41099L33.8135 8.5718C33.8495 8.40024 33.7954 8.02868 33.8861 7.90759C33.9105 8.30655 33.8941 8.84761 33.8934 9.25524L33.8871 11.5554C33.4098 11.5553 32.9188 11.5609 32.4428 11.5515C32.4959 11.516 33.5549 11.5082 33.7332 11.4797Z" fill="#8E8E8E"/>
<path d="M33.8963 4.03831C34.5476 4.02672 35.1988 4.02805 35.8501 4.04233C36.1122 4.05548 36.455 4.19195 36.6431 4.3617C37.1095 4.78246 37.1334 5.53598 36.6524 5.95585C36.1719 6.37522 35.4957 6.32077 34.9125 6.31866L33.8848 6.31368C33.9019 6.22638 33.8938 5.68532 33.8933 5.57225C33.8916 5.06093 33.8926 4.54961 33.8963 4.03831Z" fill="#FEFEFE"/>
<path d="M78.3913 10.6068L78.3676 10.5702C78.4819 10.4529 79.0113 10.5086 79.1843 10.5152C79.1148 10.504 79.0559 10.5042 79.0063 10.4589C79.0307 10.447 80.236 10.4771 80.3027 10.4991C80.3412 10.5118 80.3918 10.5265 80.4117 10.5652C80.4767 10.6928 80.5235 18.8868 80.4334 19.5657C80.3893 19.6077 80.2841 19.625 80.2302 19.6201C80.0063 19.6001 78.7859 19.6622 78.6789 19.5852C78.6026 19.4478 78.313 19.0962 78.2022 18.9518C77.8886 18.5441 77.5776 18.1348 77.2684 17.7239L75.399 15.2603C75.0742 14.8292 74.6954 14.2847 74.3607 13.8827C74.3396 14.5943 74.3519 15.3375 74.3527 16.0519L74.3552 19.569L72.3972 19.5697C72.3735 16.5878 72.4355 13.5658 72.3904 10.5895L74.2106 10.5866C74.6468 11.1191 75.0971 11.7439 75.5181 12.2976L78.4021 16.1093C78.4386 15.105 78.3938 13.9444 78.4056 12.9248C78.4122 12.3643 78.4401 11.1289 78.3913 10.6068Z" fill="#828282"/>
<path d="M78.3913 10.6068L78.3676 10.5702C78.4819 10.4529 79.0113 10.5086 79.1843 10.5152C79.1148 10.504 79.0559 10.5042 79.0063 10.4589C79.0307 10.447 80.236 10.4771 80.3027 10.4991C80.3412 10.5118 80.3918 10.5265 80.4117 10.5652C80.4767 10.6928 80.5235 18.8868 80.4334 19.5657C80.3893 19.6077 80.2841 19.625 80.2302 19.6201C80.0063 19.6001 78.7859 19.6622 78.6789 19.5852C78.8297 19.5465 80.1128 19.5644 80.3573 19.5658L80.3599 10.5913C80.0886 10.5843 78.5248 10.5632 78.3913 10.6068Z" fill="#F7F7F7"/>
<path d="M59.6603 10.4452C61.1816 10.3706 62.3607 10.6988 63.5133 11.686C63.3957 11.782 63.1731 12.0662 63.0663 12.196L62.2574 13.1887C61.8157 12.8089 61.4428 12.561 60.8777 12.3844C58.3193 11.5845 56.4802 14.403 57.7091 16.6019C58.0415 17.1904 58.5948 17.623 59.2468 17.8043C60.2123 18.0675 61.0519 17.8878 61.9041 17.4042C61.9165 16.9939 61.9046 16.5269 61.9034 16.1123L59.9129 16.1134L59.9096 14.4081C60.238 14.417 60.6059 14.4097 60.9371 14.4093L63.812 14.4045L63.8138 18.3141C62.8047 19.1235 61.9782 19.5076 60.6467 19.6818C56.2581 20.2557 53.6999 15.6304 56.2754 12.1517C57.0657 11.0844 58.3218 10.5844 59.6603 10.4452Z" fill="#828282"/>
<path d="M84.8351 10.5748C84.8508 10.5611 84.8699 10.5444 84.8921 10.5248C85.1215 10.525 85.4219 10.5212 85.6445 10.519C85.5126 10.4864 85.3287 10.537 85.2217 10.488C85.3217 10.4644 85.6236 10.4745 85.7412 10.4682C86.2532 10.4407 86.7534 10.4704 87.2615 10.4712L89.4175 10.4865C89.8108 10.4871 90.3352 10.4588 90.7069 10.4936L90.3576 10.5103C90.728 10.5237 91.0844 10.5207 91.4548 10.518C91.3589 10.5024 91.2176 10.5031 91.1163 10.5005L91.1171 10.4885C91.2878 10.472 91.4561 10.46 91.6192 10.5207C91.6704 10.599 91.6729 12.2102 91.6326 12.3397L86.8065 12.3453L86.8062 14.1984C88.2019 14.1832 89.63 14.1989 91.0274 14.2008C91.0347 14.7853 91.0347 15.3698 91.0274 15.9543L86.8095 15.9574L86.8077 17.7979L91.6668 17.7993L91.6648 19.5695L84.8508 19.5689L84.8515 13.7666C84.8518 12.7802 84.887 11.538 84.8351 10.5748Z" fill="#828282"/>
<path d="M84.8351 10.5748C84.8508 10.5611 84.8699 10.5444 84.8921 10.5248C85.1215 10.525 85.4219 10.5212 85.6445 10.519C85.5126 10.4864 85.3287 10.537 85.2217 10.488C85.3217 10.4644 85.6236 10.4745 85.7412 10.4682C86.2532 10.4407 86.7533 10.4704 87.2615 10.4712L89.4175 10.4865C89.8108 10.4871 90.3351 10.4588 90.7069 10.4936L90.3576 10.5103C90.728 10.5237 91.0844 10.5207 91.4548 10.518C91.3589 10.5024 91.2176 10.5031 91.1163 10.5005L91.1171 10.4885C91.2878 10.472 91.4561 10.46 91.6192 10.5207C91.6704 10.599 91.6729 12.2102 91.6326 12.3397C91.5941 12.1704 91.6127 10.846 91.6137 10.5918L86.7974 10.5854L85.5675 10.5919C85.3768 10.593 85.0079 10.6019 84.8351 10.5748Z" fill="#F7F7F7"/>
<path d="M64.7133 10.5899L71.4853 10.5864L71.489 12.3451L66.6859 12.3471L66.6864 14.1977L70.903 14.2003C70.8945 14.7755 70.9078 15.3756 70.9096 15.9539L67.1321 15.9559L66.6874 15.9534C66.6801 16.5648 66.6859 17.1858 66.6861 17.798L71.558 17.7992C71.5694 18.3779 71.5596 18.9863 71.5591 19.5673L64.7213 19.5696L64.7231 14.0181C64.7218 12.9178 64.749 11.6804 64.7133 10.5899Z" fill="#828282"/>
<path d="M69.0415 2.43951C70.8008 2.32693 72.3196 3.65684 72.437 5.41269C72.5543 7.16854 71.2259 8.68795 69.4671 8.80951C67.702 8.93153 66.1731 7.59965 66.0553 5.83744C65.9377 4.0752 67.2759 2.5525 69.0415 2.43951Z" fill="#1E1E1E"/>
<path d="M68.8037 2.93221C70.2978 2.6878 71.7061 3.70235 71.9441 5.19461C72.1823 6.68687 71.1596 8.08801 69.6637 8.31909C68.1772 8.54875 66.784 7.53576 66.5473 6.05288C66.3108 4.57002 67.3194 3.17509 68.8037 2.93221Z" fill="#FEFEFE"/>
<path d="M25.969 2.34915C26.0543 2.34332 26.14 2.34156 26.2256 2.34389C27.7026 2.37797 28.7809 2.92063 29.785 3.96849C29.3584 4.29766 28.8847 4.71758 28.4596 5.06732C27.9134 4.52116 27.4241 4.18947 26.6388 4.06723C25.8851 3.95119 25.116 4.1355 24.4972 4.58043C23.1096 5.59694 22.8598 7.53929 23.8763 8.91009C24.3411 9.53256 25.0374 9.94193 25.8081 10.0457C26.8209 10.1915 27.5983 9.767 28.3717 9.18642L28.4258 9.18725C28.5795 9.28315 29.5402 10.1166 29.6842 10.2694C28.9351 11.0923 27.9098 11.6129 26.8023 11.7327C25.5134 11.883 24.218 11.5097 23.2076 10.6967C22.2477 9.91616 21.6348 8.78922 21.502 7.56045C21.3621 6.31623 21.7292 5.06807 22.5206 4.09671C23.4402 2.96779 24.5564 2.49449 25.969 2.34915Z" fill="#1E1E1E"/>
<path d="M60.8341 2.4848L62.3874 2.48361C63.256 2.48343 64.2573 2.4056 65.0135 2.90601C66.0511 3.59272 65.9523 5.21818 64.846 5.78488C64.5033 5.96049 64.2897 6.01456 63.9097 6.08125C64.5806 6.97207 65.2815 7.86295 65.9632 8.74718C65.7894 8.74605 65.6139 8.77282 65.4419 8.74929C65.3283 8.73376 65.3238 8.69877 65.2608 8.61496C64.6196 7.8137 64.0054 6.96388 63.36 6.16028C62.6984 6.18117 61.9817 6.16305 61.3108 6.17265L61.3083 8.74924L60.8371 8.75138C60.8409 6.69423 60.8769 4.53613 60.8341 2.4848Z" fill="#1E1E1E"/>
<path d="M63.2761 2.92847C63.8457 2.92904 64.4587 2.96839 64.8717 3.36837C65.6249 4.09769 65.2426 5.28166 64.2824 5.59145C63.8951 5.71641 63.7266 5.7232 63.3463 5.72674C62.6742 5.73783 61.9774 5.73041 61.3035 5.73165C61.3284 4.82343 61.312 3.84689 61.3128 2.93357L63.2761 2.92847Z" fill="#FEFEFE"/>
<path d="M81.6427 10.5847L83.6214 10.5885V16.5249C83.6219 17.4683 83.6622 18.6486 83.6193 19.5682L81.6422 19.5732L81.6427 10.5847Z" fill="#828282"/>
<path d="M55.7534 2.48545L57.1561 2.4843C58.0501 2.48281 59.0201 2.42981 59.756 3.03637C60.5102 3.65812 60.5462 4.92055 59.9131 5.63767C59.4178 6.19917 58.7255 6.35391 58.0151 6.40082L56.2218 6.40263L56.2187 8.74806L55.7692 8.75042C55.6954 6.7087 55.8115 4.53788 55.7534 2.48545Z" fill="#1E1E1E"/>
<path d="M56.2199 2.93202L57.4003 2.92722C57.6813 2.92636 57.9571 2.93157 58.2379 2.93579C59.6643 2.95723 60.4784 4.40155 59.3991 5.50574C58.5454 6.13466 57.2545 5.96699 56.2187 5.96747L56.2199 2.93202Z" fill="#FEFEFE"/>
<path d="M56.1848 2.79784C56.4552 2.78145 56.7899 2.81558 57.0654 2.82607C57.3162 2.83562 57.5703 2.83672 57.8194 2.85193C57.5912 2.8559 56.384 2.88489 56.2283 2.85015C56.2162 2.82539 56.2049 2.81606 56.1848 2.79784Z" fill="#1E1E1E"/>
<path d="M76.8305 2.48401C78.3145 2.50523 79.8157 2.47201 81.304 2.49203C81.303 2.63287 81.2919 2.79302 81.2854 2.93525C79.9655 2.91803 78.6202 2.93128 77.2989 2.93271C77.3175 3.72238 77.2986 4.59279 77.2981 5.38904C78.2148 5.37047 79.1367 5.38952 80.0539 5.38047C80.3347 5.37768 80.6205 5.37839 80.9011 5.39138L80.9031 5.80808L77.9546 5.80912L77.3004 5.80927L77.2974 8.32621C78.6278 8.32475 80.0184 8.30069 81.3418 8.32611L81.3456 8.75098L76.8358 8.75095C76.8045 6.67472 76.8667 4.56438 76.8305 2.48401Z" fill="#1E1E1E"/>
<path d="M84.611 2.42514C84.6805 2.42123 84.75 2.41872 84.8195 2.4176C85.7911 2.4043 86.6053 2.76058 87.294 3.43192C87.183 3.53423 87.0586 3.66628 86.9505 3.77503C86.8289 3.66216 86.6879 3.52798 86.5574 3.428C85.9664 2.97234 85.2169 2.77244 84.4768 2.87309C83.7943 2.97324 83.1781 3.33562 82.7595 3.88292C81.8426 5.10332 82.066 6.97746 83.3058 7.89443C84.0197 8.42259 84.6699 8.45049 85.51 8.3277C85.6153 8.28207 85.7611 8.25339 85.888 8.20128C86.3592 8.00775 86.6549 7.75748 87.0132 7.41149C87.1102 7.52486 87.2104 7.63541 87.3139 7.74303C86.187 8.98359 84.2471 9.21701 82.9051 8.17926C81.5288 7.11484 81.3314 4.94661 82.3946 3.5969C82.9819 2.85125 83.6825 2.53653 84.611 2.42514Z" fill="#1E1E1E"/>
<path d="M2.34326 13.7553L29.1478 13.7595L36.5572 13.7615C37.8239 13.7607 39.2422 13.7284 40.4971 13.7617C40.5575 13.8153 40.5384 13.7958 40.5548 13.8954L12.3573 13.8944L5.77679 13.8946C4.66314 13.8947 3.50275 13.9131 2.39248 13.8934C2.34206 13.8467 2.35724 13.8426 2.34326 13.7553Z" fill="#090909"/>
<path d="M87.1863 2.48157C88.7771 2.5112 90.444 2.48659 92.0418 2.48885L92.0361 2.93295L89.8476 2.9337C89.8371 4.13854 89.8338 5.34341 89.8383 6.54827L89.8401 8.74911L89.3767 8.75056C89.4021 6.83024 89.3797 4.85737 89.3815 2.93189L87.2021 2.93064L87.1863 2.48157Z" fill="#1E1E1E"/>
<path d="M2.33771 25.9943C3.39123 25.9765 4.50097 25.9961 5.56033 25.9961H12.1845L32.358 25.9986H38.6127C38.8159 25.9983 40.4672 25.9792 40.5372 26.0212L40.5581 26.1122L15.2973 26.114L6.64812 26.1142C5.26057 26.1142 3.79018 26.1429 2.41393 26.1157C2.34069 26.071 2.36388 26.0974 2.33771 25.9943Z" fill="#090909"/>
<path d="M75.5252 2.48401L76.0004 2.48875C75.9666 3.52896 76.0044 4.57367 75.9903 5.62148C75.9765 6.5673 76.1469 7.78818 75.2887 8.45525C74.4451 9.11076 73.1622 8.87316 72.5097 8.06653C72.4191 7.94066 72.3141 7.80183 72.233 7.67139C72.3365 7.59226 72.4949 7.46936 72.6178 7.43794C72.7621 7.53442 72.9452 7.89449 73.1008 8.02331C73.9361 8.73885 75.2711 8.4085 75.473 7.26595C75.565 6.7448 75.5259 6.07325 75.5264 5.53684L75.5252 2.48401Z" fill="#1E1E1E"/>
<path d="M55.3384 21.9294C55.5602 21.907 55.9994 21.9193 56.2389 21.9191L57.894 21.9188L63.3315 21.9187L81.0006 21.9185L88.9892 21.9186L91.0756 21.9185C91.3239 21.9184 91.6044 21.9134 91.854 21.9193C91.918 21.9208 91.9215 21.9461 91.9552 21.9941C91.8001 22.068 86.4978 22.0251 85.901 22.0251L62.7694 22.0257L57.1601 22.0236C56.6391 22.0232 55.9717 22.0227 55.4358 22.0259C55.3875 22.0261 55.3658 21.9716 55.3384 21.9294Z" fill="#090909"/>
<path d="M55.3333 30.7268C55.5073 30.6964 56.1666 30.7089 56.3777 30.7089L58.4875 30.7099L66.3353 30.7102L85.6627 30.7104L90.0949 30.7097C90.3128 30.7092 91.7691 30.6921 91.9109 30.727L91.9456 30.8077C91.3747 30.8495 90.2581 30.8143 89.6532 30.8138L85.1303 30.813L70.7769 30.8133L60.2274 30.8135L56.9473 30.811C56.5786 30.8107 55.7299 30.8417 55.3955 30.8052L55.3333 30.7268Z" fill="#1E1E1E"/>
<path d="M22.0111 20.314C22.4408 20.3115 22.9098 20.28 23.3276 20.3764C24.0683 20.5474 24.1413 21.5218 23.5108 21.8814C23.4401 21.9218 23.3491 21.9427 23.3043 22.0029C23.3624 22.1411 23.8927 22.911 24.0195 23.1066C23.9097 23.1087 23.7208 23.1213 23.6219 23.0926C23.4228 22.7315 23.1563 22.3953 22.9624 22.0345L22.3302 22.0357L22.3312 23.1071L22.0129 23.1098L22.0111 20.314Z" fill="#1E1E1E"/>
<path d="M22.3329 20.6062L22.792 20.6055C23.1258 20.6061 23.3138 20.6319 23.5495 20.8675C23.6383 21.1353 23.6567 21.3253 23.4737 21.559C23.1904 21.8244 22.7103 21.7564 22.3298 21.751L22.3329 20.6062Z" fill="#FEFEFE"/>
<path d="M27.3641 16.2469C28.7199 16.0935 28.8431 18.1194 27.7282 18.3728C26.5076 18.6448 26.149 16.5781 27.3641 16.2469Z" fill="#1E1E1E"/>
<path d="M27.4064 16.5215C28.2639 16.4344 28.4382 17.7008 27.7464 18.0883C26.8761 18.333 26.5943 16.8991 27.4064 16.5215Z" fill="#FEFEFE"/>
<path d="M4.59416 21.0002C5.78381 20.881 6.11159 22.7931 4.83997 23.159C3.68434 23.3195 3.30269 21.303 4.59416 21.0002Z" fill="#1E1E1E"/>
<path d="M4.61546 21.2677C5.40246 21.2482 5.55011 22.2686 5.07825 22.7364C5.02234 22.7918 4.90985 22.8424 4.83765 22.877C4.7103 22.8793 4.60851 22.8894 4.4938 22.8266C3.91486 22.5098 3.95382 21.4699 4.61546 21.2677Z" fill="#FEFEFE"/>
<path d="M36.9899 16.2469C37.9836 16.1102 38.3757 17.2464 37.9469 17.9608C37.8237 18.1677 37.6213 18.3155 37.3863 18.3701C36.177 18.6181 35.7894 16.6832 36.9899 16.2469Z" fill="#1E1E1E"/>
<path d="M37.0453 16.5196C37.9816 16.4407 38.0491 17.7858 37.3503 18.1195C36.4689 18.2439 36.2618 16.8924 37.0453 16.5196Z" fill="#FEFEFE"/>
<path d="M28.2201 28.8033C28.7708 28.787 29.2297 29.2211 29.2433 29.7708C29.2566 30.3206 28.8194 30.7766 28.2684 30.7869C27.7217 30.7975 27.2691 30.3648 27.2558 29.8191C27.2424 29.2734 27.6733 28.8194 28.2201 28.8033Z" fill="#828282"/>
<path d="M28.1186 29.2392C28.2619 29.2058 28.4125 29.2284 28.5392 29.3028C28.7381 29.4197 28.8469 29.6444 28.8152 29.8727C28.7835 30.1007 28.6172 30.2872 28.3941 30.3455C28.1919 30.3983 27.9768 30.3364 27.8335 30.1846C27.7016 30.0443 27.6492 29.8473 27.6945 29.6602C27.7452 29.4514 27.9091 29.2885 28.1186 29.2392Z" fill="#FEFEFE"/>
<path d="M48.2994 2.57568L48.3848 2.61419C48.4069 2.65092 48.4109 2.65713 48.4112 2.70104L48.4044 30.7441L48.3147 30.7224C48.2609 30.6277 48.2943 26.9548 48.2943 26.5609L48.2941 10.6697L48.2938 5.40973C48.2938 4.4901 48.275 3.49023 48.2994 2.57568Z" fill="#090909"/>
<path d="M7.41187 28.8346C7.90087 28.8346 8.43322 28.7562 8.82711 29.0747C9.01656 29.2267 9.1353 29.4497 9.15565 29.6915C9.18121 29.9811 9.08028 30.2375 8.89714 30.4582C8.53423 30.8257 7.89858 30.7533 7.41756 30.7541C7.42126 30.1339 7.43131 29.4515 7.41187 28.8346Z" fill="#828282"/>
<path d="M7.87948 29.2422C8.10779 29.2392 8.2203 29.2387 8.44423 29.2877C8.76459 29.5569 8.82515 29.9026 8.53673 30.2259C8.27614 30.3701 8.15213 30.348 7.85787 30.3445C7.8554 30.0464 7.84291 29.5258 7.87948 29.2422Z" fill="#FEFEFE"/>
<path d="M3.50168 15.5486C3.60442 15.5486 3.6765 15.5521 3.77884 15.5614C3.90322 15.6482 4.75069 18.0321 4.89269 18.354L4.54486 18.3544C4.46952 18.109 4.3671 17.8713 4.28689 17.625L3.88451 17.6269L3.0307 17.6262C2.98013 17.8167 2.84661 18.1798 2.76147 18.3547L2.45837 18.3555C2.64492 17.7289 2.98016 16.9978 3.20046 16.368C3.29638 16.0937 3.43061 15.837 3.50168 15.5486Z" fill="#1E1E1E"/>
<path d="M3.63549 15.9779C3.77201 16.0933 4.03935 17.063 4.19665 17.3441C4.03139 17.3378 3.85879 17.3377 3.69286 17.3352C3.51222 17.3398 3.33153 17.3392 3.15094 17.3334C3.30383 16.9228 3.51403 16.3893 3.63549 15.9779Z" fill="#FEFEFE"/>
<path d="M21.4219 15.5475L21.6983 15.5487C22.0909 16.3554 22.427 17.5047 22.7877 18.3536L22.4699 18.3528C22.3711 18.1564 22.2602 17.8331 22.1854 17.6242L21.7193 17.6272L20.9542 17.626C20.8512 17.852 20.7582 18.1167 20.67 18.3517C20.5755 18.3533 20.463 18.3665 20.3816 18.3287C20.4082 18.1679 20.6759 17.481 20.7447 17.3019C20.964 16.7146 21.1897 16.1298 21.4219 15.5475Z" fill="#1E1E1E"/>
<path d="M21.5485 16.0043C21.6653 16.1171 21.9926 17.1296 22.0763 17.3418L21.6387 17.3386L21.031 17.3335C21.1247 17.1759 21.4687 16.2202 21.5485 16.0043Z" fill="#FEFEFE"/>
<path d="M19.4309 28.8334C20.0391 28.8311 21.1489 28.6785 20.9962 29.6398C20.9618 29.8562 20.7835 29.9731 20.6142 30.0835C20.7255 30.2491 21.0024 30.5442 20.9958 30.7127C20.94 30.7612 20.9139 30.7463 20.8257 30.7511C20.3545 30.768 20.5114 30.5083 20.2696 30.2735C19.7762 29.7944 19.8526 30.5344 19.8492 30.7496L19.4433 30.7549C19.4423 30.1219 19.4498 29.4643 19.4309 28.8334Z" fill="#828282"/>
<path d="M19.8612 29.2433C20.2282 29.2356 20.7247 29.1599 20.5127 29.7099C20.3291 29.7662 20.051 29.7474 19.8551 29.7428C19.8504 29.5822 19.8578 29.405 19.8612 29.2433Z" fill="#FEFEFE"/>
<path d="M39.0597 28.8372C39.7716 28.8306 41.0668 28.7251 40.5065 29.901C40.4312 29.9492 40.3576 30.0003 40.2859 30.0538C40.2675 30.2899 40.6548 30.4879 40.6394 30.7071C40.5765 30.7647 40.5573 30.7449 40.4506 30.7471L40.2624 30.7514C40.068 30.6745 40.0146 30.3751 39.8515 30.229C39.7253 30.1162 39.6653 30.1353 39.4941 30.1413C39.4896 30.3427 39.4838 30.544 39.4765 30.7451L39.0615 30.7509L39.0597 28.8372Z" fill="#8E8E8E"/>
<path d="M39.4979 29.2403C39.7991 29.2398 40.4616 29.188 40.1234 29.7106C39.9882 29.7651 39.6467 29.7455 39.4893 29.7435C39.486 29.5696 39.4911 29.4135 39.4979 29.2403Z" fill="#FEFEFE"/>
<path d="M15.6427 16.2485C16.8301 16.1699 16.6271 17.0344 16.6426 17.8722C16.6447 17.9885 16.6713 18.2625 16.6043 18.3434C16.5207 18.3508 16.4307 18.3702 16.3599 18.3353C16.3596 18.2484 16.3613 18.1987 16.3447 18.1116C16.2845 18.1158 16.213 18.224 16.1523 18.2656C15.8581 18.467 15.3797 18.4302 15.1581 18.1395C14.9988 17.8874 14.9944 17.5623 15.1626 17.3078C15.3097 17.0852 15.6885 17.0443 15.9294 17.0688C16.0381 17.0799 16.2089 17.1342 16.3132 17.1157C16.3818 16.9967 16.3099 16.7602 16.2105 16.6629C15.9274 16.3856 15.6147 16.6122 15.3103 16.6136C15.234 16.5789 15.2403 16.5858 15.2042 16.4993C15.1386 16.3421 15.537 16.2756 15.6427 16.2485Z" fill="#1E1E1E"/>
<path d="M15.7661 17.2956C16.5996 17.1915 16.4783 17.9237 15.9271 18.136C15.7923 18.1515 15.684 18.1608 15.5613 18.0917C15.4612 18.0356 15.3883 17.941 15.3595 17.83C15.3307 17.7165 15.3511 17.5962 15.4156 17.4985C15.5075 17.3604 15.6127 17.3242 15.7661 17.2956Z" fill="#FEFEFE"/>
<path d="M11.6707 21.0222C12.9137 20.7109 12.6655 22.4002 12.6626 23.1105C12.5659 23.1148 12.4661 23.1299 12.3795 23.0949C12.3773 23.0113 12.3756 22.963 12.3622 22.8784C12.1149 22.9056 11.9054 23.4916 11.2545 22.973C10.7459 22.4009 11.2896 21.6307 12.0042 21.8282C12.1485 21.868 12.285 21.9331 12.3792 21.8223C12.4412 21.6014 12.1888 21.3767 12.0142 21.2818C11.6675 21.277 11.6414 21.2894 11.314 21.4014L11.1973 21.1885C11.3761 21.0855 11.4661 21.0456 11.6707 21.0222Z" fill="#1E1E1E"/>
<path d="M11.6519 22.0772C11.9206 22.0452 12.1126 22.0581 12.3689 22.1406C12.3642 22.5016 12.368 22.6697 12.0298 22.8509C11.8711 22.9796 11.5602 22.8917 11.4436 22.7097C11.3748 22.6042 11.3558 22.4739 11.3917 22.3532C11.4334 22.2124 11.533 22.1449 11.6519 22.0772Z" fill="#FEFEFE"/>
<path d="M6.78991 16.5893C7.12346 16.2002 7.57243 16.0427 7.93534 16.4815C8.15766 16.7502 8.12719 17.9656 8.06703 18.3157C8.02635 18.3641 8.00719 18.3673 7.94758 18.3942C7.54402 18.2944 8.15678 16.5272 7.38355 16.5103C6.7714 16.497 6.8707 17.2719 6.87445 17.6907L6.86853 18.3507L6.5577 18.3525C6.56001 18.0113 6.66178 16.8264 6.38131 16.5802C6.14452 16.3724 5.84599 16.5991 5.67414 16.8318C5.63476 17.1327 5.67674 18.2177 5.61252 18.328C5.54385 18.3455 5.40574 18.3676 5.34908 18.3195C5.3377 17.8673 5.34764 17.4017 5.34319 16.9486C5.342 16.829 5.33505 16.3792 5.35369 16.2818C5.45487 16.2272 5.49811 16.2251 5.59467 16.2734C5.66588 16.3785 5.60965 16.4498 5.66128 16.5198C5.83547 16.3906 5.85007 16.3138 6.05575 16.2438C6.39297 16.2119 6.61083 16.2861 6.78991 16.5893Z" fill="#1E1E1E"/>
<path d="M32.435 16.2473C33.375 16.1718 33.4229 16.8376 33.3786 17.5819C33.3647 17.8131 33.4101 18.0942 33.3657 18.3235L33.328 18.3463C33.2179 18.3487 33.1799 18.3699 33.1046 18.317C33.0865 18.2341 33.0877 18.2023 33.0875 18.117C33.0504 18.0957 33.0618 18.0887 33.0303 18.1218C32.7074 18.4622 32.2861 18.5081 31.9313 18.1596C31.5893 17.6439 31.9096 17.0094 32.5365 17.0611C32.717 17.076 32.8908 17.1169 33.059 17.1268C33.1142 17.0461 33.0449 16.8175 33.0217 16.7208C32.7105 16.4127 32.4178 16.5014 32.0519 16.6546C32.0066 16.5784 31.9582 16.4833 31.9154 16.404C32.1446 16.3189 32.1977 16.299 32.435 16.2473Z" fill="#1E1E1E"/>
<path d="M32.4718 17.2997C33.0711 17.221 33.1565 17.3682 33.0168 17.9037C32.9007 18.0311 32.8309 18.0767 32.6682 18.1287C32.1212 18.3338 31.786 17.4408 32.4718 17.2997Z" fill="#FEFEFE"/>
<path d="M30.9169 21.0239C30.9789 21.0079 31.0884 21.0151 31.1544 21.0184C32.1187 21.0669 31.7895 22.2712 31.8349 22.9006C31.8406 22.9826 31.8293 23.0671 31.7729 23.1168C31.6017 23.1354 31.577 23.0756 31.5445 22.9226L31.5173 22.9054C31.4362 22.9496 31.3687 22.999 31.2922 23.0498C30.9522 23.2747 30.5487 23.1558 30.344 22.8217C30.3362 22.8067 30.3284 22.7917 30.3203 22.7767C30.2551 22.6323 30.2209 22.4106 30.2899 22.2634C30.6555 21.4848 31.3944 21.9458 31.5387 21.8822C31.5712 21.8149 31.5782 21.7909 31.5568 21.7109C31.3828 21.062 30.9975 21.2928 30.5399 21.3916C30.4727 21.355 30.4634 21.2925 30.4243 21.2091C30.5183 21.0568 30.7595 21.0397 30.9169 21.0239Z" fill="#1E1E1E"/>
<path d="M30.8477 22.0753C31.1358 22.0483 31.2844 22.0543 31.5622 22.13C31.5614 22.3836 31.5654 22.4564 31.4712 22.6912C31.3977 22.7487 31.2957 22.8109 31.2151 22.863C30.6059 23.0521 30.2713 22.4284 30.8477 22.0753Z" fill="#FEFEFE"/>
<path d="M25.1002 20.9971C25.1216 20.9949 25.143 20.9936 25.1645 20.9932C25.904 20.9819 26.045 21.6025 26.039 22.1997C25.7438 22.2099 24.9083 22.1806 24.6952 22.2168C24.584 22.4083 24.9134 22.8237 25.1224 22.8641C25.3812 22.9143 25.4968 22.8615 25.7118 22.7367C25.7667 22.6908 25.7685 22.6887 25.8367 22.6724C25.9289 22.7003 25.8992 22.6782 25.9516 22.7518C25.9639 23.192 25.1105 23.251 24.8252 23.0451C24.5913 22.8762 24.4553 22.7193 24.394 22.4308C24.2639 21.8185 24.4293 21.1614 25.1002 20.9971Z" fill="#1E1E1E"/>
<path d="M25.0785 21.2661C25.5781 21.215 25.6803 21.5429 25.7561 21.9559L25.369 21.9504C25.2081 21.9489 24.7697 21.9945 24.6714 21.9145C24.6007 21.7008 24.8872 21.364 25.0785 21.2661Z" fill="#FEFEFE"/>
<path d="M17.987 20.9946C18.0081 20.9927 18.0293 20.9916 18.0504 20.9914C18.7799 20.9858 18.9454 21.6028 18.9367 22.2053C18.4715 22.211 18.0062 22.2079 17.5412 22.1963C17.6288 22.7301 17.9881 23.0693 18.5218 22.784C18.5897 22.7361 18.6222 22.7084 18.7033 22.6826C18.8045 22.7128 18.8117 22.752 18.8947 22.8441C18.7373 22.9809 18.6243 23.0684 18.4205 23.1299C18.1959 23.1958 17.9543 23.17 17.7488 23.0581C17.0164 22.6589 17.0253 21.2653 17.987 20.9946Z" fill="#1E1E1E"/>
<path d="M17.9892 21.2627C18.2099 21.2335 18.2921 21.2884 18.4657 21.4062C18.5362 21.5593 18.6869 21.7861 18.5833 21.9232C18.4855 21.9739 18.3246 21.9553 18.2084 21.9517L17.5164 21.9507C17.6178 21.6136 17.6471 21.4181 17.9892 21.2627Z" fill="#FEFEFE"/>
<path d="M28.9491 20.9974C29.6749 20.9054 29.8975 21.6093 29.8854 22.1939C29.4256 22.2067 28.9655 22.2104 28.5054 22.2048C28.5525 22.5526 28.7086 22.8427 29.1045 22.8978C29.2261 22.9147 29.4326 22.8319 29.5233 22.7516C29.58 22.7042 29.5835 22.6983 29.652 22.6746C29.7492 22.6933 29.7215 22.6737 29.7792 22.7381C29.8003 22.9577 29.586 23.0763 29.3991 23.1264C28.0556 23.4862 27.702 21.2936 28.9491 20.9974Z" fill="#1E1E1E"/>
<path d="M28.9522 21.2601C29.44 21.2206 29.521 21.5712 29.5893 21.9556L29.1055 21.9519L28.5062 21.9538C28.5321 21.6289 28.6283 21.3812 28.9522 21.2601Z" fill="#FEFEFE"/>
<path d="M80.3818 23.5323L80.7598 23.5312C81.0018 23.8819 81.3423 24.3973 81.547 24.7648L81.5415 23.5334L81.9489 23.5342L81.9477 24.8793C81.9477 25.0372 81.9565 25.4413 81.9341 25.5788L81.8903 25.6055L81.5984 25.6017C81.3173 25.1834 81.0645 24.7524 80.7845 24.3382C80.8119 24.6858 80.7933 25.2463 80.7895 25.6052L80.3851 25.6072C80.3971 24.9469 80.3984 24.1905 80.3818 23.5323Z" fill="#1E1E1E"/>
<path d="M9.26523 16.2448C10.0699 16.1601 10.2818 16.7433 10.2805 17.4327C10.0458 17.4427 9.03894 17.4035 8.92596 17.4663C8.90247 17.5692 8.96953 17.7568 9.02161 17.8461C9.09837 17.9793 9.22673 18.075 9.37644 18.1108C9.57914 18.1602 9.74107 18.1137 9.91241 18.0081C9.96487 17.9554 9.97328 17.9399 10.0407 17.9148C10.1383 17.9443 10.1683 18.0044 10.2476 18.0881C9.20187 18.9936 8.19381 17.7743 8.71742 16.7054C8.83306 16.4694 9.01773 16.3253 9.26523 16.2448Z" fill="#1E1E1E"/>
<path d="M9.29775 16.5199C9.82177 16.4579 9.91628 16.7662 9.99692 17.2031L9.67575 17.2071C9.48159 17.2112 8.99452 17.2695 8.88911 17.1238C8.86138 16.9063 9.11641 16.6238 9.29775 16.5199Z" fill="#FEFEFE"/>
<path d="M5.30237 28.8326L5.68611 28.8329C5.97065 29.2095 6.27386 29.5883 6.5508 29.9666C6.56624 29.6282 6.55198 29.1803 6.55017 28.8334L7.0006 28.8344L7.00014 30.7499L6.61295 30.7544C6.39811 30.4085 5.9945 29.9058 5.73824 29.5606C5.71142 29.943 5.73431 30.3552 5.71522 30.7496L5.30652 30.7544C5.32392 30.14 5.30544 29.4523 5.30237 28.8326Z" fill="#828282"/>
<path d="M10.4183 28.8337L10.8035 28.8368C11.0981 29.2241 11.3765 29.6042 11.678 29.9898C11.6721 29.6047 11.6692 29.2193 11.6696 28.8342L12.0786 28.8363C12.0952 29.4433 12.0858 30.1278 12.081 30.7359C12.0097 30.7575 11.8194 30.7512 11.7347 30.7515C11.5073 30.4556 11.0733 29.8355 10.8385 29.5874C10.8226 29.9536 10.8304 30.3809 10.8298 30.7517L10.4216 30.754L10.4183 28.8337Z" fill="#828282"/>
<path d="M13.1444 28.8386C13.2223 28.8308 13.3005 28.8258 13.3788 28.8233C13.7114 28.814 13.925 28.8668 14.1695 29.097C13.873 29.5331 13.8748 29.2649 13.4387 29.2187C13.3668 29.2111 13.1982 29.2674 13.1236 29.2911C12.8959 29.5548 12.89 29.6161 12.8974 29.957C12.9324 30.0304 12.9699 30.1143 13.0224 30.1767C13.232 30.4253 13.7029 30.4783 13.8676 30.1528C13.8712 30.0658 13.8823 30.0975 13.8324 30.0331C13.7318 29.9942 13.5323 30.0118 13.4152 30.0148C13.4133 29.8881 13.4108 29.7672 13.4162 29.6405C13.6909 29.6433 13.9656 29.6425 14.2403 29.6375C14.2518 29.8974 14.2469 30.1965 14.2488 30.4597C13.9459 30.749 13.5039 30.8536 13.1036 30.7244C12.8657 30.6498 12.668 30.4826 12.5549 30.2609C12.2411 29.6382 12.5706 29.1161 13.1444 28.8386Z" fill="#828282"/>
<path d="M30.514 28.8185C30.7336 28.827 31.1839 28.8665 31.203 29.151C31.1612 29.2589 31.0844 29.3217 30.9799 29.3682C30.9225 29.3426 30.7233 29.235 30.6878 29.2287C30.0224 29.1131 29.861 29.7 30.0886 30.195C30.3261 30.3574 30.8076 30.5135 30.9575 30.1628C30.9519 30.0754 30.963 30.1098 30.9061 30.0326C30.8185 30.0027 30.6067 30.014 30.5037 30.0148L30.5027 29.6337L30.7676 29.6392L31.3209 29.6387C31.3226 29.9117 31.3201 30.1847 31.3138 30.4574C30.9328 30.8415 30.2667 30.8971 29.8519 30.5361C29.657 30.3662 29.5394 30.1249 29.5258 29.867C29.4903 29.2446 29.9046 28.8426 30.514 28.8185Z" fill="#828282"/>
<path d="M31.6882 28.8414C32.1665 28.8381 32.6447 28.8394 33.1229 28.8451L33.1247 29.2363C32.793 29.234 32.4614 29.235 32.1297 29.2393L32.1236 29.6015C32.414 29.6083 32.7228 29.6033 33.0144 29.6035L33.0124 29.9803L32.1821 29.9814L32.1476 30.001C32.1131 30.0945 32.1254 30.2435 32.1274 30.3479C32.4664 30.3496 32.8054 30.3494 33.1443 30.3469C33.1468 30.4751 33.1348 30.6178 33.1269 30.7468L31.6887 30.7483C31.7056 30.1483 31.689 29.4484 31.6882 28.8414Z" fill="#8E8E8E"/>
<path d="M56.286 23.5373C56.4885 23.5229 56.9798 23.5756 57.0727 23.773C57.0327 23.875 56.9166 23.9981 56.8428 24.0859C56.1722 23.6216 55.773 24.2413 55.9687 24.8805C55.9934 24.9605 56.0843 25.0694 56.1369 25.1377C56.2444 25.1882 56.3207 25.2093 56.4351 25.2432C56.5345 25.2176 56.6343 25.1771 56.731 25.1412L56.7373 24.785L56.3678 24.786C56.3638 24.7283 56.3603 24.6706 56.3573 24.6129C56.3525 24.5113 56.3472 24.4829 56.4101 24.4148L56.5048 24.4128L57.1382 24.4185L57.1357 25.3621C55.5159 26.3885 54.7936 23.8816 56.286 23.5373Z" fill="#1E1E1E"/>
<path d="M21.3648 28.8341L22.7701 28.8354L22.7746 29.2315C22.4543 29.2366 22.1231 29.2333 21.802 29.234C21.7943 29.3529 21.7948 29.4811 21.793 29.6011C22.0815 29.6081 22.3922 29.6016 22.6823 29.6008L22.6718 29.9804L21.8555 29.9806L21.8185 29.9982C21.785 30.091 21.7971 30.2421 21.799 30.3466L22.8018 30.3489L22.7951 30.7468L21.3645 30.7513C21.3876 30.1694 21.3639 29.4274 21.3648 28.8341Z" fill="#828282"/>
<path d="M37.2676 28.8354C37.7371 28.8415 38.214 28.8385 38.6842 28.8397L38.686 29.2246C38.3815 29.2432 38.009 29.2351 37.6998 29.2361C37.693 29.3528 37.695 29.4868 37.694 29.6049L38.5658 29.6047L38.56 29.985L37.7685 29.9774L37.7131 30.0013C37.6779 30.0938 37.6915 30.2452 37.6942 30.349C38.0267 30.3505 38.3588 30.3492 38.6912 30.345L38.6892 30.7497C38.217 30.7464 37.7451 30.7467 37.2732 30.7507C37.2827 30.1285 37.277 29.4576 37.2676 28.8354Z" fill="#8E8E8E"/>
<path d="M36.4134 28.8341L36.8322 28.8381C36.8468 29.4635 36.8373 30.1131 36.8365 30.7403L36.4084 30.7539C36.4142 30.5005 36.4117 30.2355 36.4129 29.9809L35.6599 29.9889L35.6552 30.7468L35.2333 30.7518C35.2505 30.139 35.2311 29.4535 35.2293 28.8351L35.6577 28.8364L35.6592 29.5902C35.9158 29.5998 36.1525 29.5877 36.4167 29.6038C36.4215 29.3472 36.4205 29.0905 36.4134 28.8341Z" fill="#8E8E8E"/>
<path d="M70.7333 26.988L72.031 26.9921L72.029 27.3824L71.14 27.3857L71.1393 27.848L71.924 27.8462L71.9217 28.255C71.791 28.2537 71.2133 28.2311 71.1393 28.2854L71.1388 28.6763C71.441 28.6645 71.7439 28.6619 72.0464 28.669L72.0514 29.0606L70.7354 29.0626L70.7333 26.988Z" fill="#1E1E1E"/>
<path d="M73.2327 23.5003C73.3327 23.5018 73.3713 23.4836 73.437 23.5343C73.4546 23.7 73.4549 25.5656 73.4357 25.5963C73.3629 25.6174 73.2919 25.6108 73.2463 25.5493C73.2604 25.4741 73.2793 25.4276 73.2453 25.3622L73.2106 25.3534C72.9414 25.5659 72.8704 25.6858 72.4861 25.5385C71.6857 24.9954 72.3511 23.4234 73.239 24.3348C73.2446 24.0663 73.2355 23.7709 73.2327 23.5003Z" fill="#1E1E1E"/>
<path d="M72.7215 24.2339C73.3305 24.2567 73.333 24.8952 73.0731 25.3091L72.861 25.4177C72.2219 25.4165 72.1534 24.4341 72.7215 24.2339Z" fill="#FEFEFE"/>
<path d="M68.4457 23.5292L69.7449 23.5345L69.7383 23.9306L68.8617 23.9295V24.3903L69.6316 24.3907L69.6288 24.7892C69.4941 24.7872 68.9516 24.7642 68.8645 24.814L68.8625 25.2148C69.1501 25.205 69.4716 25.211 69.762 25.2102L69.757 25.6087L68.4459 25.6082C68.4522 24.9152 68.4522 24.2222 68.4457 23.5292Z" fill="#1E1E1E"/>
<path d="M85.3988 24.0484C85.695 24.0423 85.5691 24.1309 85.6219 24.2623C85.7189 24.2256 85.837 24.1289 85.9342 24.0654C86.8985 23.9771 86.9375 25.2706 86.2971 25.5647C85.9564 25.6298 85.8335 25.5715 85.6003 25.3217C85.6013 25.527 85.6922 25.9187 85.5283 26.0423C85.4499 26.0428 85.4724 26.0537 85.4162 26.0154C85.3699 25.5901 85.4059 24.5346 85.3988 24.0484Z" fill="#1E1E1E"/>
<path d="M85.9939 24.2391C86.5879 24.2451 86.6154 24.9117 86.357 25.305L86.1331 25.4236C85.9055 25.4038 85.8669 25.3533 85.6851 25.2009C85.5829 24.8665 85.5937 24.7983 85.6758 24.4651C85.7932 24.335 85.8312 24.2993 85.9939 24.2391Z" fill="#FEFEFE"/>
<path d="M18.5884 28.8334L19.018 28.8356L19.0209 29.2914C19.0257 29.6398 19.1194 30.2147 18.8211 30.5214C18.4668 30.8858 17.6901 30.8776 17.4683 30.3665C17.3337 30.0563 17.3804 29.2381 17.3829 28.8346L17.8048 28.8376C17.8171 29.2524 17.7651 29.7966 17.8425 30.1923C18.2125 30.5186 18.5566 30.4155 18.5899 29.9218C18.6131 29.5769 18.593 29.181 18.5884 28.8334Z" fill="#828282"/>
<path d="M80.6389 28.6699C80.4555 28.819 80.3019 28.953 80.0415 28.9301C79.8957 28.918 79.7607 28.8476 79.6673 28.735C79.2855 28.2778 79.6099 27.3102 80.2949 27.5395C80.3875 27.5704 80.5759 27.7273 80.6122 27.7157L80.6343 27.5231C80.6978 27.4729 80.7381 27.4972 80.8028 27.5412C80.8391 27.6566 80.8494 28.9947 80.7565 29.1784C80.7051 29.2802 80.6154 29.3562 80.5132 29.4152L80.4878 29.4303C80.455 29.3919 80.4379 29.3697 80.4087 29.3285L80.4175 29.3094L80.3903 29.2752C80.6159 29.0897 80.6061 29.0088 80.6338 28.7237L80.6389 28.6699Z" fill="#1E1E1E"/>
<path d="M80.0417 27.7019C80.0891 27.6994 80.1412 27.6972 80.1886 27.7017C80.3183 27.7158 80.4371 27.7811 80.5182 27.8834C80.7507 28.1803 80.5834 28.5355 80.3235 28.7469C79.8556 28.7922 79.6355 28.5141 79.7348 28.0463C79.7703 27.8799 79.8924 27.7779 80.0417 27.7019Z" fill="#FEFEFE"/>
<path d="M23.5604 28.8359C23.999 28.8097 24.119 28.8411 24.4886 29.0651C24.4062 29.1855 24.3574 29.2501 24.2605 29.359C24.0942 29.2873 23.8579 29.187 23.6796 29.2092C23.6111 29.2428 23.6084 29.2549 23.5629 29.3198C23.5394 29.6624 24.2023 29.5251 24.4979 29.9593L24.5154 29.9854C24.5572 30.4786 24.4288 30.6581 23.9396 30.7654C23.5811 30.7667 23.2938 30.7194 23.0319 30.4537C23.0511 30.4291 23.2421 30.1893 23.2608 30.1915C23.4722 30.2189 23.6554 30.4193 23.8879 30.3972C23.9579 30.3904 24.022 30.3552 24.0649 30.2996C24.1141 30.2348 24.1073 30.2255 24.0948 30.1629C23.8499 29.8703 22.674 29.961 23.2405 29.0113C23.3373 28.9462 23.4554 28.8897 23.5604 28.8359Z" fill="#828282"/>
<path d="M9.79159 20.2693C10.2387 20.2915 10.3995 20.3772 10.7314 20.6425C10.6575 20.7037 10.59 20.781 10.524 20.8516C9.93843 20.432 9.31411 20.4776 9.04884 21.1877C8.72503 22.0546 9.2507 23.2435 10.3157 22.7314C10.3727 22.7013 10.4814 22.6077 10.5371 22.5623L10.7205 22.7605C10.5143 22.9629 10.3283 23.0971 10.0331 23.1479C9.73571 23.1973 9.43094 23.1254 9.18717 22.9484C8.44809 22.4183 8.43273 21.0594 9.16007 20.5135C9.36854 20.357 9.54091 20.3115 9.79159 20.2693Z" fill="#1E1E1E"/>
<path d="M35.7703 20.2373L36.0662 20.2404L36.0614 21.3492C36.0876 21.3195 36.1143 21.29 36.1412 21.2609C36.4386 20.9414 36.8355 20.8771 37.1473 21.1927C37.4799 21.5296 37.3598 22.6578 37.3553 23.1096L37.0539 23.1105L37.0569 21.8502C37.0433 21.455 36.7715 21.0433 36.347 21.3216C35.8571 21.6425 36.1473 22.5614 36.044 23.094C35.9496 23.1117 35.9073 23.1015 35.8143 23.0888C35.7511 23.0136 35.7781 20.5439 35.7703 20.2373Z" fill="#1E1E1E"/>
<path d="M59.204 29.0268C58.3555 28.73 58.7089 27.2242 59.5842 27.5525C60.2196 27.7906 60.2702 28.7843 59.5573 29.0263C59.4885 29.0711 59.2752 29.0738 59.204 29.0268Z" fill="#1E1E1E"/>
<path d="M59.3334 28.8706C58.9383 28.7311 58.8549 28.2977 59.0093 27.9407C59.2959 27.2784 60.1015 28.0579 59.8177 28.5548C59.7489 28.6846 59.6112 28.8221 59.4633 28.8655L59.3334 28.8706Z" fill="#FEFEFE"/>
<path d="M59.3334 28.8704L59.4634 28.8654L59.5253 28.9332C59.517 28.9564 59.5084 28.9797 59.4999 29.0029L59.5573 29.0262C59.4886 29.071 59.2752 29.0737 59.204 29.0267L59.2632 29.0026C59.2508 28.9838 59.2385 28.9646 59.2266 28.9453C59.2498 28.9066 59.2914 28.8923 59.3334 28.8704Z" fill="#090909"/>
<path d="M84.1888 24.0608C84.29 24.0544 84.4167 24.0557 84.5202 24.054C85.0276 24.3226 85.2316 24.8193 84.877 25.3515C84.8345 25.415 84.6584 25.5433 84.5846 25.5636C83.8367 25.7557 83.4952 24.9399 83.8276 24.3706C83.9233 24.2063 84.0266 24.1538 84.1888 24.0608Z" fill="#1E1E1E"/>
<path d="M84.1943 24.2631C84.9563 24.155 85.0273 25.1232 84.5035 25.3888C84.4728 25.4116 84.3222 25.425 84.292 25.4134C83.8037 25.2239 83.8331 24.5406 84.1943 24.2631Z" fill="#FEFEFE"/>
<path d="M60.9185 24.061C61.9114 23.964 62.0026 25.3138 61.2902 25.5667C60.4002 25.7952 60.0401 24.4806 60.9185 24.061Z" fill="#1E1E1E"/>
<path d="M60.9233 24.2586C61.6513 24.182 61.7709 25.0825 61.2043 25.3921C61.0089 25.4587 60.893 25.3592 60.7435 25.2516C60.5619 24.8835 60.5506 24.5049 60.9233 24.2586Z" fill="#FEFEFE"/>
<path d="M67.2918 29.0229C66.4404 28.6815 66.8629 27.1811 67.7471 27.5722C67.9131 27.6464 68.0425 27.7834 68.1072 27.9531C68.2566 28.3424 68.1176 28.8573 67.697 29.0159C67.5935 29.0812 67.4034 29.0672 67.2918 29.0229Z" fill="#1E1E1E"/>
<path d="M67.1673 27.8429C67.8828 27.2922 68.3369 28.5971 67.5416 28.8721L67.4879 28.8844C67.3212 28.8248 67.2814 28.7994 67.1414 28.6953C67.0301 28.353 67.0079 28.1785 67.1673 27.8429Z" fill="#FEFEFE"/>
<path d="M67.488 28.8843L67.5416 28.8719L67.6146 28.9406L67.5965 28.9881C67.6182 29.0137 67.6534 29.0094 67.697 29.016C67.5935 29.0813 67.4034 29.0673 67.2918 29.023C67.217 29.0406 67.491 28.9612 67.3963 28.9979C67.3588 28.9785 67.3555 28.9745 67.323 28.9469C67.3568 28.8531 67.3316 28.9594 67.488 28.8843Z" fill="#090909"/>
<path d="M16.0599 28.8387C16.3038 28.8123 17.0126 28.8199 17.0361 29.1464C16.9985 29.2427 16.8933 29.3332 16.8175 29.4086C16.6407 29.2927 16.5175 29.2457 16.3131 29.1974C15.8897 29.3226 15.6444 29.6914 15.8743 30.1024C15.9408 30.2235 16.0539 30.312 16.1874 30.3475C16.4188 30.4088 16.5961 30.3156 16.7875 30.2024L16.7998 30.1813L16.8455 30.1723C17.0768 30.3653 17.1443 30.4975 16.8199 30.6619C16.5623 30.7927 16.207 30.8017 15.9366 30.6999C15.7148 30.6175 15.5359 30.4488 15.4404 30.2326C15.3269 29.9764 15.3193 29.6861 15.4193 29.4244C15.5514 29.0886 15.7544 28.9699 16.0599 28.8387Z" fill="#828282"/>
<path d="M2.64429 28.8342C3.12335 28.831 3.60241 28.8327 4.08144 28.8395L4.08033 29.241C3.76637 29.2553 3.39802 29.2465 3.08008 29.2467L3.0759 29.6188C3.2405 29.6175 3.90775 29.5775 3.97958 29.6635L3.97693 30.0134L3.0819 30.0142L3.07915 30.75L2.64963 30.755L2.64429 28.8342Z" fill="#828282"/>
<path d="M17.9736 16.2464C19.1035 16.1042 18.8333 17.6002 18.8255 18.3503L18.5215 18.3536C18.5131 17.904 18.5447 17.4417 18.5161 16.9948C18.4921 16.6214 18.2746 16.482 17.9188 16.5266C17.747 16.6127 17.7241 16.6472 17.5912 16.7859C17.4521 17.277 17.5955 17.8358 17.5128 18.319L17.4711 18.3471C17.3983 18.3472 17.3005 18.3593 17.2479 18.3177C17.2176 18.1335 17.2319 17.7098 17.2324 17.5062C17.2328 17.0905 17.2304 16.6749 17.225 16.2594C17.3118 16.2575 17.3917 16.2522 17.4771 16.2702C17.5463 16.3645 17.5027 16.3692 17.5439 16.4944C17.6829 16.4684 17.6982 16.3357 17.944 16.2558L17.9736 16.2464Z" fill="#1E1E1E"/>
<path d="M14.0508 20.9961C15.1208 20.9475 14.8518 22.3645 14.8424 23.1054L14.5359 23.1075C14.5381 22.7988 14.5369 22.4785 14.5435 22.1704C14.5535 21.6981 14.5388 21.083 13.8622 21.3131C13.3159 21.6409 13.6444 22.5558 13.5382 23.0849C13.4711 23.1327 13.3624 23.1225 13.2945 23.0831C13.2476 22.9913 13.2436 22.8219 13.2543 22.7196C13.3081 22.2017 13.2033 21.5781 13.2614 21.0716C13.3224 21.0246 13.4804 21.0227 13.5455 21.0626C13.5488 21.1475 13.5529 21.2034 13.5635 21.2883C13.6981 21.2485 13.7072 21.0864 14.0508 20.9961Z" fill="#1E1E1E"/>
<path d="M39.3754 16.2435C40.244 16.1614 40.2501 16.8678 40.2236 17.5256C40.2181 17.6674 40.2415 18.2777 40.1813 18.3449C39.9433 18.3551 39.9537 18.3899 39.9383 18.1811C39.9013 17.6833 40.0433 17.0663 39.7849 16.6209C39.6346 16.528 39.4523 16.4507 39.2792 16.5433C38.6411 16.8485 39.0884 18.0733 38.8942 18.3437C38.7869 18.3517 38.7622 18.3478 38.6582 18.332C38.6252 18.2609 38.6285 16.4995 38.6215 16.2757C38.7204 16.2673 38.8166 16.2449 38.8975 16.291C38.9463 16.3674 38.9295 16.4967 38.9269 16.594C39.0964 16.3779 39.1148 16.3368 39.3754 16.2435Z" fill="#1E1E1E"/>
<path d="M33.3582 28.8379L34.9294 28.8372L34.9269 29.2537L34.3691 29.2602C34.366 29.7436 34.3731 30.2642 34.3587 30.7443C34.2522 30.7441 34.1228 30.7476 34.0185 30.7431L33.9649 30.729C33.9193 30.6262 33.9263 29.5573 33.9581 29.4291C33.9467 29.3673 33.9493 29.3019 33.9004 29.2761C33.775 29.2099 33.5166 29.2507 33.3678 29.2489C33.3645 29.1137 33.3585 28.9721 33.3582 28.8379Z" fill="#8E8E8E"/>
<path d="M25.5393 28.8351L27.0949 28.8363C27.0989 28.9696 27.0936 29.1204 27.0919 29.2551L26.5408 29.2599C26.5356 29.5862 26.5368 29.9198 26.5351 30.2468L26.5303 30.7531H26.1132L26.114 29.2561C25.9314 29.2514 25.7257 29.2569 25.5411 29.2584L25.5393 28.8351Z" fill="#828282"/>
<path d="M23.634 16.2477C23.8316 16.2313 24.3668 16.2776 24.457 16.4695C24.4469 16.5515 24.3781 16.6235 24.3254 16.6934C24.0425 16.532 23.4577 16.3068 23.4771 16.841C23.487 17.1118 24.5181 17.2894 24.5233 17.7063C24.5292 18.1777 24.2016 18.3299 23.8521 18.389C23.5242 18.3755 23.3155 18.2909 23.0513 18.1023C23.1014 18.029 23.1793 17.9355 23.2356 17.8635C23.5178 18.0897 24.0052 18.3215 24.2 17.8903C24.3693 17.5156 23.278 17.3706 23.1892 16.9643C23.0968 16.5416 23.2828 16.379 23.634 16.2477Z" fill="#1E1E1E"/>
<path d="M27.0203 21.0005C27.3676 20.9969 27.5033 21.0621 27.7836 21.2368C27.7345 21.2934 27.6862 21.3505 27.6386 21.4082C27.5154 21.4504 27.006 21.0923 26.8476 21.3292C26.4132 21.9791 27.8033 21.8397 27.7866 22.5146C27.7743 23.0148 27.4542 23.1386 27.0513 23.1606C26.7219 23.099 26.6192 23.0493 26.355 22.8626C26.4006 22.7957 26.4738 22.7128 26.5272 22.6488C26.6902 22.7568 26.9657 22.9259 27.1833 22.872C27.6819 22.7361 27.5922 22.4639 27.2004 22.2514C26.772 22.0192 26.5894 22.0685 26.4469 21.5787L26.5172 21.2845C26.6882 21.0912 26.7733 21.0569 27.0203 21.0005Z" fill="#1E1E1E"/>
<path d="M25.37 16.2459C25.7085 16.2261 25.9238 16.2677 26.2018 16.4715L26.0749 16.6437C25.9379 16.7076 25.7095 16.4759 25.4516 16.4952C25.3753 16.5003 25.3053 16.5395 25.2612 16.6019C24.8694 17.149 26.1693 17.1377 26.2119 17.6678C26.2519 18.1685 26.0402 18.3049 25.5914 18.3902C25.3549 18.3731 24.9573 18.3377 24.8445 18.1024C24.846 17.9821 24.8704 17.986 24.9462 17.8669C25.0941 17.9827 25.229 18.0855 25.4204 18.1164C25.5053 18.1331 25.7327 18.1228 25.7949 18.0664C26.3459 17.5674 25.2678 17.4515 25.0426 17.151C24.8816 16.9363 24.8957 16.9179 24.9073 16.6424C25.047 16.3842 25.0932 16.3456 25.37 16.2459Z" fill="#1E1E1E"/>
<path d="M91.2226 24.0656C91.7288 24.0071 92.0604 24.1606 92.0481 24.7143C92.0421 24.9749 92.0723 25.326 92.0375 25.5695C91.9887 25.6138 91.9723 25.5982 91.8902 25.5977C91.7794 25.5039 91.8731 25.508 91.8003 25.4077C91.7232 25.4542 91.6729 25.5004 91.6051 25.5582C91.4009 25.599 91.2611 25.613 91.0723 25.5188C90.8139 25.2639 90.8144 25.0712 91 24.773C91.0927 24.72 91.2032 24.6606 91.3102 24.6433C91.456 24.6197 91.7167 24.7314 91.8398 24.6414C91.8655 24.5539 91.7222 24.2903 91.6583 24.2703C91.4865 24.2164 91.1692 24.3093 91.0035 24.2512L90.9899 24.2177C91.042 24.1385 91.1355 24.1064 91.2226 24.0656Z" fill="#1E1E1E"/>
<path d="M91.4596 24.7941C91.4914 24.7944 91.5228 24.7952 91.5546 24.7965C91.6556 24.8007 91.7293 24.7993 91.7996 24.8754C91.8492 24.958 91.8291 25.0641 91.822 25.1627C91.7329 25.2962 91.6845 25.3696 91.5281 25.4279C90.9446 25.4297 90.9199 24.8763 91.4596 24.7941Z" fill="#FEFEFE"/>
<path d="M87.9131 24.0625C88.6217 23.9925 88.76 24.2938 88.7214 24.9523C88.7139 25.0824 88.7673 25.5251 88.6809 25.5955C88.5867 25.5985 88.5865 25.6156 88.5356 25.5703C88.5361 25.5027 88.5394 25.4924 88.5157 25.4305C88.3105 25.4127 88.183 25.8053 87.6831 25.4607C87.5645 25.3036 87.5456 25.0968 87.5932 24.9078C87.6927 24.5112 88.3213 24.7406 88.5036 24.6507C88.5401 24.5623 88.5084 24.5337 88.4865 24.4514C88.3936 24.1021 87.8884 24.343 87.6914 24.2615L87.6894 24.2166C87.7317 24.1321 87.8254 24.103 87.9131 24.0625Z" fill="#1E1E1E"/>
<path d="M88.1195 24.7945C88.2706 24.7889 88.3726 24.8124 88.5189 24.8393C88.5217 24.9727 88.5068 25.086 88.4925 25.2175C88.3789 25.3339 88.3162 25.3887 88.1608 25.4339C87.642 25.3932 87.6035 24.9088 88.1195 24.7945Z" fill="#FEFEFE"/>
<path d="M76.9173 27.508C76.9483 27.5072 76.9795 27.508 77.0102 27.51C77.2928 27.5271 77.3794 27.5947 77.5577 27.7996C77.5688 27.8413 77.5774 27.8838 77.5834 27.9268C77.6038 28.0809 77.6355 28.9494 77.5605 29.0451L77.4363 29.0559C77.3613 28.976 77.4484 28.9549 77.3807 28.8591C77.1749 28.8905 76.9591 29.303 76.5652 28.9061C76.4023 28.7113 76.429 28.5957 76.4673 28.3609C76.8521 27.9019 77.1653 28.2251 77.3661 28.0856C77.3945 27.9889 77.3585 27.9197 77.3222 27.8317C77.1787 27.4838 76.6423 27.9258 76.5622 27.6925C76.6196 27.5268 76.7584 27.5381 76.9173 27.508Z" fill="#090909"/>
<path d="M76.9292 28.2623C77.1342 28.259 77.2079 28.2698 77.4076 28.3027C77.4011 28.4262 77.3734 28.5765 77.354 28.7009C77.2502 28.7834 77.2117 28.812 77.0956 28.8734C76.8999 28.9078 76.6995 28.8565 76.6418 28.6419C76.6202 28.5619 76.635 28.4762 76.6824 28.4081C76.7501 28.3093 76.8211 28.2839 76.9292 28.2623Z" fill="#FEFEFE"/>
<path d="M13.8346 16.2466C13.8714 16.2434 13.9083 16.2411 13.9453 16.2396C14.274 16.2245 14.4674 16.297 14.7101 16.5176L14.5306 16.7357C13.9326 16.3036 13.511 16.5386 13.4339 17.2485C13.3744 17.7963 13.8036 18.3688 14.3688 18.0234C14.4306 17.968 14.454 17.938 14.5339 17.9145C14.6288 17.9502 14.6458 18.002 14.7181 18.0912C14.6163 18.1853 14.515 18.2668 14.3862 18.3213C14.1638 18.4176 13.9117 18.4198 13.6876 18.3276C12.897 17.9994 12.8743 16.6087 13.8346 16.2466Z" fill="#1E1E1E"/>
<path d="M16.141 20.9958C16.5032 20.9873 16.6563 21.0547 16.9326 21.2818C16.8692 21.3495 16.8098 21.4236 16.7504 21.495C15.2804 20.4419 15.339 23.6135 16.6556 22.7259C16.6799 22.6998 16.7137 22.6858 16.7465 22.6676C16.8342 22.6866 16.8836 22.7628 16.9472 22.8341C15.6713 24.1334 14.4834 21.4357 16.141 20.9958Z" fill="#1E1E1E"/>
<path d="M74.2215 24.0581L74.2517 24.0567C74.7911 24.0319 74.9883 24.3753 75.0099 24.8724C74.8986 25.0756 74.0454 24.7715 73.9742 25.0531C74.0633 25.3257 74.2854 25.4056 74.5423 25.4265C74.6201 25.3848 74.813 25.2493 74.8616 25.2478C74.9195 25.3013 74.9039 25.2724 74.9087 25.3669C74.8538 25.5034 74.7279 25.566 74.5869 25.5826C74.5123 25.6075 74.3431 25.5992 74.2683 25.5826C73.6979 25.4557 73.6128 24.6153 73.9757 24.2361C74.0452 24.1635 74.1381 24.1094 74.2215 24.0581Z" fill="#1E1E1E"/>
<path d="M74.5423 25.4268C74.6201 25.385 74.813 25.2496 74.8616 25.248C74.9195 25.3016 74.9039 25.2727 74.9087 25.3672C74.8538 25.5037 74.7279 25.5663 74.5869 25.5829L74.538 25.5484L74.5778 25.4904L74.5423 25.4268Z" fill="#090909"/>
<path d="M74.3612 24.2384C74.3927 24.2418 74.5199 24.2569 74.5398 24.2745C74.6745 24.3929 74.8747 24.5544 74.7697 24.7435C74.7039 24.7731 74.5435 24.7596 74.4635 24.7575C74.3146 24.7599 74.1663 24.7658 74.0182 24.7508L73.9787 24.6925C73.9628 24.4906 74.161 24.279 74.3612 24.2384Z" fill="#FEFEFE"/>
<path d="M61.4286 27.5049C61.5313 27.5074 61.5711 27.4911 61.6464 27.5398C61.6469 27.6085 61.6469 27.6321 61.659 27.6992C61.8859 27.7047 62.0436 27.1743 62.4994 27.7789L62.6689 27.5707C63.1899 27.392 63.4533 27.6723 63.4546 28.1979C63.4551 28.4584 63.477 28.7763 63.4171 29.03L63.3501 29.0591C63.0894 28.934 63.4941 27.1608 62.658 27.803L62.6366 27.8196C62.4198 28.2992 62.6462 28.7615 62.4984 29.0252C62.4233 29.0722 62.4581 29.0629 62.3657 29.0569C62.2138 28.8324 62.6092 27.5564 61.9229 27.7115C61.8013 27.7389 61.7268 27.8822 61.6668 27.9817C61.6522 28.3133 61.6625 28.6595 61.6545 28.992C61.6532 29.0383 61.6346 29.0373 61.594 29.0647C61.5036 29.0622 61.5366 29.075 61.4694 29.0184C61.4502 28.9754 61.4404 27.6869 61.4286 27.5049Z" fill="#1E1E1E"/>
<path d="M62.1058 24.0451C62.278 24.0475 62.2763 24.0504 62.3322 24.2179L62.3372 24.2331C62.6482 24.1597 62.7409 23.7691 63.1423 24.3017C63.4924 23.9795 63.7157 23.9367 64.0638 24.2975C64.1078 24.4626 64.1348 25.3797 64.1048 25.5536C64.0361 25.612 64.0703 25.5969 63.9661 25.6006C63.9585 25.5964 63.9076 25.5675 63.9076 25.5675C63.85 25.2638 64.1219 23.8082 63.3138 24.3406C63.0547 24.7651 63.3267 25.4015 63.137 25.6067C63.0731 25.623 63.0862 25.6306 63.0406 25.6082C62.8721 25.4156 63.2849 24.1423 62.6251 24.2519C62.0811 24.3423 62.4576 25.3716 62.278 25.6152C62.1974 25.6303 62.2335 25.6376 62.1657 25.5949C62.0542 25.4207 62.108 24.3052 62.1058 24.0451Z" fill="#1E1E1E"/>
<path d="M82.7057 25.5618C82.1736 25.5007 82.0834 24.5171 82.469 24.2175C82.6933 24.0431 82.718 24.0465 83.0018 24.0564C83.4347 24.2821 83.4602 24.4794 83.4675 24.9352C83.1247 24.9408 82.7719 24.9346 82.4287 24.9328C82.5581 25.3348 82.6077 25.3576 83.0059 25.4346C83.1386 25.3551 83.2207 25.285 83.3735 25.2915L83.4133 25.3131C83.4158 25.5723 82.9061 25.6158 82.7057 25.5618Z" fill="#1E1E1E"/>
<path d="M83.0059 25.4342C83.1386 25.3548 83.2207 25.2847 83.3735 25.2912L83.4133 25.3128C83.4159 25.572 82.9061 25.6155 82.7057 25.5614L82.7148 25.5463C82.8097 25.4878 82.8371 25.4868 82.9469 25.476L82.9782 25.4729L83.0059 25.4342Z" fill="#090909"/>
<path d="M82.7087 24.257C82.785 24.2446 82.9381 24.2346 83.0013 24.2751C83.168 24.3814 83.3292 24.5302 83.2098 24.7338C83.1139 24.7855 83.0988 24.7648 82.9724 24.7603L82.434 24.7655C82.4899 24.5223 82.5213 24.4205 82.7087 24.257Z" fill="#FEFEFE"/>
<path d="M29.5956 16.2476L29.6412 16.2442C30.0134 16.2178 30.1962 16.2741 30.4866 16.5242C30.4183 16.5884 30.3584 16.6678 30.2989 16.741C30.2821 16.7279 30.2652 16.7149 30.2483 16.702C29.3382 16.0109 28.7512 17.5007 29.5913 18.0904C29.8086 18.1397 29.927 18.1472 30.1222 18.0389C30.1546 18.0152 30.2644 17.9 30.2989 17.8651L30.4878 18.0859C30.3823 18.1937 30.2876 18.2614 30.1484 18.3222C29.9315 18.417 29.6855 18.4195 29.4669 18.3292C28.73 18.0318 28.6902 16.7745 29.3425 16.366C29.4193 16.3178 29.5112 16.2816 29.5956 16.2476Z" fill="#1E1E1E"/>
<path d="M81.7049 27.4983C82.2763 27.5971 82.3378 27.8545 82.37 28.3866C82.0283 28.3904 81.6863 28.3887 81.3445 28.3819C81.3606 28.4731 81.3964 28.5953 81.4208 28.6878C81.6251 28.8479 81.6434 28.8648 81.9001 28.8758L82.0733 28.7899C82.1438 28.7544 82.165 28.7569 82.2456 28.7609L82.2975 28.7909C82.2947 28.8917 82.1866 28.9648 82.0955 28.9854C82.0685 29.0018 82.0257 29.0274 81.9958 29.0354C81.1964 29.2496 80.8648 28.2039 81.3453 27.6939C81.4614 27.5707 81.547 27.5481 81.7049 27.4983Z" fill="#1E1E1E"/>
<path d="M81.9001 28.8758L82.0733 28.7898C82.1439 28.7544 82.165 28.7569 82.2456 28.7609L82.2975 28.7908C82.2947 28.8916 82.1867 28.9648 82.0955 28.9854L82.0265 28.9668L82.092 28.919C82.0396 28.8489 82.0645 28.9396 81.9001 28.8758Z" fill="#090909"/>
<path d="M81.6563 27.7069C81.9016 27.685 82.0512 27.7805 82.1479 28.0236C82.1715 28.0827 82.1499 28.1465 82.1196 28.2011C82.0325 28.2529 82.0212 28.2333 81.9021 28.231L81.3314 28.2292C81.3443 28.1777 81.3576 28.1262 81.3717 28.0749C81.4299 27.864 81.4752 27.8095 81.6563 27.7069Z" fill="#FEFEFE"/>
<path d="M34.5309 21.0015C34.8752 20.9812 35.0545 21.0848 35.3071 21.2824C35.2252 21.3592 35.1849 21.4147 35.1169 21.5034C34.9429 21.3385 34.6543 21.1694 34.4161 21.2995C33.7084 21.6856 33.9938 23.3407 34.9951 22.7571C35.0497 22.7056 35.0522 22.7004 35.121 22.6739C35.2094 22.6957 35.2552 22.7755 35.3164 22.8513C35.1467 22.9962 35.0379 23.0839 34.8155 23.1367C34.6024 23.1872 34.3783 23.1513 34.1917 23.0368C33.6755 22.7176 33.5664 21.9149 33.8747 21.4203C34.0366 21.1603 34.2441 21.0666 34.5309 21.0015Z" fill="#1E1E1E"/>
<path d="M3.03202 20.2454C3.19984 20.2315 3.44661 20.1693 3.54485 20.3183C3.54689 20.4216 3.56525 20.4272 3.51146 20.4953C3.22475 20.6299 3.02164 20.2577 3.00746 21.0333C3.22391 21.0339 3.40193 21.0014 3.57177 21.1368L3.5662 21.2055C3.41997 21.3286 3.19793 21.2993 3.01225 21.2959L3.01129 22.542L3.01207 23.1094L2.71491 23.1105C2.71685 22.5386 2.73136 21.9093 2.70844 21.3421C2.64906 21.2437 2.58419 21.3458 2.48183 21.2533C2.44487 21.1772 2.45218 21.149 2.45782 21.0632C2.50525 21.0193 2.58051 21.0333 2.66626 21.0264C2.87057 20.8294 2.52828 20.6215 3.03202 20.2454Z" fill="#1E1E1E"/>
<path d="M34.051 15.675L34.3653 15.6753C34.3567 15.8693 34.3582 16.0841 34.3552 16.2798L34.8898 16.2809L34.8888 16.5451L34.3673 16.5456C34.3615 16.8839 34.2812 17.8429 34.4537 18.0654C34.5839 18.1541 34.7055 18.1127 34.8616 18.0875C34.8745 18.0915 34.8992 18.1197 34.911 18.1314C34.9619 18.3656 34.5486 18.4256 34.3907 18.3743C34.0268 18.2563 34.0583 17.8551 34.0495 17.5741C34.0442 17.4087 34.0825 16.6375 34.0381 16.5601C33.8981 16.531 33.8581 16.5331 33.7964 16.3987C33.812 16.3135 33.7944 16.3438 33.8656 16.2867C33.9414 16.2797 33.9545 16.2801 34.025 16.2544C34.0842 16.1738 34.0533 15.802 34.051 15.675Z" fill="#1E1E1E"/>
<path d="M64.545 27.5629C64.6561 27.6099 64.7432 27.6994 64.7875 27.8112C64.8668 28.0081 64.9293 28.9816 64.7437 29.0854C64.6291 29.0254 64.6341 28.9628 64.614 28.8436C64.3745 29.0907 64.0303 29.181 63.7933 28.8781C63.7082 28.7687 63.6716 28.6292 63.6923 28.4919C63.7563 28.0752 64.1924 28.0598 64.5213 28.1292L64.584 28.1493L64.6175 28.1312C64.6684 27.9726 64.5906 27.8361 64.477 27.7338L64.5032 27.7215C64.473 27.6732 64.4747 27.6765 64.4664 27.6202L64.545 27.5629Z" fill="#090909"/>
<path d="M64.4504 28.2648C64.571 28.2957 64.5491 28.2711 64.6173 28.3541C64.6289 28.4398 64.6236 28.5901 64.637 28.6452C64.4806 28.8611 64.1879 28.991 63.9691 28.7814C63.9114 28.7264 63.8812 28.6487 63.8868 28.5692C63.8966 28.4214 63.9782 28.3629 64.0829 28.2731C64.1973 28.2611 64.3335 28.2646 64.4504 28.2648Z" fill="#FEFEFE"/>
<path d="M64.545 27.5629C64.6561 27.6099 64.7432 27.6994 64.7876 27.8112C64.8669 28.0081 64.9293 28.9816 64.7437 29.0854C64.6292 29.0254 64.6342 28.9628 64.614 28.8436C64.6543 28.7732 64.6422 28.7275 64.637 28.645C64.6236 28.59 64.6289 28.4397 64.6173 28.3539C64.5491 28.271 64.571 28.2956 64.4504 28.2647L64.5073 28.2403C64.4692 28.2257 64.4478 28.2262 64.4312 28.1991L64.5214 28.1292L64.5841 28.1493L64.6176 28.1312C64.6684 27.9726 64.5906 27.8361 64.477 27.7338L64.5032 27.7215C64.473 27.6732 64.4748 27.6765 64.4665 27.6202L64.545 27.5629Z" fill="#1E1E1E"/>
<path d="M42.2642 29.5768C42.2584 29.5894 42.2322 29.6163 42.2217 29.6281C42.0844 29.6701 42.0635 29.5388 42.0212 29.4313C41.9275 29.4091 41.9645 29.4064 41.8789 29.437C41.8434 29.5295 41.8235 29.5869 41.7387 29.6341C41.6062 29.6484 41.5344 29.5486 41.4742 29.5592C41.3098 29.5879 41.1642 29.7058 40.9854 29.6424C40.8545 29.5469 40.9366 29.515 40.7892 29.4285C40.8044 29.3621 40.8706 29.3224 40.9275 29.2754L40.928 29.2483C40.8595 29.1427 40.8341 29.0921 40.8661 28.9597C41.0146 28.7721 41.1539 28.6975 41.3826 28.8189C41.4745 28.9637 41.4687 29.3013 41.5014 29.4991C41.5493 29.2591 41.3954 28.9531 41.5923 28.791C41.8185 28.7375 41.8406 28.8176 41.9235 28.9861C41.9673 28.8704 41.9691 28.8574 42.0784 28.8166C42.1345 28.8337 42.2179 28.8453 42.2338 28.8913C42.3028 29.0942 42.2441 29.3511 42.2642 29.5768Z" fill="#F7F7F7"/>
<path d="M42.0783 28.8167C42.1345 28.8337 42.2178 28.8453 42.2337 28.8913C42.3027 29.0942 42.244 29.3511 42.2642 29.5768C42.2508 29.5733 42.2375 29.5695 42.2241 29.5655C41.9857 29.4949 42.1949 29.3963 42.0869 29.1967C42.0113 29.1997 42.0088 29.2638 41.9167 29.3393C41.8431 29.2915 41.7595 29.1462 41.7064 29.066C41.7102 29.2199 41.7164 29.3719 41.7054 29.5253L41.6638 29.5577L41.6165 29.5449C41.5507 29.4034 41.5351 28.9552 41.6502 28.8355L41.6958 28.837C41.7726 28.8961 41.8547 29.0597 41.9066 29.15C42.0186 29.0303 42.0542 28.9755 42.0783 28.8167Z" fill="#828282"/>
<path d="M41.0919 28.8587C41.1859 28.8399 41.3815 28.8751 41.4027 28.9801L41.3516 29.0229C41.274 28.9834 41.2498 28.9683 41.1624 28.952C41.0894 28.9894 41.1058 28.9678 41.0745 29.0312C41.1501 29.1677 41.3747 29.1315 41.4299 29.3532C41.4112 29.4517 41.3846 29.4733 41.3201 29.5467C41.1539 29.5475 41.03 29.5767 40.9522 29.416C41.0207 29.3786 41.105 29.4555 41.2513 29.4404C41.3135 29.3904 41.2959 29.4221 41.3047 29.3414C41.1886 29.2046 40.9625 29.2557 40.9459 29.04C40.9899 28.9367 41.0055 28.9266 41.0919 28.8587Z" fill="#828282"/>
<path d="M78.4739 25.5294C77.8506 25.2124 78.0325 24.0653 78.7434 24.0569C78.8847 24.0538 79.0214 24.1077 79.1226 24.2062C79.3289 24.41 79.3362 24.6726 79.3354 24.9366C78.9947 24.9398 78.6444 24.9348 78.3029 24.9334C78.3886 25.2659 78.4052 25.1973 78.623 25.4037L78.6013 25.4698C78.548 25.4909 78.5235 25.5012 78.4739 25.5294Z" fill="#1E1E1E"/>
<path d="M78.6864 24.2371C78.9259 24.2569 79.2747 24.4995 79.0778 24.7296C78.9921 24.7834 78.8957 24.764 78.7887 24.759L78.3084 24.7646C78.3623 24.5101 78.4127 24.3168 78.6864 24.2371Z" fill="#FEFEFE"/>
<path d="M57.7489 25.4722C57.2125 25.056 57.4729 23.987 58.1904 24.0527C58.6177 24.0918 58.6981 24.6042 58.7205 24.9334C58.4823 24.941 57.8905 24.8914 57.7439 24.9666C57.6459 25.097 57.7776 25.2206 57.8713 25.3169C57.8489 25.4345 57.8612 25.4192 57.7489 25.4722Z" fill="#1E1E1E"/>
<path d="M57.9635 24.257C58.0239 24.2514 58.1493 24.2363 58.201 24.2599C58.3798 24.3421 58.5513 24.5226 58.4702 24.7258C58.3901 24.7807 58.3772 24.7605 58.2627 24.7577C58.0834 24.7605 57.7114 24.8214 57.6663 24.6094C57.7054 24.4951 57.8615 24.325 57.9635 24.257Z" fill="#FEFEFE"/>
<path d="M20.2978 21.0185C20.3354 21.0178 20.3694 21.023 20.4068 21.0269C20.4556 21.0915 20.4562 21.105 20.4687 21.1856C20.396 21.3983 20.225 21.3183 19.998 21.4828C19.5717 21.7919 19.8005 22.5389 19.745 22.9999C19.7367 23.0692 19.7329 23.0685 19.6873 23.0997C19.6035 23.1066 19.551 23.1173 19.4699 23.094C19.4272 23.0286 19.4446 22.9794 19.4456 22.8878C19.4452 22.7117 19.4217 21.1085 19.4553 21.0517C19.5696 21.0285 19.5927 21.0321 19.7067 21.042C19.7759 21.1227 19.7067 21.2358 19.7508 21.4031L19.7748 21.4038C19.7936 21.3694 19.8146 21.3362 19.8377 21.3044C19.9645 21.131 20.0908 21.0505 20.2978 21.0185Z" fill="#1E1E1E"/>
<path d="M11.762 16.2467L11.7945 16.2682C12.0007 16.7609 11.3254 16.4497 11.1487 17.0082C11.0534 17.3096 11.1376 18.2223 11.0533 18.3369C10.9818 18.3444 10.8883 18.3658 10.8321 18.3306C10.7881 18.2533 10.8036 18.1165 10.8058 18.0202C10.807 17.4355 10.8047 16.8508 10.7989 16.2662C10.8921 16.2632 10.9761 16.2483 11.053 16.2931C11.1195 16.3843 11.0929 16.5602 11.0903 16.6847C11.2896 16.4027 11.4077 16.27 11.762 16.2467Z" fill="#1E1E1E"/>
<path d="M75.094 26.9455C75.1797 26.9458 75.2018 26.9402 75.2779 26.9734C75.3101 27.0458 75.2809 27.6604 75.2784 27.7761C75.4587 27.5729 75.6667 27.4178 75.9447 27.5443C76.2902 27.7014 76.2552 28.1883 76.2575 28.501C76.259 28.6609 76.2706 28.906 76.2157 29.0442C76.1389 29.0742 76.1726 29.0721 76.0933 29.0495C76.0006 28.9326 76.0492 28.2567 76.0495 28.0722C75.9931 27.6189 75.5446 27.5596 75.3393 27.943C75.164 28.27 75.3988 28.6961 75.2688 29.0344C75.1955 29.0638 75.1865 29.0578 75.1051 29.0437C75.0595 28.8861 75.0945 27.217 75.094 26.9455Z" fill="#1E1E1E"/>
<path d="M55.5597 26.9931L55.9639 26.9923C55.9485 27.664 55.9599 28.3819 55.9604 29.0574L55.565 29.0599L55.5597 26.9931Z" fill="#1E1E1E"/>
<path d="M9.52466 28.833L9.9524 28.8355C9.95454 29.3936 9.98103 30.2196 9.94403 30.7497L9.53629 30.7565L9.52466 28.833Z" fill="#828282"/>
<path d="M4.42706 28.8341L4.8585 28.8351L4.85805 30.7478C4.72488 30.7456 4.56801 30.7544 4.43308 30.7584C4.45096 30.1581 4.44459 29.4331 4.42706 28.8341Z" fill="#828282"/>
<path d="M75.2905 24.0494C75.6027 24.032 75.4244 24.1564 75.5773 24.2167C75.6642 24.1674 75.7231 24.1193 75.8017 24.0582C76.7191 23.9979 76.4056 24.8312 76.4751 25.4156C76.4874 25.5179 76.4789 25.5539 76.4152 25.6228C76.1789 25.6864 76.264 24.8218 76.2656 24.6544C76.2406 24.3684 76.0502 24.1476 75.7503 24.2573C75.3373 24.4082 75.6025 25.3214 75.4939 25.5835C75.4242 25.6145 75.4134 25.6114 75.3381 25.5943C75.2771 25.5225 75.3066 24.9992 75.3038 24.8683C75.298 24.5982 75.2963 24.3202 75.2905 24.0494Z" fill="#1E1E1E"/>
<path d="M68.4525 27.5033C68.5693 27.501 68.5875 27.4867 68.6492 27.5802C68.6454 27.6242 68.6353 27.6657 68.6557 27.7021C68.9353 27.6838 69.1584 27.1637 69.5951 27.8213C69.6207 27.9993 69.6631 28.9278 69.588 29.0427C69.5283 29.0493 69.4742 29.0633 69.4233 29.0349C69.3966 28.8587 69.4107 28.2889 69.411 28.0722C69.3266 27.576 68.9161 27.5875 68.6706 27.9746C68.6444 28.3311 68.6847 28.6951 68.6618 29.0249L68.6147 29.0576C68.5124 29.0606 68.5479 29.0714 68.4676 29.0279C68.4308 28.7041 68.4553 27.8728 68.4525 27.5033Z" fill="#1E1E1E"/>
<path d="M58.9441 24.046L59.073 24.0509C59.1423 24.1054 59.1315 24.1319 59.1569 24.2323C59.2672 24.2321 59.7988 23.7359 60.0431 24.3361C60.1277 24.544 60.169 25.3896 60.0894 25.5703C60.0219 25.6007 60.0093 25.5952 59.9325 25.5904C59.8917 25.5248 59.9084 24.6973 59.9081 24.5567C59.8547 24.3147 59.7107 24.2225 59.4661 24.2521C58.903 24.3203 59.2664 25.3876 59.1126 25.6005C59.0214 25.605 59.037 25.6178 58.97 25.5796C58.939 25.5112 58.9471 24.2306 58.9441 24.046Z" fill="#1E1E1E"/>
<path d="M78.044 27.5045C78.0976 27.506 78.1273 27.5098 78.1807 27.5176L78.2165 27.5666C78.221 27.6184 78.2185 27.6574 78.2477 27.6993C78.358 27.6968 78.4766 27.5437 78.599 27.5173C78.8526 27.4633 79.109 27.6058 79.156 27.8667C79.1948 28.0822 79.2407 28.9024 79.1417 29.0653L79.0913 29.0766C78.9319 28.9688 78.9959 28.27 78.9969 28.0523C78.9579 27.918 78.9541 27.8567 78.8453 27.77C78.736 27.6827 78.7471 27.7008 78.6055 27.7051C77.9906 27.723 78.3429 28.8863 78.2102 29.049C78.1366 29.0588 78.121 29.0673 78.0593 29.0346C78.0261 28.966 78.0399 27.6709 78.044 27.5045Z" fill="#1E1E1E"/>
<path d="M72.2413 27.5095C72.3063 27.5073 72.3506 27.509 72.4156 27.5133C72.5727 27.5915 72.7299 27.9248 72.8382 28.0988C72.9926 27.8919 73.1177 27.4844 73.3947 27.5075L73.4179 27.5435C73.3262 27.73 73.1006 28.0377 72.9732 28.2637C73.0651 28.4135 73.4338 28.9444 73.4295 29.0605L73.2804 29.0585C73.1371 28.9967 72.9621 28.607 72.8319 28.4303C72.7113 28.6126 72.5785 28.8858 72.4375 29.0427C72.3746 29.0706 72.3275 29.0593 72.2582 29.0537L72.2456 29.0309C72.3244 28.8212 72.5584 28.5377 72.6861 28.2657C72.5926 28.0535 72.2675 27.6008 72.2413 27.5095Z" fill="#1E1E1E"/>
<path d="M6.14941 21.0365L6.46053 21.0387C6.4569 21.1507 6.44151 21.3316 6.47204 21.433C6.54414 21.5416 6.53673 21.5028 6.52124 21.6415L6.56103 21.6491C6.42069 21.9701 6.46602 22.7147 6.46063 23.1077C6.37047 23.1095 6.2432 23.1207 6.17052 23.0781C6.14591 22.9512 6.15495 22.5498 6.15437 22.3958L6.14941 21.0365Z" fill="#1E1E1E"/>
<path d="M32.8895 21.6184C32.5962 22.1077 32.848 22.6943 32.7216 23.0783C32.6526 23.1093 32.5334 23.1172 32.4652 23.0834C32.4481 22.9185 32.4587 22.5343 32.4592 22.352C32.4612 21.92 32.4579 21.4881 32.4496 21.0562C32.503 21.024 32.6659 21.0318 32.7266 21.0517C32.785 21.193 32.7017 21.2804 32.7586 21.4327L32.8301 21.5001C32.8734 21.5407 32.8754 21.5596 32.8895 21.6184Z" fill="#1E1E1E"/>
<path d="M12.2789 16.2725C12.3798 16.2694 12.4906 16.2524 12.572 16.3022C12.5948 16.4295 12.5786 16.8018 12.5775 16.9559C12.5765 17.4212 12.5728 17.8866 12.5662 18.3518C12.4694 18.3534 12.3642 18.3658 12.2792 18.3283C12.2551 17.9864 12.2728 17.5304 12.2691 17.1805C12.2667 16.9556 12.2567 16.4826 12.2789 16.2725Z" fill="#1E1E1E"/>
<path d="M70.6145 25.3793C70.6422 25.2406 70.6777 25.1033 70.7208 24.9685C70.7948 24.7346 70.9461 24.1122 71.1418 24.0105C71.2816 24.0841 71.2121 24.1925 71.1564 24.3033C71.0889 24.5495 70.8117 25.4995 70.6029 25.5855C70.3511 25.4897 70.1383 24.4278 69.9411 24.0699L69.9297 24.05C70.0151 24.0479 70.0509 24.0497 70.1352 24.0607C70.243 24.1256 70.5591 25.185 70.6145 25.3793Z" fill="#1E1E1E"/>
<path d="M35.4277 16.2675C35.5227 16.2644 35.6211 16.254 35.7098 16.285C35.7458 16.3699 35.7211 18.1332 35.7171 18.3504C35.6378 18.3522 35.5076 18.3618 35.4451 18.3202C35.3958 17.8424 35.4371 16.8091 35.4277 16.2675Z" fill="#1E1E1E"/>
<path d="M30.968 16.2742L31.2753 16.2657L31.2677 18.3491C31.1723 18.3505 31.0753 18.362 30.9904 18.3255C30.9668 18.1161 30.9768 17.7879 30.9768 17.5689C30.9804 17.1373 30.9773 16.7057 30.968 16.2742Z" fill="#1E1E1E"/>
<path d="M65.2751 27.0698C65.3514 27.0668 65.4 27.0547 65.4602 27.0972C65.5191 27.1902 65.4942 27.3788 65.4934 27.5049C65.6229 27.5022 65.8397 27.4642 65.8692 27.6238C65.7651 27.7432 65.6395 27.7068 65.4896 27.6993C65.4972 27.9808 65.3882 28.6809 65.6178 28.8493C65.7027 28.884 65.7591 28.8616 65.8475 28.8412C65.8636 28.8505 65.8744 28.8732 65.8868 28.8918C65.8754 29.0356 65.7596 29.0783 65.6307 29.065C65.052 29.0051 65.3665 28.0959 65.2698 27.7231C65.26 27.6852 65.1643 27.7259 65.0955 27.6472C65.0854 27.5874 65.0761 27.569 65.1043 27.5155C65.1756 27.5117 65.1907 27.5127 65.2577 27.4916C65.2937 27.3989 65.2773 27.1804 65.2751 27.0698Z" fill="#1E1E1E"/>
<path d="M58.3646 26.9551C58.4583 26.9491 58.5104 26.9415 58.6043 26.9611C58.6615 27.0313 58.6434 27.0086 58.6459 27.121C58.5187 27.2107 58.452 27.113 58.3049 27.2241C58.1309 27.6122 58.5187 27.4671 58.6358 27.531C58.6655 27.6182 58.6608 27.581 58.6388 27.6828C58.5739 27.7213 58.3578 27.7004 58.2681 27.6974L58.2621 28.7258C58.2654 28.8766 58.3037 28.996 58.1571 29.0857L58.1173 29.0722C58.0186 28.9274 58.0969 28.1335 58.075 27.905C58.041 27.5461 58.0146 27.7952 57.8718 27.6584C57.8597 27.5722 57.8483 27.5865 57.8786 27.5192C57.9365 27.5084 57.9863 27.5018 58.045 27.4948C58.0815 27.4465 58.0762 27.2462 58.0783 27.1725C58.1813 27.034 58.2125 27.0142 58.3646 26.9551Z" fill="#1E1E1E"/>
<path d="M74.5213 29.0131C73.5468 29.356 73.2355 27.7339 74.1552 27.5194C74.3091 27.4835 74.6908 27.5458 74.714 27.7369C74.6531 27.8025 74.6677 27.808 74.5959 27.8256C74.544 27.7922 74.4284 27.7123 74.3763 27.7042C74.0469 27.6534 73.853 27.8862 73.8313 28.1944C73.8205 28.3475 73.8525 28.6069 73.9562 28.7265C74.0466 28.8311 74.2061 28.8676 74.3388 28.8681H74.3675C74.4811 28.8067 74.6037 28.713 74.7352 28.772C74.7382 28.8832 74.6178 28.9721 74.5213 29.0131Z" fill="#1E1E1E"/>
<path d="M74.3675 28.868C74.4811 28.8066 74.6037 28.7129 74.7352 28.7719C74.7382 28.8831 74.6178 28.972 74.5214 29.013C74.4743 28.9889 74.4707 28.961 74.4571 28.9122L74.3675 28.868Z" fill="#090909"/>
<path d="M65.5574 24.0588C65.7332 24.0478 66.1354 24.0539 66.1686 24.2863C66.1344 24.3383 66.1255 24.3642 66.0671 24.3847C65.4267 23.7891 64.9266 25.0644 65.5529 25.3648C65.7015 25.4362 65.7654 25.4232 65.914 25.3684L66.0366 25.2786C66.117 25.2713 66.0847 25.2633 66.1527 25.3093L66.154 25.3721C66.0286 25.6059 65.7674 25.632 65.5347 25.5697C65.0122 25.4302 64.9429 24.685 65.228 24.3051C65.3209 24.1813 65.4229 24.132 65.5574 24.0588Z" fill="#1E1E1E"/>
<path d="M77.2583 24.0633C77.4434 24.0471 77.7753 24.0371 77.8627 24.2454C77.8591 24.3393 77.8738 24.308 77.8173 24.3707C77.6985 24.3725 77.4094 24.0585 77.1656 24.3507C76.8445 24.7355 76.9442 25.4352 77.5537 25.4114C77.6378 25.3543 77.7216 25.2804 77.8201 25.2867L77.8732 25.3106C77.9062 25.5617 77.456 25.6371 77.2502 25.5632C77.1238 25.5582 76.9367 25.3998 76.8873 25.2862C76.6635 24.7718 76.7806 24.3331 77.2583 24.0633Z" fill="#1E1E1E"/>
<path d="M77.5536 25.4113C77.6378 25.3543 77.7216 25.2803 77.8201 25.2866L77.8732 25.3105C77.9062 25.5616 77.4559 25.637 77.2502 25.5631C77.3247 25.4344 77.4106 25.6061 77.5531 25.4985L77.5536 25.4113Z" fill="#090909"/>
<path d="M60.4031 27.5046C60.4774 27.5031 60.526 27.4943 60.591 27.5284C60.6459 27.6023 60.6295 27.7288 60.6283 27.8281C60.6973 27.7343 60.7814 27.6478 60.861 27.5626C60.9818 27.531 61.0546 27.4988 61.1642 27.5787L61.1677 27.632C60.9917 27.9485 60.6635 27.6225 60.6293 28.309C60.627 28.5156 60.6318 28.7235 60.63 28.9301C60.629 29.0251 60.6373 29.0002 60.5799 29.0558C60.5092 29.0686 60.5071 29.0684 60.4439 29.0377C60.3883 28.8572 60.4193 27.7959 60.4031 27.5046Z" fill="#1E1E1E"/>
<path d="M87.0392 23.4979C87.1193 23.4968 87.1661 23.488 87.2359 23.5256C87.2988 23.7619 87.2502 25.2702 87.2495 25.6C87.1392 25.598 87.1369 25.614 87.051 25.5655C87.0276 25.3559 87.0384 25.0381 87.0382 24.8172L87.0392 23.4979Z" fill="#1E1E1E"/>
<path d="M66.2532 27.5078C66.3373 27.5043 66.3809 27.4972 66.4612 27.5281C66.4914 27.6066 66.4796 28.8913 66.4809 29.0583C66.4028 29.058 66.325 29.0701 66.2688 29.0253C66.2356 28.7785 66.2577 27.8343 66.2532 27.5078Z" fill="#1E1E1E"/>
<path d="M56.7176 27.8531C56.5846 28.1768 56.7178 28.9302 56.6017 29.0474C56.5081 29.0479 56.5003 29.0652 56.4443 29.0142C56.4446 28.7359 56.399 27.7384 56.4433 27.5389C56.5078 27.5034 56.5272 27.5104 56.6043 27.5132C56.6874 27.5954 56.6068 27.5982 56.6702 27.7472L56.6722 27.8176L56.7176 27.8531Z" fill="#1E1E1E"/>
<path d="M90.345 24.0553C90.4258 24.0544 90.489 24.0433 90.5558 24.0836C90.5875 24.2585 90.5689 25.3475 90.5678 25.6026C90.4815 25.6054 90.4525 25.6129 90.3739 25.5757C90.3357 25.4596 90.3543 24.2832 90.345 24.0553Z" fill="#1E1E1E"/>
<path d="M57.3706 27.598C57.6376 27.7235 57.6131 28.1375 57.6164 28.3914C57.6182 28.5339 57.6361 28.9431 57.5688 29.0573C57.4751 29.0562 57.5094 29.0696 57.4404 29.0087C57.3026 28.6689 57.5346 28.1712 57.2815 27.7682C57.2795 27.7129 57.2601 27.6616 57.21 27.6362L57.2132 27.6214L57.2641 27.6184L57.2558 27.631C57.2963 27.6171 57.3296 27.6086 57.3706 27.598Z" fill="#1E1E1E"/>
<path d="M71.5656 24.0541C71.6517 24.0507 71.6762 24.045 71.7585 24.0719C71.7973 24.1828 71.7766 25.3953 71.7764 25.6034C71.6814 25.5994 71.658 25.613 71.5835 25.5675C71.5462 25.2935 71.5724 24.4099 71.5656 24.0541Z" fill="#1E1E1E"/>
<path d="M64.4914 24.0551C64.5773 24.0513 64.5997 24.0459 64.682 24.0721C64.7208 24.1831 64.7004 25.3923 64.7002 25.6004C64.6073 25.5981 64.5644 25.6087 64.5048 25.5584C64.4665 25.2284 64.5027 24.4569 64.4914 24.0551Z" fill="#1E1E1E"/>
<path d="M89.8793 24.907C90.278 25.5659 89.2686 25.815 88.9639 25.3638C88.9919 25.3196 89.0193 25.2891 89.0528 25.2497C89.2306 25.2401 89.4797 25.6119 89.7182 25.3125C89.8146 25.1916 89.7471 25.0927 89.6618 24.9915C89.6988 24.9743 89.7695 24.9775 89.8139 24.9765L89.8793 24.907Z" fill="#090909"/>
<path d="M67.3774 24.9866C67.6366 25.712 66.6358 25.7002 66.4351 25.3829C66.4325 25.308 66.4212 25.3407 66.4741 25.2834C66.768 25.2741 66.9412 25.6157 67.2334 25.2319C67.25 25.1312 67.3165 25.0763 67.3774 24.9866Z" fill="#090909"/>
<path d="M6.47198 21.4331C6.59427 21.2503 6.73188 21.0769 6.95757 21.0318C7.02712 21.0185 7.09713 21.0076 7.16744 20.999L7.17042 21.3069C6.82855 21.3699 6.78922 21.4005 6.56098 21.6492L6.52119 21.6416C6.53668 21.5029 6.54408 21.5417 6.47198 21.4331Z" fill="#1E1E1E"/>
<path d="M66.5695 24.7132C66.2235 24.2865 66.7795 23.9245 67.1711 24.0926C67.2409 24.1225 67.3615 24.1781 67.3932 24.2458L67.3492 24.3014C67.1172 24.3839 66.9331 24.0621 66.6453 24.3961C66.6131 24.5523 66.5662 24.5478 66.5695 24.7132Z" fill="#090909"/>
<path d="M32.7586 21.4329C32.9306 21.1923 33.0495 21.0588 33.3474 21.0081C33.3844 21.0019 33.4214 20.9962 33.4584 20.991C33.4602 21.0951 33.4776 21.1944 33.4194 21.2723C33.1867 21.453 33.157 21.2758 32.8896 21.6186C32.8755 21.5598 32.8734 21.5409 32.8301 21.5003L32.7586 21.4329Z" fill="#1E1E1E"/>
<path d="M89.0586 24.6362C88.7559 23.9384 89.9871 23.9334 89.9246 24.2875C89.7265 24.3785 89.4029 24.0752 89.2072 24.4074L89.1936 24.4307L89.1805 24.5159C89.0808 24.5608 89.1142 24.5308 89.0586 24.6362Z" fill="#090909"/>
<path d="M66.5696 24.7132C66.5663 24.5478 66.6131 24.5523 66.6454 24.3961C66.7642 24.7913 67.2122 24.6704 67.3774 24.9863C67.3165 25.0761 67.25 25.131 67.2334 25.2316C67.1115 24.8395 66.8327 24.9563 66.5696 24.7132Z" fill="#1E1E1E"/>
<path d="M89.0586 24.6363C89.1142 24.5309 89.0808 24.5609 89.1805 24.516L89.1936 24.4308C89.3593 24.7431 89.5766 24.6588 89.8793 24.9071L89.8138 24.9767C89.7695 24.9777 89.6987 24.9744 89.6617 24.9917C89.4792 24.9225 89.1747 24.7927 89.0586 24.6363Z" fill="#1E1E1E"/>
<path d="M57.8713 25.3168L57.8947 25.3314C58.1453 25.4862 58.3246 25.3761 58.5749 25.2731C58.6469 25.3404 58.6336 25.3085 58.6464 25.394C58.4979 25.6288 57.9756 25.631 57.7489 25.4722C57.8612 25.4191 57.8489 25.4345 57.8713 25.3168Z" fill="#090909"/>
<path d="M80.4877 29.4303C80.2588 29.5175 79.7174 29.5193 79.5791 29.2875L79.6081 29.2232C79.7929 29.145 79.9516 29.3883 80.3641 29.2822L80.3903 29.2752L80.4175 29.3094L80.4086 29.3285C80.4378 29.3697 80.455 29.3918 80.4877 29.4303Z" fill="#090909"/>
<path d="M78.623 25.4036C78.8541 25.4247 78.9793 25.4378 79.1508 25.2616C79.2331 25.2676 79.2017 25.2571 79.2697 25.3139L79.2825 25.3652C79.1201 25.6201 78.7267 25.6449 78.4739 25.5293C78.5235 25.5012 78.5479 25.4908 78.6013 25.4697L78.623 25.4036Z" fill="#090909"/>
<path d="M64.4771 27.7341C64.1804 27.6268 63.9701 27.8068 63.8387 27.7504L63.817 27.6838C63.8742 27.4397 64.3617 27.5074 64.5451 27.5632L64.4665 27.6205C64.4748 27.6768 64.473 27.6735 64.5033 27.7218L64.4771 27.7341Z" fill="#090909"/>
<path d="M35.4058 15.5062L35.7357 15.5064L35.7307 15.861L35.4098 15.8637L35.4058 15.5062Z" fill="#1E1E1E"/>
<path d="M30.9522 15.5117L31.2831 15.5142L31.2766 15.8666L30.9575 15.8621L30.9522 15.5117Z" fill="#090909"/>
<path d="M12.2591 15.509L12.5892 15.5093L12.5837 15.8591C12.5005 15.867 12.3515 15.865 12.263 15.8666L12.2591 15.509Z" fill="#1E1E1E"/>
<path d="M56.6703 27.7474C56.8418 27.5584 57.143 27.3772 57.3706 27.5981C57.3296 27.6087 57.2963 27.6172 57.2558 27.631L57.2641 27.6185L57.2132 27.6215L57.21 27.6363C57.2601 27.6617 57.2795 27.713 57.2815 27.7683C57.0483 27.6529 56.909 27.6768 56.7176 27.8533L56.6723 27.8178L56.6703 27.7474Z" fill="#090909"/>
<path d="M66.2412 26.9898C66.3228 26.9876 66.3797 26.978 66.4543 27.0092C66.5049 27.0748 66.4905 27.151 66.4893 27.2395C66.4062 27.2425 66.3487 27.2515 66.2709 27.2234C66.2233 27.1364 66.2412 27.1002 66.2412 26.9898Z" fill="#090909"/>
<path d="M90.3253 23.5343C90.4112 23.5322 90.4674 23.5239 90.5482 23.5533C90.5976 23.6174 90.5842 23.6917 90.5834 23.7778C90.4991 23.7811 90.4575 23.7862 90.3737 23.765C90.3157 23.6787 90.3334 23.6543 90.3253 23.5343Z" fill="#1E1E1E"/>
<path d="M64.4745 23.5342C64.5574 23.5331 64.5954 23.5295 64.6777 23.5515C64.7266 23.6271 64.7067 23.6777 64.7052 23.7828C64.6223 23.7873 64.6009 23.7878 64.5193 23.7738C64.4581 23.6932 64.4785 23.6536 64.4745 23.5342Z" fill="#090909"/>
<path d="M71.5522 23.5335C71.6348 23.5328 71.6724 23.53 71.755 23.5501C71.8023 23.6268 71.7847 23.6586 71.7842 23.7618C71.7127 23.7849 71.656 23.7982 71.5875 23.7713C71.5384 23.6995 71.5512 23.6247 71.5522 23.5335Z" fill="#090909"/>
</svg>
